<mxfile host="app.diagrams.net" modified="2023-09-26T11:52:33.388Z" agent="Mozilla/5.0 (Macintosh; Intel Mac OS X 10_15_7) AppleWebKit/605.1.15 (KHTML, like Gecko) Version/16.6 Safari/605.1.15" etag="oIb6BIqQNGwd-rtd1jCq" version="21.7.5" type="github">
  <diagram name="Page-1" id="JSstjpeJ_obGKfqjX3Xl">
    <mxGraphModel dx="954" dy="599" grid="1" gridSize="10" guides="1" tooltips="1" connect="1" arrows="1" fold="1" page="1" pageScale="1" pageWidth="827" pageHeight="1169" math="0" shadow="0">
      <root>
        <mxCell id="0" />
        <mxCell id="1" parent="0" />
        <mxCell id="Pd8pBgte8W38DO9UlrW--1" value="Build" style="swimlane;whiteSpace=wrap;html=1;startSize=23;fillColor=#d5e8d4;strokeColor=#82b366;" vertex="1" parent="1">
          <mxGeometry x="80" y="200" width="190" height="280" as="geometry" />
        </mxCell>
        <mxCell id="Pd8pBgte8W38DO9UlrW--2" value="" style="dashed=0;outlineConnect=0;html=1;align=center;labelPosition=center;verticalLabelPosition=bottom;verticalAlign=top;shape=mxgraph.weblogos.github" vertex="1" parent="Pd8pBgte8W38DO9UlrW--1">
          <mxGeometry x="10" y="60" width="60" height="60" as="geometry" />
        </mxCell>
        <mxCell id="Pd8pBgte8W38DO9UlrW--3" value="" style="shape=image;html=1;verticalAlign=top;verticalLabelPosition=bottom;labelBackgroundColor=#ffffff;imageAspect=0;aspect=fixed;image=https://cdn1.iconfinder.com/data/icons/unicons-line-vol-3/24/docker-128.png" vertex="1" parent="Pd8pBgte8W38DO9UlrW--1">
          <mxGeometry x="10" y="120" width="70" height="70" as="geometry" />
        </mxCell>
        <mxCell id="Pd8pBgte8W38DO9UlrW--4" value="CI Github Actions" style="text;html=1;align=center;verticalAlign=middle;resizable=0;points=[];autosize=1;strokeColor=none;fillColor=none;" vertex="1" parent="Pd8pBgte8W38DO9UlrW--1">
          <mxGeometry x="70" y="75" width="120" height="30" as="geometry" />
        </mxCell>
        <mxCell id="Pd8pBgte8W38DO9UlrW--5" value="Build Container" style="text;html=1;align=center;verticalAlign=middle;resizable=0;points=[];autosize=1;strokeColor=none;fillColor=none;" vertex="1" parent="Pd8pBgte8W38DO9UlrW--1">
          <mxGeometry x="75" y="140" width="110" height="30" as="geometry" />
        </mxCell>
        <mxCell id="Pd8pBgte8W38DO9UlrW--6" value="" style="shape=image;verticalLabelPosition=bottom;labelBackgroundColor=default;verticalAlign=top;aspect=fixed;imageAspect=0;image=data:image/png,iVBORw0KGgoAAAANSUhEUgAAAMgAAADICAIAAAAiOjnJAAAlvUlEQVR4nOydd1xT19vAT3YgCSEM2VtEEVABERXFvWqXVbHaOuqve7nbam1tq7bWLldbq9bVum1t3VtxsEQFBFQ2yAwJISRkJ+9HLy9SNDfJzT33JprvX7fk5Jyn8uXec895zjl0g8EAHDjAGyrZATh4MnGI5QAKDrEcQMEhlgMoOMRyAAWHWA6g4BDLARQcYjmAAp3sABwQQVNT0/Xr1wvyC8rKymtrayUSiVqtBgCw2WyBQODr6xMaGtYzKrJPnz5cLheXFimOkfcnGJVKdfbsuZMnT+bfyjfnF02n02Jj48aMHT1w4EA63aqbjkOsJxOVSvXXwb/379/X3CzF8PUuXbpMe2Xa2LFjaDQatgAcYj2BpKdnrF2ztr6+3sp6QkJD5s+f16NHDwzfdYj1RKFWq3/++ZfD/x7Gq0IqlTp9xvRp06ZSqZa95znEenKQSCRLP11aUFCIe80DkwYuWbKYxWKZ/xWHWE8IIpFowfyFlZWVkOqPiYlZ+fUKJycnM8s7xHoSkMlkH34wp7y8HGorsbGxX3+z0sy3RccAqd2j1+uXf7UCtlUAgOvXr69ds87Mwg6x7J5du3ZnZWUR09bRo0fPnDlrTkmHWPZNaWnpzh07iWxx3dp1YrHYZDGHWPbN+vUbtFotkS3KZLLNmzabLOYQy47JzMzMuZlDfLunTp0uL69AL+MQy47Zu2cfKe0aDIZ9e0007RDLXqmsrLp58yZZrZ8/f14mk6EUcIhlr5w17+0MEmq1+tKlSygFHGLZK+np6eQGkHY1DeVTh1h2iVQqLSkpITeGmzdzUKZtHGLZJUVFxaTPxcnl8urqamOfOsSySyorTLztEwPKnLcj5x1odCqtTqM36GhUOpvBQWbfLE0/IhihUEh2CPcRNhgN46kQS6VpbWipapBWiuW1Ynlds0LYohC3KJsUmhaFRm4w6JFiQ7qnvBQ39/6DpvTWomUznNgcDofH5wlc+e7uAk8Pd29vrwBf70A/nyBnJ3xWHGCmBfVVnzCkLS3GPnoyxZKrmstF+RWNBffEd+5JiprkdZbWYDAYWhWyVoVM2Fj76Kee7t7Bgd3Cgnt0DY3sHh7jwhPgFLi56IidxjGGXq839tGTI5ZCLbtTl3W3Pru4/nptcynUtoSiOqGoLutGKvKffj7BUT3iYyL79o7ux+O6Qm0agWbdEhq8oFAoxj6yifisQSSryam6kHcvtVSYpzfoSImhura8urb85LkDFAqlW1h0QmxyYvzQAL9QeC1yOBx4lZsPl2s0DHsVq1nRmF1+6lr5ySrxHbJjeYjBYLhTnHunOHfnvnWB/mGDEkcPSXrGy9MP94Y8PTxwrxMDnh6exj6yM7F0eu2t6stXi/8trE1v73TbJpX3Sv488POfB36O6hE/euiE/gnDmQwLFiOgExAYiFdV1uAfEGDsI7sRq0XZdKXo78tFfzUrGsmOxTJuFV67VXiNt4M/auiEcSNSPD28ra8zPLwrHqFZBYvFCgy0Z7GELffOFvyRUXpMq1eTHQt2WmTNBw9v/fvojkGJoyaMnxUS1M2a2gQCQVBQUAWpw6TR0VEo66RtWqwGaeXxvC3ZFadt/KlnPnq97uLV4xevHu8XN2TKhLfCgrtjrqpfYj9yxeqXmIjyqY2KJVU0HsnZmFF6jKwXPdhkZF/IyL7Qv+/wVye/5+8bgqGGYcOGmcy2gweVSk1OHoxSwObEUmuV5wp3nynYodIqyI4FOmlZZzOyL4wZ9tLUie+48CwbAAsP79q9e/fbt29Diw6NAQMGuLu7oxSwrRkxsbxu+eGUo7kbnwarEPR63bEz+96a/9zxM/tRBrIfy6DBg6DFZYKUlMnoBWxLLDeOtyfPn+woSEAml/6ydcVHX86sqCo28ys5N3MIXvjVTmJiYmTPSPQytiCWPlf8q0Td9g86JeEjOpVBdkjkcKcod+6SKfsObdLpTPQsc27mLF68RKlUEhXaQxgMxtvvvGWyGMlitWgqD1U8c6l+/qW6BchPPF0Ch/eYRm5UJKLVaf/Yv+HU+b9QypBoFQDgtdmv+fubfqqQKVZR84E9pYnVrakAgEr56RLpP8jPR0XNdOP4kBgYubwwbvrYEZOMfUquVYmJ/SZNmmhOSXLE0uqVF2o/PFUzQ61vbv/h5fpFGn0rAIBJZyN5UU8hL4yb/tq0ecY+JdeqkJCQxUsWo2Q0dIQEsWSa6r8rRuVLOi/TlmnvZTeuQq5jAgZH+g4gPjZysWWr/AP8v129yvysCqLFqlNk7C9LalBmP/bTG+I1Taq7yPXE+Hl0KpPY6MjElq2KiIj46acf3dzczP8KoWIVNe8/VDG2VddgrIDeoLlUPx+59uT5j4x8lcDoyMSWrRozZsxPP/0oEFiWJUucWDdEa07VzNIZVOjFquTniqVt70Qjo6a7PwW9eJu1ylXg+vmyzxcuWsBkWfzoIEisRmVeWsNSAMxaCne5/iONXgYAYNBYE+Pnw4+OTOBZxXgAtqicnNhTp768Y8f2wVgH9wkSy4MdPdJ3CwWYtRu9XFtzrfEb5DrKPynKLwlydKQBzyomk7l8xVe7dv85ffp0Hx8L7vqBQYGvv/H67j27Z/9vtjUJ0HAnofV6fUNjjXcXfwBAOH8SAOB0zWwDMJ2wcFO0PoL/ihurOwDgpbi5d+qyNDoTz1C7A6pVXy3/Mj4+HgAwY+b0GTOnFxUVXbuWXVhQWFJSIhQKO47s0+l0Ly+vsK5hkZGRffvGBwcHY/0f+g9wxfpl64qrmWeWL/4tJCjCIrf0QJNaN++FoGP373Y8v5E9ZxzL/Q1qqARDjFXthD8Audbr9c3NUrVKBSiAzWbzeDwYq3MhPgo371x98tzBFlnzpyvfKKtoW/IQzp9k5jOxuvXi3eb9yPWIyFc8uPgvSSALgq3qBJVKFQhcvby9vLy8+Hw+pDXfsMTae2jTvyf+RK4xu3Wl4WO1vuVBL575xPTi4VnFZrOXL/8K3SrCgCLWmQuH/ty/oeNPsLnVqq3LEq5Ernv6DYjxR0tZtAugWrVy5Yq4+DjrAsQN/MXKuZWxYctXj/4cm1u54p9FynzkekLcXAYNtxVUxAPbql69e1kXIJ7gLFZ1bcWqtQt1+sf3zTG4pQfa1Pq2X4Y712d01Ex8AyaMp8oqnMVqVciXf/+hTI528iIGt2paL99p3oNcD+8xzZNndC2bzfK0WYWzWGs2flZda/pEFwxuXW1YrNbd95VOY06yt178U2gVnmL9c2xnWpa5+/ha6lartj6zcTly3cM3sXfAUDxCJoKn0yrcxCouK9y+d61FX7HUrVzxr43KPOR6QtyHTBrbupCJ4Km1Ch+xlMrW79Z/rNVqLP2iRW4ZgC61bi4yjS3geI+OnmV14HAh0Sq1mpwEm47gINa23T/V1GFc622RW7WKtNuSXcj1sB5TvVyCsIYMHRKt2rlv/Y+/LsVQM75YK1ZufuaxM1Yt9LbIrasNS1Q6yf1ePJVhs2Px5Fq1/5/NVzJOX04/haF+HLFKLLVauX7zl9YHYb5bCp0wQ9g2+trdJ6FP4HDrW8cX0q1Crn/bsUomQxv3gY1VYu37Z0tdwz1c4jDfrVtNmxqVbWepTYj7kEU39/hrArARqwAAkmbR1t0/YmgIL7CLda+2/K8j23AMxUy3DEB34X4vXg8AcHXuMib6NRxjsAbbsQrhzMVDd4rzMDSHC9jF+v2P7zC8CaJjplv1ioxCSVvqxNDuL3vz8clNswZbswrZEHXjtq/J2loMo1jXc69eu3kZ72CA+W5dbfhUqWsCANCo9EnxC2BEYj42aBVCcVnBhcvHMLRrPVjE0uv123ZBfH6b45ZS15gh/AK57uYdHxc0El486NisVQg79q1Ta0jI6sYi1qW0E+VVRRCCeYg5buU3bWlQ3ECuX4z7gEV3hhrSY7FxqwAAInH9sdMkbPxnsVg6nXbXwV/gBPMfTLplAPqLdXMMD3rxfCfPcTH/IyCqjti+VQgHD/+uVBG9kZ3FYqWmnaitr4ITTGdMutWgvFbYtAO5To6Y7MOHeBhEJ+zFKgBAs7TpOOE3LcvE0uv1B/79HVowj8GkW2nCpUqdGOnFT+67kJio7MgqhEPHd6o1hG5mbplY126kVlXDPf/oUdDdUurE6Q2fI9ddvfrEB4+GHY/dWQUAaJI0nr98BMMXMUOx6ATYJStezyvIghmPUXhcfvv6RGR/kQ7rE6kTg897OcU/2Mdb9NXhyUqN3ERtbEGgW6SPa6gnz1/g7MVlu7LoHA6Lz2G5AABkMunVrLN1DVUVVcUlZYViycPjHu3RKoQA39D13x40c3cr67FArLLKux9+YmKvXKiguOXJjp0UcgG5jV24vedg9k+Pfp1KoYZ7xUX7D+ru08+izIja+qrc/MyM6xcC/cJmvjzHWDFbtgrhi49/6RPd38pKzMQCsX7ZuvK4dYkM1oPiVrL3mijB/x4c5KT79vj0GsnDQ949uH4Dw1/sFzqOx7ZghyeLsH2rAACJ8cMWz/3B+nrMwVyxlMrWme+NbFWYeMQQgDG3WDTBtNCbTnQPAEBJQ85Pp98EAPi6ho2Nnh0TMIRKgbjm2y6suv9+Q6P9vvakwJWII+loy5YtM6dcatqJS+kn4cdjGrVadSXjdGzMAOQfyJ3d05XZtbTlsNbQqtQ3hfCeQfaL1+hUSeETJics9OGHQu1Y2ItVyOwh30UQGdEHrwpRMPfvmOB3CnSMvScWSnbUKTKRHz7f592+IWMokPdpsiOrEAj7PZr17y5uEubmZ8IPxgKMuEXNEn5NWAx2ZxVyPGdZ5V3cq30Us8S6mnXWolEJYnjUrWcCDgz3/ZWY1u3RKoQrhGQtmyVWWuYZ+JFgoZNbQdxRznQvAtq1X6uQ2wS8ytsxLVaLTJp/5zoBoWADcatRVEdYi3ZtFQDgXk1ZTS30EzRN7+h3I/eKpcedEUxC3BAPdywHLcvl8uLiksrKSmFDg1wu12i0dAadw+F08fQMCAzs2jWMy+V2+oq9W4VwLefycz5wF8+ZFis79yrUCKykb5/B783+zKKvVFdXnz1zLiMj/c6duyh9RwqFEh4e3q9fwvDhwwMenKr9ZFiFJAA/NwbuSVimB0hnvTdK1GR0y39yCQoIX/3FDjbL3IU62dey9+7dm51t8ZO9V+9eAwYM2Pr71ifAKgAAi8ne9VsqgwHx4A8Td6zq2gqbtcqJ7fzJnO/NtKqsrHzDhg03rt/A1lbOzZycmznYvmtrVgEAVGplUemtyIhYeE2YECv/9uMPvbEF/vfqIl/vQJPF9Hr9nt17tm/fodVqCYnrP9igVQj5t2+QKdad4lx4bVtD76jEkUNeMFlMJpOtWL4iM5OcVB+btQoAUHj3JtT6TYpF2opHFOg0+puzPjFZTCQSLVr4UXm56b3gYGDLVgEAikvzodaPNo6lUivv1ZRBbR4bY0dM9vM28bYskUjmz1vgsMoYEqm4UVQPr340sSqqimxwBIvJYE16fjZ6GbVa/emSpVVVBC366ITtW4VQUl4Ir3I0scor4S4exMaI5Odd+e7oZTas31BYCPFfDQV7sQoAUFldAq9yNLHM2amWeJ4Z9TJ6gbSraUeOHCUqnP9gR1YBAO5VQ+znoIl1rwb6jJKldAuLDvALQSmgVCrXrLFsN1S8sC+rkElDeJWjiVUvxGfvKxwZOmg8eoEDBw4KhUKiwnkIi8VCtyrnVrpNWQUAwGtvs8eCJlZDYw28hrHRL3YIyqcKheLA/gMEhvMQCoUSGoa2DjssJJJGNescUMJokTUroC1iMCqWTC5VKole8I9OcEC4hztautWZ02daWloIjOghSqXy6BG0DYO4HJeI8BgCIzILePN1RsVqkoggNYmZqEgTB6adPEnmjq6nTploPaq7rRzN1Y64qRFSzUbFkjTbnFjhoVEonwqFjWQNMSBUPAClgA3esZqlYkg1GxWrRdYMqUnMhAV3R/n0+nXy58uvXUOLoX0tpO0A77dsVKxWhQxSk9igUCg+Xv4oBQryCwgM5/EUFqDF4OHmxWLZ1kkt8lZYXVKjk9AKJfmLnjviJujCYKCdgllaSv60ZkmJia14BvcfJxITl55vEjeBJ6SajYqlUpF/HktHeFwX9AK1tbVExWKU+noT07rvv25ZFrX9YvRRqMF7q20rcWJzUD41GAzNzeR3ClUqlVxuW3d6sjB6x6JSqFBzoi2Fx+WjfKrRaGwkEUOpVHI4Rv8G1FqlTm9Df7E0KoNJh9LtMypWyouvp7z4Oowmn2b2ZH6TVXaC7CgekhQ+ISVhEYya4e6ZQRhMJpNGs4kJEzYb7Qag0tjWZAadxoBU8xMiFgDA1dWV7BAAi8VCeQ7ef1Ca2sOSYGgU0wtLsWG03iLpwRzxOkitYoBJdXku8F+UAr6+PiIRybMF3t4mFmTLVBKiYjELBg1tBMcajIql0cvqFeQsbjGGRi9nUI3eD0JDQ/PybhEbUWfCwsLQC4hk1UTFYhZsBtr91RqMPgpZVPKfLJ1oUqFt7BTZsyeBsRiLIRLlU6lCpNLaVh/LiXix2DRY+8BiplGFtsgxLi6WsL2mjREfj5a/UCW+TWAsZsFhw7p9GBXLiQ5rsB8zda1ouwoKBIKYGDLTB0JDQwMCAlAKlIvIn83sBI8tgFSzUbE4dCwbA0GluvUieoHRY6AfS4HCqNEmjrYrqrtGVCzmwmObWO+EGeN9LJornQLrAYwNqaYMvZs1dOgQNzdynuDOzs7jxo5DKdCqbilrJPnd4hEoAmdYGyCijWO5MOHuzYWBkpZDKJ8ymcwpU1IIDOchEya8yOGi/R3eundZb9ARGJFpXJzcyBkgdWGgLbQihbvNe9ELPPf8c37+fkSF04abm1uKKaEzy44TFY65eHDR8tusBE0sAbMbvIax0aS+XdOKtsMgg8GYN3cuwa+HH875wNkZ7XxXsbzubr3NdbAsOlDIUtDEcmOhpQKTRY54PXqB3n16T06ZRFQ4YOy4sUlJSehlUu8eIOs0eRS8XEzvLoYZdLF6wGsYG67McOQkJnRmz54dhzqkhBcREREffPA+eplWtfRK0d8EBGMpvq5d4VWOLlZPqhm73xIDneKc6LlsSmhmAGeYycI0Gu3zzz/rFgH3Ue7v779y5Qom00TW2pmCP2xt7hnBXwDx3wdNLDqV7cZCm6MgjFDec1PDrsd5LKRR2n6LOr2JfR85HM63365Cn2OxhuCQ4B9/+sFVYGLkWiyvvXB7D6QYrIHv5Mlzgjg0YyJtposTyWss+cywZwMOjfXfzWO0DWor1LL9177//uT/TLrF4/G++2710GFDcY+qX7+EtWvXmDNmtj/rB42O0MOYzSTEE22RpvWYeNL5OPUvkGyFGoEx6BSnWI+FsW5zaNT21A5DZunxQzfWtyjFAIDTBTvHRM1Cr4TFYn366ZJevWI2/rpRocBheQiDwZg1a+akyZOoVNOpbFllJ25VX7K+URgEe0RDrd+UWM4DoDZvjBDuM0neq10YD9+HayTF+zJXlwgf7ol9PHdzd++EYA/TSQ3PPvtsQkLCr79uTL2Yak1UCQkJ77z7NvqEYDsiWc2+rO+saQ4qXbv0hlq/6QMEthdFyLTE7Wfkwggd5L06mDum/SdKjfxozqbUu/sfHbkWOHstGruda/YUfVFR0Z7dey5duqzTWTAITqFQEvsnpqRMjo42969crVX+eOqNe01EHOCGATaDs2rSKSoFYjK3abHO1b5bKNkGL4J2aBR2rPv8WPd5dOrDtPGsshOHbqyTKoymhoZ16fXesPUWTU00NUkuXriQlpael5enUqmMFWMymZGRkYn9E4cMSfb0tCDXQ6fXbUn9JK/aqrsjVKL9B72RvBpqE6bFKpb+dbL6VahBPDgRbsxgr+9cmA8nkWqbS/dlri5uMH2WRO+AYbMGLcdw6rNOp6uoqKisrBIKhS1SqU6vp1KpPB7Pw8MjICAgODiIwcAylbYrfWVaCVoWNemkJHyUFP4i1CZMD1MFcoZTKQy9AdZqOB4jaJDXauQsZwSlRn48d8uFO3vNnLUta8yVKhpdnbtY2jSNRgt9gKVfRKFV3WLOHwO59PSF3nU2/VfOpPF9nQbCaJtGYcW7fzQ1NLujVdnlp5cfnnLu9i4zreI7eXww4mcMVkHCmcn7YMTPnjyzOvikECCIEHCgHxdqQiw90Cp1TWEupg8XsZRAzqiXQ7P6dfmMTm07ZamuuXztmfe2XVnarDB3E1HEqi7/P+d14cpRIYEnYnZE3CQ8faFt3sbV2dOW3eodiP/A3qOYEIsK6GyaIMzlBQrA7Q2CxwgY47/72cC/+cy2NS0qTes/N9Z/c+yVIktSADpZdfjk7h9+XjJ3yZSsGyT0mnfuW79u0xd7/96E/Kctu9UnaDgBrdCWLVtmshCDyqlTZDZrrN1vnkphxrrPHeW304P9cNj3RuW5jRcXFNSkWTT//6hVm3asQo5pSb16XNRUHxkRy2TCWjT3KKHB3U+eO3gjL41KpUX1iENe6XsFDL1VfblVLSUsDJMEufcc2RP6q5i5Yj24ddHQszdNEsAZPj7gQFeXl2iUtletBmnltstLTxfssHSO1phV7ZSU3z6b+g/HmRcSFAEpN0sPdAWS7TdEP3R1eREACseZByggNz8zryDLlt0a1XN6kBlDytZjergBQatXbisKU+mxLOTl0v0Hen3z4BfQhlqrOHFr27nCXRi2XjFpVTveXv4bv/+XYvkwBDo6g7qoeX+2aLVEXQQAGOG7OYL/MrLx0/sfTaypqwAATJv4bvuWKpJW4doz7whbyDnYpyN0GnPFi4edWWj79uCFuf/odCo7gm/xKcJUCiPWfd7UsOsdrcqpurD88JTT+duhWgUAGDN8EmKVQivMFC5HPLCGZnVphvCrHcU9zta+0V7blfrFKl3z/Q4DnfHmjI+RH/55YIMN9rf6BA4nxioL7ljIQuRdpX3Mr9rfechg7x8ErIc7ugqlVfuvfV9Ym255nMBSqxgM5rb1p3hcVwBAduN36cLPAQCe7D6hvGf9nYd0cYqjmrcfht6gaVBcr5KfL5MdESofP0AVI3h7kHfbtOA3axZczTyDXNvafWvuqN9CPQlaemmBWPd/l5UvVMpPmyzGofsO7PJ1OH9i+0/UWuWp/B1nC/7Q6jHmkFhkFQBgaNL4uW8vBwAYgG5ncXSL5j8bZdMpzu6sSHd2tAsjmMvwY9M8GFQnKoWpN2i1erlC1yjT1Eg1pSJVfqMyT2cwkRZBAbTJIZc92Pd/Z0JR3bsLX1Sq2pbS245bge6RC8f8TlhzlolVKTt7uOo5lAJUQI9xe7ev52Imldv+w7x7lw5c+0Esx75HqKVWAQBWf7Ejouv933R5y/Gj9yZibtpMvJ0SXwo+c98xAA78+/uOvQ8PirIRt2YM/CI+mLgFvZZ1bAO5wz1YRu+lfs6DUkLTB3qtbLeqseXer+fn/XZxIcFWhQZ3R6wCANySbMLctPnUKdJvS/5Erl8Y96q/78NJT1vob7lxfPoEEjF81Y7Fb0xxHo/ZWdCZ7j3S9/cXgk60r7/Q6FTHcjevODo1vwZttZZJMFgFABg7vG2VjlRdUSkz/ezGhasNn6p099+a6R168QikuzWy53QaldDlCxaLFebyvBvr4UAIBdB6ub03LfRGN/7DFZu37l1ZceTl43mbtdZl5WKzytmJmzywbbV7vmSLARC07kqhE2YIv0Cue0X1S0oc1fFTEt1yde6SGPoMMW21Y7FYFEBN8PgUufZxHpgScjXJaxWT1rYJu0hW89uFhRsvzhfJrD2SDptVAIBhg8azWU4PBpxUBZLtVoZhEbeatgiVN5Hr2a8scGL/ZxUrWW6NjZ5NpxG9ATaWwcMwl+dCuM+M8N00Ieik+/9Pzmh06hN5W1cceTkPjyxvzFYhZ9wjFyXSQ0odrNOtHosB6C7WzUHuke6CLlMmvNmpAPFuefIC+hF+u8K+ue24gH0R/KnISxAAoKAm7eujU4/mbtTojCZkmo81VkX1iA/wa8uvutVERLe9E/WKrELJTuT62dHTAvw7bx5JsFsv9HmP4N4VgrXTHWJ53abUj345P1fYgk9evDVW3Td+RFu3XaS8VatIwyUkS0lrWKrUiR/04ulvzfjk0QKEuRXuFRcTkAyjZpNYJdb5wt0rDk/JrTKxH5r5WGmVgO+eGN+2TpqU2xWCUidKb2ib2o+OjE8eMPbRMgS4RaXQJsbNxbdOC1q35st6g16tw+0sJyutuv9SPXQCnc4AAKj1LXekZK4/LpBsbVBcR65fmzbfyekxW2fBdmtI9xRfAcTdGdCxSqwh3VP8cFr/b71VVCp19LAJyPVdyR6NnszzFg1A396LF7h6TH3p7ccWg+eWwNlrXLTp3VPgYZVYNCp9WuIS65enWW8VAKBvn8Ge7j7INTGj7eg0KLMLmtqWzY0fNSUoIPyxxSC5NaXfRywG2pZdsLG28x7gFjGy53RrasDFqo6jDDWtV0WqfGtCwos04ecKrejBciD6WzMf04tHwN2txLBnI+Gvw0EHhyS4sdGz/d0wnnaMl1XeXv59ohORaxK77Z1Q6cTpwraTL3t2jx2aZHQ8CUe33Dm+L8XNwfZdHMFBLBqVPnPAlxiOvcPLqk45fVamUONLgWR7+8kxs6bOc3bmGiuJi1tUCm1m0pfwDjKxIBJcavHiB02Mn2/RV3C0isFgjkx+HrkukGzXG2xq2yDDg1687r4ufPdpE99BKWq9W+N7vRnsAXd/IjPBLR+8f9iz5k8d4GgVACCp3ygkU9QAdPkS4nLZzESovJnf1BbVuBEpIUFo3QZr3Ir2GzSCkBU45oDnQoPJfRcFmNHZwteq+7+tkW3d9oqWU50yRW2E9IZlCq0QWdSP0otHwOaWJ9f/1QGfUQDJpwm1g6dYTDrr9cGr0I9nwd0q4nP6MKDSS9IaliLXPbr1Hj4YLQsXg1tODO4bQ75zYvLwC9lacF4aJeB4v5682liSBu5WkZXTh4HC5j9qFRnI9cyX53A4JiQw3y0qhToraYU3PxjvkK0C/6N7QzyiZgxY9ug9GYZVZOX0YcKQWjtH/6AXz3dxe2XSuya/YKZbKQkf9/DtByFgq4ByJnTvwGEvxc/r+BMYVpGb04eBRlXuLXGbKGOHTwoLNn0+g0m3xkW/PqCriQcrKcA6bDw5YlL7XBUkq8jN6cNGhvDLVm3Dg5lN2luzlpiz/B/FreSIlLExsyGHjBFz927AQLhXrFqnFMtqIFkV1SN+wvgZyPXFujlEbpSKGZ1BpdAJQ3n37zEebl6NovrSctPHrj52P4jeAUNSEh6zsMVGsGxdIQZalGIeu20/dBytAgAsen9VUuJoJKdvT5nNdTJQmBB0GtmOWtoieXvB8y2yZnO+1XF9okwpcWa5YNgdkzCgRwbJKhvJ6cPGxbo5eqAFALjwXF+Z/J6Z3+r4TOSyXW3ZKiLEQiituLNpx7c4Vmg7OX0YEKny80QbkevRQ1/qGmruvkJ/HtiQV5AFMzTcIEis0KCID99YRqPhk9VvUzl92MhsXC7X1iH/L2/P/MS8Tbwos19ZEB3Zl4DwrIe42+nw5Oc/W7DO2cno9L752FpOHwbUeunV+sXIdXhY1KihE9DLM5msRe+ven7sK4REhwOEPqf7xPT/dtl27y7Wnhhrgzl9GLgr3Vvd2rYGc3rKBy48o+druLl6rlyyudPSahuH6A5goH/Y91/92Tu6P+YabDOnDxuptXORDfR5XP70lA8eWyaia8wPy3d16wr3TCXcIeHNgsflL1u0YcqEN7HtDmqzOX0YEKsLc8S/INcjkl/oFtY5lWr86JdXLt3iJrDgwBUbgZxXViqVOvWlt7/8+FeBq4dFX7TtnD4sZDWulGtq2nrxs5a075jK5fA//vC7N6Z/xKBjOXaFdMgcC+kV1W/t1/vbh6PMwcZz+jCg0bdcaWjL0AoL6TFm+EQAQO+oxHXf7BuQMILs6LADfeTdHM5fPrJ552pzBqC/Xba9e3gvwvbpI4znA4/5c5IBADK5NO3auZHJ+B8FQjA2IRYAoEnSuGnn6svpJ1HKhARFrFm5F7k+UjWhQoZW2L4QMCNSQtPbT7x+ArCVaQGBq8ei91ctW/Szr3eQsTLtoww2ntOHAa1Baf1u4TaFrYiFENtrwLpVB2ZNncdx7pxg6ezEHfL/u2vYfE6fBTCp/AFdVkwLu+HOIuLACMKwlUdhJ1paJPv+3XL89D61pm3DrfGjprzxYGNPnUG1raibXWRfoUOlMHq6vtbXY7ET3bJXY7vARsVCEDcJDx7eevL8QbVateHbv5Ad1e427z1d8xrZoVkFlcLowX81zmMhjxFIdiywsGmxEJql4ozrF0YNaZtN+6t8BFk7qlkPg8qNdJ3V2+19LsOP7FjgYgdidUSsKtxdGk92FFhwYYREC97s4TqdRSPoNBtysTOxAAC1remFku3FLX/ZRbYMlcIM5Y2PdJ3pzxlKsbFXJajYn1gIGr28RPp3kfRglfyc4UE2pk1BAVRf56Rw/uSuvBdZNKNpC08w9ipWO0qduFx2orzlaJX8nFpP8nmTDCrHzzk5hDcuhDveiW5/M8c4YvditaM3aOsUGdXy1OrW1HpFltagIKZdKoXhxY735Qzyd072ce5PoxB3XrAt8+SI1RG9QdOozGtQZguVOSJlnlhdqNFbdjowCjSKk4AZ7s6O9mTHdGHHe7J706kW7w32xPNkivUIepmmRqIuaVaXyjT35NqaVl2DQitU6SVqnVSjl+sMyvahfBqFSQF0BpXDorkyqXw2zY3D8OHQfLgMPz4zlM/symX4PlXdcGw8JWI5IBrHX54DKDjEcgAFh1gOoOAQywEUHGI5gIJDLAdQcIjlAAr/FwAA///QJMTtZbTgfAAAAABJRU5ErkJggg==;" vertex="1" parent="Pd8pBgte8W38DO9UlrW--1">
          <mxGeometry x="10" y="190" width="70" height="70" as="geometry" />
        </mxCell>
        <mxCell id="Pd8pBgte8W38DO9UlrW--7" value="Define API" style="text;html=1;align=center;verticalAlign=middle;resizable=0;points=[];autosize=1;strokeColor=none;fillColor=none;" vertex="1" parent="Pd8pBgte8W38DO9UlrW--1">
          <mxGeometry x="80" y="210" width="80" height="30" as="geometry" />
        </mxCell>
        <mxCell id="Pd8pBgte8W38DO9UlrW--8" value="Test" style="swimlane;whiteSpace=wrap;html=1;fillColor=#d5e8d4;strokeColor=#82b366;" vertex="1" parent="1">
          <mxGeometry x="280" y="200" width="200" height="280" as="geometry" />
        </mxCell>
        <mxCell id="Pd8pBgte8W38DO9UlrW--9" value="" style="dashed=0;outlineConnect=0;html=1;align=center;labelPosition=center;verticalLabelPosition=bottom;verticalAlign=top;shape=mxgraph.weblogos.github" vertex="1" parent="Pd8pBgte8W38DO9UlrW--8">
          <mxGeometry x="10" y="60" width="60" height="60" as="geometry" />
        </mxCell>
        <mxCell id="Pd8pBgte8W38DO9UlrW--10" value="" style="shape=image;verticalLabelPosition=bottom;labelBackgroundColor=default;verticalAlign=top;aspect=fixed;imageAspect=0;image=data:image/png,iVBORw0KGgoAAAANSUhEUgAABCIAAAQACAYAAAA0tfhuAAAABGdBTUEAALGPC/xhBQAAACBjSFJNAAB6JgAAgIQAAPoAAACA6AAAdTAAAOpgAAA6mAAAF3CculE8AAAABmJLR0QA/wD/AP+gvaeTAACAAElEQVR42uzdeZxeZX3///fnvmfJhCSTsO+LbEF2SAju+4pV0Y6iITHM3HMT0CEEQhIy9wzHTAKC1oCAwCwBsXQxv7Z2b63fqm3dF7DurXUNVLQqewi5z/n8/khEINss93LOuV7Px6N/VGAy1/tc97nPeec615EAAAAAAIqW+MGVkr+NJID6KhABAAAAAEhxi24tmF5LEkB9tRABAAAAgNBVev1Ncr3NXfeSBlBfRgQAAAAAQraq7J1tib4j6TBJ1S1bNftDH7fHSQaoDx7NAAAAABC01lgf1PYSQpJaOtp0BqkA9UMRAQAAACBYA73+MjOVnvm/uXQOyQD1QxEBAAAAIEh9fd4u12167iPrpvmkA9QPRQQAAACAIM15UtdIOum5/7uxIgKoKzarBAAAABCcqOSnxdLXJLXu6p9XYx143Z32K5ICao8VEQAAAACC0tXlxUQa025KCElqbdE8kgLqgyICAAAAQFDmztJy116KBtcCkgLqgyICAAAAQDCipX60TNfs7d9zsWElUC8UEQAAAACCEce6Q9KMcfyrCyRnTz2gDigiAAAAAARhsOQXyfXacf7r+0XdOobUgNqjiAAAAACQe1HZ93fphon8N3GR13gC9UARAQAAACD3qolukbT/hP6jhH0igHqgiAAAAACQa5WSv9Gkd070vzOxIgKoBzZfAQAAAJBb0UKfFXfo25KOmMR/vuXBgjqHh20bSQK1w4oIAAAAALkVT9N1mlwJIUkdh7pOJkWgtigiAAAAAORSf8nPlWnpVH5G7DyeAdQaRQQAAACA3Im6vK1gGqvBPQ8bVgI1RhEBAAAAIHfi2eqX6/lT/TnOhpVAzbFZJQAAAIBcico+N050n6T2Gvy4uNim2dFH7TGSBWqDFREAAAAAciOKvJAkGlNtSghJKsbbdDbJArVDEQEAAAAgN6r3q8+lF9byZzobVgI1RREBAAAAIBeish9prqFa/1wzNqwEaokiAgAAAEAuxIlukTSz5j+YFRFATVFEAAAAAMi8wV5fKOkP6vTjj1pT8oNIGagNiggAAAAAmXb1Yt/PXR+u55/RwqoIoGYoIgAAAABkWkubbpR0YF3/EPaJAGqGIgIAAABAZlV6/PWSLqz3n+NiRQRQKxQRAAAAADIpKvt0M93aoD9uvuRG6sDUUUQAAAAAyKQk1rWSntegP27fysU6jtSBqaOIAAAAAJA5/T1+jpve19Cbp4THM4CafJaIAAAAAECWRJG3mOkOScWG/sEJG1YCtUARAQAAACBTqpt1tUlnNPwPNi0gfaAWHyUAAAAAyIio10+IXd+UNK0Jf/yTxYfVGW2ypzgSwOSxIgIAAABAJkSRF2LXqJpTQkjStG0zdRpHApgaiggAAAAAmRDfr6WSXtLUG6giG1YCU/4cEQEAAACAtIu6/VC51jf9F2HDSmDKKCIAAAAApF5c1K2SZqfgDooVEcAUsVklAAAAgFQb6PV3yPXnKfl1kuIWzYnusUc4MsDksCICAAAAQGqtKnunXBvSdA9V7dA8jgwwhQ8REQAAAABIq9ZEGyQdmqbfycTjGcBUUEQAAAAASKVKyV9u0pIU/mpsWAlMAUUEAAAAgNRZvtw7TBpROve1Y0UEMAUUEQAAAABSZ+ajer+k41L66x0edfuhHCVgcigiAAAAAKTKQLef7tLlaf4dq8aqCGCyKCIAAAAApEYUeYsXtFFSa6pvpAoUEcCkPz9EAAAAACAt4s1aYdJZaf893SkigMkyIgAAAACQBpWL/XiL9U1JHRn4dR8uHq59o8gSjhwwMayIAAAAAJACbhbro8pGCSFJndXNOpHjBkwcRQQAAACAphvoUY+kV2fqZorHM4DJfXaIAAAAAEAzRUv8YJluyNwvbprP0QMmjiICAAAAQFPFRd0iaU7Wfm8XKyKAyWCzSgAAAABNU+n1N5nrbzP66z/1UIdm3XyzbeVIAuPHiggAAAAATREt9Fnmui3DQ2ibvVVncCSBiaGIAAAAANAUcYc+KOnwLI/B2bASmDCKCAAAAAAN19/jL5XUm4OhsGElMEEUEQAAAAAaqq/P2wum25WDPeuMFRHAhFFEAAAAAGio2Vs0KOmknAznhNWX+ByOKjB+FBEAAAAAGmag7KdKuipHQ7K2bZrHkQXGjyICAAAAQENEkReU6A5JrXkal5sWcHSB8aOIAAAAANAQ1c1aLukFuRtYwoaVwERQRAAAAACou/4eP8qkKJeDMzasBCaCIgIAAABA/W88ChqWNCOnwzs4KvuRHGVgnOcDIgAAAABQT4M9/h65XpvnMVYTVkUA40URAQAAAKBuorLv76YP5n2cZuwTAYwXRQQAAACAuolj3SzpgNwP1FkRAYwXRQQAAACAuhjs9TfIdEEgw53X1eVFjjqwdxQRAAAAAGpuZbfPdNcdAQ15xsmzdBJHHtg7iggAAAAANTetoOskHRHSmGPxeAYwHhQRAAAAAGpqoOwLXLokuIGzYSUwLhQRAAAAAGom6vI2JRoL8V7DWREBjAtFBAAAAICaSTq1RtLJIY7dpFOjsk9nFgB7RhEBAAAAoCaiss91aXXAEbTGsc5kJgB7RhEBAAAAYMqiyAtxolFJ7SHnwOMZwN5RRAAAAACYsniz3ifpRcEHwYaVwF5RRAAAAACYkqjsR0paRxKSsSIC2CuKCAAAAABTEse6WdJMkpAkPS8q+/7EAOweRQQAAACASRvo8XfL9GaSeJolzuMZwJ5QRAAAAACYlKsX+34ybSCJZ0ucxzOAPaGIAAAAADApxXZtkHQgSTybsWElsEcUEQAAAAAmrFLyV5rrQpLYBVZEAHtkRAAAAABgIqKyT48TfUvS80hj11x63rpR+zFJADtjRQQAAACACUlc60QJsbcbLVZFALv/fAAAAADA+Az0+nx3XUYSe8U+EcBuUEQAAAAAGJco8ha57pBUJI29cC0gBGDXKCIAAAAAjEt8v1ZLOpMk9s5NZ0WRt5AEsDOKCAAAAAB7FfX6CXL1k8S4Tdf9OoUYgJ1RRAAAAADYC7fYdZukaWQxfjGv8QR2iSICAAAAwB4N9OpiSa8kiQljw0pgFygiAAAAAOzWmrIfItd1JDFxzis8gV2iiAAAAACwW0XXRyXNJomJM+nk6FKfQRLAs1FEAAAAANilwR7vkuutJDFpxW1bdRYxAM9GEQEAAABgJ6vK3ummDSQx5RsuHs8Adv5cAAAAAMCztbk+LOkwkpgiY8NK4LkoIgAAAAA8S6XkL5frIpKoAV7hCezEiAAAAADA7yxf7h0zHtV/SjqONGojlg6+dtQeJAlgO1ZEAAAAAHjajMcUiRKitjddPJ4BPPszQQQAAAAAJGmg20+XazlJ1Pimi8czgGd/JogAAAAAQBR5iwoak9RKGrXlvDkDeBaKCAAAAACq3q8rJZ1NEnUxX3L25wN24MMAAAAABK5S8mNM+pakfUijPryoE9bdYf9NEgArIgAAAIDQb5HNpGFRQtT3xivh8Qzg6c8DEQAAAADhGiypW9KrSaLOEt6cAfwORQQAAAAQqGiJH+zSB0mi/txYEQH8DkUEAAAAEKi4RTdLmkMSDXFm1OVtxABQRAAAAABBGuzx8yT9IUk0zLS4U6cSA0ARAQAAAAQnWuiz3HQ7STSWi8czAIkiAgAAAAhO3KHrJR1OEg3HhpWAKCIAAACAoAx0+wsklUmi8YwVEYAkiggAAAAgGH193q6CxrgPaJqTooU+ixgQOk5AAAAAQCDmbNGApJNIonn3X0m7ziYGBP9BIAIAAAAg/wbKfqpLK0miubygBaSA0FFEAAAAADkXRV5QojsktZJG07FhJYJHEQEAAADkXPXnWibpBSSRCmxYieAZEQAAAAD51d/jRxVM35Y0gzTSoZjosGijPUASCBUrIgAAAIA8X/Cb7hAlRKpUjVURCPy8RAQAAABAPg2UfLGk15FEupixTwTCRhEBAAAA5FBU9v0lfYgkUokVEQgaRQQAAACQQ9VEH5F0AEmk0vwocu7FECwmPwAAAJAzg73+BpPeRRKp1akHdAIxIFQUEQAAAECOrFjk+7jrVpJItzjh8QyEiyICAAAAyJHp7bpO0jEkkXJsWImAUUQAAAAAOTFQ9gUuXUoS6WfOigiEiyICAAAAyIGoy9uUaExSkTTSz6Uz+vq8nSQQIooIAAAAIAeSTq2RdDJJZEbb7K06gxgQIooIAAAAIOMq3X6iS6tIIlucxzMQKIoIAAAAIMOiyAsF06ikaaSROWxYiSC1EAEAAACQXfHPdalMLyaJ7GHDSgQ794kAAAAAyKao2w+NC/qupE7SyCTf1qr9PnCb/ZYoEBIezQAAAAAyKjbdJkqILLO2bZpHDAgNRQQAAACQQYMlf5dMbyaJbEvE4xkID0UEAAAAkDFRj+/r0gaSyD5jw0oEiCICAAAAyJjYtEHSQSSRCwuIAKFhs0oAAAAgQyolf6VJn+ZaPj+SWEeuv9N+ThIIBSsiAAAAgIyIyj7dpGFRQuRKsYV9IhAWiggAAAAgI+JYQ5KOJYmcSdgnAmGhiAAAAAAyYKDX58u0jCTyx419IhAWiggAAAAg5aLIW+S6Q1KRNHJpXleXc2wRDIoIAAAAIOWqm7VK0pkkkVszTp6lk4gBoaCIAAAAAFIs6vUTTKqQRL7FYsNKhIMiAgAAAEgtt9h1m6RpZJFzxoaVCAdFBAAAAJBSlR6VJb2SJPLPWRGBgPD+YQAAACCF1pT9kGKi70iaQxpB2PbYTHVu2GBbiAJ5x4oIAAAAIIWKiW4VJURIWqc/xoakCANFBAAAAJAylZL/oaTzSSKwmzPn8QwEMteJAAAAAEiPVWXvNOlGkggSG1YiCBQRAAAAQIq0JfqQpMNIIkisiEAQ2KwSAAAASImBXn+ZXJ/hOj1YXn1KB1x3t/2aKJBnrIgAAAAAUqCvz9vlul2UECGzYiuPZyD/KCIAAACAFJjzhN4vaS5JhM14PAMBoIgAAAAAmiwq+WluuoIkoAJFBEKY5gAAAACapqvLi7G0UVIraUC8whMBoIgAAAAAmujETl0h6WySwA4HVEp+DDEgzygiAAAAgCaJlvrRJl1DEnjOTRqrIpD3OQ4AAACg8dziqoYl7UMWeA7enIFco4gAAAAAmmCgRxdJeg1J4LmcFRHIOd5RDAAAADTYmpIfVJS+K2lf0sAuPFE8XJ1RZFWiQB6xIgIAAABosKLpZlFCYPemxz/TycSAvKKIAAAAABposMfPk6uLJLAnVuTxDOQXRQQAAADQINFCn+Wm20kCe5MkbFiJ/KKIAAAAABp1c9mhD0g6nCSwN1ZgRQRyPL+JAAAAAKi//pKfW5A+L/4yEOMTb9mqzg993B4nCuQNJ0EAAACgzvr6vL1gGuP6GxNQ7GjXWcSAPOJECAAAANTZ7CdUkev5JIEJcS0gBOQRRQQAAABQRwNlP1WmlSSBCTM2rEQ+UUQAAAAAdRJFXrBEt0tqIw1MmLNhJfKJIgIAAACok3izLnPphSSBSTEdvabkBxEE8oYiAgAAAKiD/h4/StIQSWBKN2w8noE8zmsiAAAAAOpyA3mLpBkkgakwUUQgh+dHIgAAAABqa7DHF0l6E0lgytgnAjlEEQEAAADU0NWLfT83fYgkUCPnSG7EgDyhiAAAAABqqNimmyQdSBKokX2jHh1LDMgTiggAAACgRgZ7/Q0mLSQJ1FIsHs9AvlBEAAAAADWwYpHv465bSQI1x5szkDMUEQAAAEANdLTrWknHkARqzVgRgfzNaQAAAABT0d/j5xRMX5BUJA3UwZMPFjRreNi2EQXygBURAAAAwBREXd5mpjFRQqB+ph0qnUoMyAuKCAAAAGAKqp262qRTSAJ1nWeJFpAC8oIiAgAAAJikSrefaNJqkkADsGElcoMiAgAAAJiEKPJCwTQqaRppoN7YsBJ5QhEBAAAATEJ1sy5x04tJAg1yUrTQZxED8oAiAgAAAJigqNsPNWkdSaCR925Ju84mBuRiMhMBAAAAMDFxQR+VNJsk0EhJkcczkA8UEQAAAMAEDPT6BZLeQhJoNEvYsBL5QBEBAAAAjFPU4/vKdSNJoCmMFRHIB4oIAAAAYJxi6Y8kHUQSaJIjom4/lBiQdRQRAAAAwDgMdvsrZHoPSaCZkgKPZyD7KCIAAACAvYjKPt0LGpFkpIEmo4hA5lFEAAAAAHuRJFor6ViSQLO52CcC2UejCwAAAOxB1OtnxK6vSmohDaTAw8XDtW8UWUIUyCpWRAAAAAC7EUXeUnWNiRIC6dGpB3QCMSDLKCIAAACA3aj+XFeZdBZJIE3ihMczkG0UEQAAAMAuVC724800QBJIHWPDSmQbRQQAAACwEzeLdZukDrJA2pizIgLZRhEBAAAAPMdASb2SXkUSSCOXzujr83aSQFZRRAAAAADPEC3xgyV9gCSQYm2zntDpxICsoogAAAAAniFu0a2S5pAEUn4jx+MZyPL8BQAAACBJg73+dklvIwmkHhtWIsMoIgAAAABJq8re6a6bSAIZwYoIZBZFBAAAACCpNdYHJR1GEsiIE6MlPpsYkEUUEQAAAAjeQK+/zEwlkkCGWLVV84gBWUQRAQAAgKD19Xm7XLdJMtJAlpjzeAayiSICAAAAQZu9RZGkk0gCGUQRgUyiiAAAAECwopKfJulKkkBGLSACZBFFBAAAAILU1eXFRBqT1EoayKiD+y/yI4gBWUMRAQAAgCDNnaXlLjb7Q7YVW3g8A9lDEQEAAIDgREv9aJmuIQlkXqL5hICsoYgAAABAcOKqhiXNIAlknRdYEYHsoYgAAABAUAZLfpGk15AEcsE1r6vLiwSBLKGIAAAAQDCisu/v0g0kgRyZOXe25hIDsoQiAgAAAMGoJrpF0v4kgTwx5/EMZAtFBAAAAIJQKfkbTXonSSCH2LASmUIRAQAAgNyLFvosk24nCeSRixURyBaKCAAAAORePE3XSTqCJJBTpy1f7h3EgKygiAAAAECu9Zf8XJmWkgRyrHXGwzqDGJAVFBEAAADIrajL2wqmMa57kXde5PEMZAcnZAAAAORW0qmKXM8nCeQdb85AllBEAAAAIJeiss91aSVJIBAUEcgMiggAAADkThR5IUk0JqmdNBCIY69e7PsRA7KAIgIAAAC5U71ffS69kCQQECu2aj4xIAsoIgAAAJArUdmPNNcQSSA0xuMZyAiKCAAAAORKnOgWSTNJAsExVkQgGygiAAAAkBsDJb9Q0h+QBAK1gAiQBUYEAAAAyIOrF/t+LW36rqQDSQOhKrbomOh2+wlJIM1YEQEAAIBcaGnTjaKEQODimH0ikH4UEQAAAMi8So+/XtKFJAGwTwTSjyICAAAAmRaVfbqZbiUJQDJnRQTSjyICAAAAmZbEulbS80gCkFyaF0XeQhJIM4oIAAAAZFZ/j5/jpveRBPC06dqs5xMD0owiAgAAAJkURd5ipjskFUkD+L3EeI0n0o0iAgAAAJlU3ayrTTqDJIBnSxI2rES6UUQAAAAgcyrdfqJJa0gC2JkV2LAS6UYRAQAAgEyJIi8UTKOSppEGsAuuU1Ys8n0IAmlFEQEAAIBMie/XUje9mCSA3Sp2tOssYkBaUUQAAAAgM6JuP1Su9SQB7JmLxzOQXhQRAAAAyIy4qFslzSYJYK/YsBKpRREBAACATBgs+TvleitJAHtnrIhAuucnAAAAkG6ryt7Zlui7kg4lDWB8ii06KLrdfkkSSBtWRAAAACD1WhNtECUEMCHJNh7PQDpRRAAAACDVKiV/uUlLSAKYIKOIQDpRRAAAACC1orJPN2lEPFIMTJg7+0QgnSgiAAAAkFqx6/2SjiMJYBJMCySnxEMKpyYAAACQQgPdfroK+qqkVtIAJqfoOj4asx+SBNKEFREAAABInSjyFi9ooyghgCmJeY0nUogiAgAAAOm7edqsFSadRRLAFLFhJVKIIgIAAACpUrnYj5c0SBLA1BkrIpBCFBEAAABIETeLdZukDrIAavCJks4ql51HnJAqFBEAAABIjcFelSS9iiSAmpl2qHQqMSBNKCIAAACQCtESP9hd15MEUFux83gG0oUiAgAAAOm4WSrqFklzSAKoOTasRKpQRAAAAKDpKr3+JpneThJA7TkrIpAyRgQAAABopmihz4o79F1Jh5EGUBdJcYvmRPfYI0SBNGBFBAAAAJoq7tAHRQkB1PW+r9qhs4gBqZmQRAAAAIBm6e/xl0rqJQmgvozHM5AiFBEAAABoir4+by+YbhePCwONQBGB1KCIAAAAQFPMeVLXSDqJJIAGMIoIpGk6AgAAAA0Wlfy0WPqapFbSABqjmOiwaKM9QBJoNlZEAAAAoKGiyAuxdLsoIYCGSgqaTwpIA4oIAAAANFR1s5ZLegFJAA1HEYFUoIgAAABAw/T3+FEmRSQBNJ6zYSVSgiICAAAAjbv4LGhY0gySAJrinChy7gHR/O8CIgAAAEAjDPT6ErleSxJA03RWf6bjiQHNRhEBAACAuovKvr9cN5AE0OQbQF7jiTTMQyIAAABAvcWxbpZ0AEkATWZsWInmo4gAAABAXQ32+htkuoAkgOZzZ0UEms+IAAAAAPWysttnthf0HUlHkAaQClsf6lDnzTfbVqJAs7AiAgAAAHUzraDrRAkBpEn77Cd1GjGgmSgiAAAAUBcDZV/g0iUkAaQLj2eg2SgiAAAAUHNRl7cp0RjXm0D6mCgi0Fx8MQAAAKDmkk6tkXQySQCpRBGBpmKzSgAAANRUVPa5caL7JLWTBpBKXqxq3+gue4go0AysiACAJllV9k5SAJA3UeSFONFGUUIAaWbVVs0jBjQLRQQANEmba2Sg5H+x+hKfQxoA8iLerPdJegFJAOlmbFiJJqKIAIAmqJT9WLneJultrdt0b3+vv5BUAGRdVPYjJa0jCSADTPMJAc1CEQEAzRBrlaTijv/vqILrc4Mlj6LIOS8DyO6pLdbNkmaSBJABrgWEgGZhs0oAaLBoiR8ct+jHkqbt4h9/uljVougu+wVJAciSgR5/t0z3kASQHUXpiGjUNpMEGo2/eQOABktadIV2XUJI0qvjFn1zsNdfR1IAsuLqxb6fTBtIAsiWKq/xRJNQRABAA60qe6dL5b38awe66x8HSn5TueytpAYg7Yrt2iDpQJIAssXEPhFoDooIAGig1kTvkzSe13aapMsOivXvlZIfQ3IA0qpS8lea60KSADKJFRFoCvaIAIAGiZb4tB17Qxw8wf/0YXP1rh2zTaQIIFXntbJPjxN9S9LzSAPIpEeLh2t2FFlCFGgkVkQAQINUW9SjiZcQktTppk9Uev3u5cu9gyQBpEWcaL0oIYAsm6mfai4xoNEoIgCgAbq6vGjS8qn8DHMtmvGovjrQ6yeTKIBmG+j1+ZL6SALItqTIazzReBQRANAAJ83WBZKOrcGPOlmurw6UvEyqAJolirxFrjskFUkDyDw2rETDUUQAQAO468oa/rgOSXdUev3u6FKfQboAGi2+X6slnUkSQA6uUdiwEk3AZpUAUGeDPX6em/6uTj/+v+S6YGjM7iVpAI0Q9foJseubkqaRBpAL2x6bqc4NG2wLUaBRWBEBAHXmplV1/PEnyPTFSq8vk5xyGUBdRZEXYteoKCGAPGmd8bDOIAY0EkUEANTRQNkXSHpJnf+YdnPdONCjT1692PcjdQD1Ut2sixtwTgPQYF7k8Qw0FkUEANRTov6G/VmmN7e06d6BknOTAKDm1pT9EJOuJQkgh5wNK9FYFBEAUCeVkp8k6bwG/7FHSPrMYMmjri5nN3sANVN0fVTSbJIA8secFRFoLIoIAKjbt7qubtJ5tujSNXM79emo2w/lQACYqsEe75LrrSQB5Paa5Tge70QjUUQAQB30X+RHmOuCJv8aL48L+uZgj5/HEQEwWavK3ummG0kCyDVrbdc8YkCjUEQAQB0Ui7pKUmsKfpX93fS3AyW/KeryNo4MgIlqc31YEqurgJxLeDwDDUQRAQA1dvVi38+l7hT9SibpsqRTn496/DiOEIDxqpT85XJdRBJA/pnYsBKNQxEBADXW2qZlkvZJ2+/l0ry4oK8P9Pi7OUoA9mb5cu8waWT7/QmAACwgAjQKRQQA1NCKRb6PS5em9hd0zZLpnkqv371ike/DEQOwOzMf1fslsYoKCMeB0VI/mhjQCBQRAFBD09q1VFLqd50216KOdn0tKvlpHDUAzzXQ7ae7dDlJAGGJY/aJQGNQRABAjZTL3mrSZRn6lefG0pcrvb6Mowfgd6LIW1TQmNKx4S6AxmKfCDQERQQA1MhBsd4j6ciM/drTzHXjQMn/cvUlPoejCKB6v66UdDZJAOEx3pyBRs01IgCAqYsiL8Sb9W1JJ2V4GD9LTO9aP2Jf4IgCYaqU/BiTvqUUbrgLoCGeKB6uziiyKlGgnlgRAQA1UN2stynbJYQkHVlwfW6w5FEUOd8PQHDcTBoWJQQQsunarOcTA+qNC00AqM3J9MqcDKXFpWvizfrUmrIfwpEFwjHQox5JryYJIGwxj2egMdfOAICpqPT6q106N2fDelUx0X2VHn89RxjIv2iJHyzTDSQBQMaGlag/iggAmOr3tWtVTod2oJn+YaDkN5XLzu75QI7FLbpZEhvWApCLFRFowPUzEQDA5EW9fkbs+kbez6cmfSWRLlg3aj/mqAP5Mtjj57np70gCwA7xlq3q/NDH7XGiQL2wIgIApvJN7epXAKWuS+eYdO9gyd/JUQfyI1ros9x0O0kAeIZie4fOJAbUE0UEAExSpezHSjo/oCF3uvRnlV6/Oyr7dGYAkH3JdN0g6XCSAPCsm0Q2rES95xgRAMDkWKLVkorBjdu1KE70lajHT2EWANnV3+MvdVeZJAA8l1NEoM4oIgBgEqIlfrCkCwOO4OTY9JVKry9jNgDZ09fn7YXtj2SwXxiAnRgbVqLOKCIAYBLiVl0paVrgMXSY68aBXv9EtMRnMyuA7JizRQOSTiIJALtxTLTUDyQG1AtFBABM0Kqyd8rVSxI7uLriou7tL/m5hAGk30DZT3VpJUkA2JNkm+aTAuqFIgIAJqjN1SepkySewXR0Qfq3Sq+vkpyl3kBKRZEXlOgOSa2kAWAv3+0UEagbiggAmMhF/BKfJtd7SWKXWs31gYEeffLqxb4fcQDpE9+vyyW9gCQA7A0bVqKeKCIAYCIX8UWVJB1MEntgenNLm+7r7/GXEgaQHv09fpRc7ycJAOP8Pl/AKkfUC0UEAIxTV5cXZbqcJMbl8ILpXwdLHnV1eZE4gBRc9JnukDSDJACM076Vsp5HDKjLdxIRAMD4zO3UuyQdSxLjVnTpmrmd+nT/Uj+MOIDmGSj5YkmvIwkAE7pZTHg8A3WaW0QAAOPh5tKV5DApLy9Udd9gj59HFEDjRWXfX9KHSALAhLFhJeqEIgIAxqHSq/NMOoMkJm1/N/3tQMlvirq8jTiAxqkm+oikA0gCwESxYSXqhSICAMZzsky0ihSmzCRdFnfqC1GPH0ccQP0N9vobTHoXSQCYpLPLZed1v6j9tTURAMCe9Zf8XDe9mCRqd1ETm74x2OsLiQKonxWLfB933UoSAKZg2kGxTiEG1BpFBADs/UTZTwo1N9Ndf1zp9btXLPJ9iAOovY5p+oCkY0gCwFS4eDwDdbm+BgDsTqXkJ0l6I0nUh7kWdbTrawPdfjppALUzUPYFcl1CEgCm/F1doIhA7VFEAMCevnylNZwr626uCvpSpdeXEQUwdVGXtynRmKQiaQCYKjasRD1wcQ0Au9F/kR8h6Z0k0RDTzHXjQMn/cvUlPoc4gMlLOrVG0skkAaAWTHp+tNBnkQRqiSICAHZ3gmzRSknsFN1Y57du030DPf4iogAmrtLtJ7p4yw+A2l4SVTt0FjGgppOKCABgZ1cv9v3kuogkmuJImT47WPIoipzvKWCcosgLBdOopGmkAaCWjMczUGNc4AHALrS06nJJvM2hiYfApWvizfqXNWU/hDiAvaver/fyqmEAdWGaTwioJYoIAHiOFYt8Hxm7zafEK4uJ7qv0+OuJAti9qOxHmms9SQCoE1ZEoKYoIgDgOTradImk/UgiNQ400z8MlPymctnZswPYhTjWzZJmkgSAOjmSFYqoJYoIAHiGctlbZbqMJFLHJF12cKL/iLr9ecQB/N5gyd8l05tJAkBdbxydxzNQw/lEBADwewfFeo+kI0ginVw6Jy7q3sGS81pVQNs31nVpA0kAqDdLKCJQOxQRALBDFHlBpitIIuVcs1z6s0qv3x2VfTqBIGQtbfqwpINIAkAD7hzZJwI1nE4AAElSdbPeJukkksgGcy2KXV+NevwU0kCIKiV/paRFJAGgIVznSG4EgVqgiACA358QrySFzF0UPT82faXS68sIAyGJyj7dpGFt3z8FABphdtSr44kBNbruBgBUev3VLp1LEpnUYa4bB0q+KVris4kDIYhjDUk6liQANFKSaAEpoBYoIgBAkrlWkULm/WFc1L39JadQQq4N9Pp8mVgFBKAJF0xsWInaoIgAELyo18+Q9CqSyMUF0tEF6d8GSx5FkfMdh/ydryJvkesOSUXSANBo7mxYidrgIg1A8GJXv3jOOk9aXbom3qx/WlNy3iaAXKlu1ipJZ5IEgKYwndHX5+0EgamiiAAQtErZj5V0Pknk0muK0jcHS/4aokAeRL1+gkkVkgDQRO2zn9RpxICpoogAEDRLtFoscc6zg1z6x8GSR11dznFGhrnFrtskTSMLAE09G/F4BmqAIgJAsKIlfrCkC0ki94ouXTO3U/+vf6kfRhzIokqPypJeSRIAUoANKzFlFBEAghW36krxt4sheVmhqvsqvf4mokCWrCn7IWb6AEkASAMTKyIwdRQRAIK0quydcvWSRHD2N9ffDJT8JjbbQlYUE90qaTZJAEiJudES55yEKaGIABCkNlefpE6SCJJJuqxzi75QudiPJw6kWaXkfyg21AWQsu/RpKiziQFTQREBIDhR2adrexGBkK+ipLMs1tcHe30haSCNVpW906QbSQJA2iQ8noEpoogAEJyqq0fSgSQBSTPd9ceVXr87utRnEAfSpDXRH0lig1UAqWPGhpWYGooIAEGJIm+xRFeQBJ51QeVaFD+lr0W9fgZpIA0Gev1lJnWTBICUOpcIMBUUEQCCkvxc75LpaJLALpwYu75Y6fVlRIFm6uvzdrlu1/b9TAAgjQ6JSn44MWCyKCIABMQtMa0kB+zBNHPdONDrfxX1+L7EgWaY84TeL2kuSQBIsyr7RGAKKCIABGOwR28y6RSSwF653hqb7u0v+4sJA4000O2nu/H4GID0M7FPBCaPIgJAOPeWplWkgAk4spDoM4Mlj6LI+b5E3UWRt6igMUmtpAEgA1gRgUnjwgpAEAZK/hJJLyIJTFCLS9fEm/UvUbcfShyop/jnukLS2SQBICPmU9Rjspg4AMLAaghMzSvjgu4b7PU3EAXqIVrqR8s0SBIAMmSmfsp+NpgciggAuTdQ9lPleiNJYIoOcNffD5T8pqjL24gDteMWVzUsaR+yAJAlcQuPZ2ByKCIA5P8SP9Eq8Ro81IZJuizu1H9Uyn4scaAWBnp0kaTXkASAzEnYsBKTQxEBINcqJT/GpHeSBGpsvrm+MdDrFxAFpiJa4gfL9CGSAJBFZqyIwORQRADI+0nuSkktJIGac82S608rvX53VPbpBILJiFv1EUlzSAJANr8Kdfry5d5BEpjENToA5FO01A90qZskUE/mWhS7vjpQ9lNJAxMx2OPnydVFEgAyrHX6ozqdGDBRFBEAciup6jJJtPSoP9fzlejLlV5fRhgYj2ihz3LT7SQBIAc3lDyegcnMGwDIn5XdPtOlS0kCDdRhrhsHevz/i5b4bOLAnsQdul7S4SQBIOucIgKTQBEBIJfaCloqnrtGM5jeHrfovoFufwFhYFd2zI0ySQDIxdeeU0RgMpdLAJAzfX3ePnuLfiTpUNJAE1VNWl84XGujyBLiwNPnpyf1DbmeTxoAcsKrT+mA6+62XxMFxosVEQByZ86TWixKCDRfi0vXxJv1z9ESP5g4IEmzn1CFEgJAzlhru+YRAyaCIgJArkSRF9y1giSQIq+OW3RfpdtfSxRhGyj7qTKtJAkAeZPweAYmiCICQL6+CH+ut0s6gSSQMgdZQf80UPKbymVvJY7wRJEXLNHtktpIA0DemDSfFDARFBEA8vZNyN82IsXXabrs4ET/Vin5McQRlurPtcylF5IEgJxaQASY6EURAOTCYMlf49KnSAIZ8LC5eteO2SaiyL/+Hj+qYPq2pBmkASCvEtfR68fspySB8WBFBIDccGkVKSAjOt305wMlv6mvz9uJI+cXW6ZbRAkBIOeKYp8ITOC7kQgA5MFAr8+X9CqSQIaYpMs6t+gLlYv9eOLIp8EeXyTpTSQBIIBvNfaJwLhRRADIh4TVEMjqdZvOslhfHyj5haSRL1HZ93fTh0gCQAicFRGYAIoIAJlX6fYTZTqfJJBhMyV9vNLrd0eXOkv4cyJOdJOkA0kCQCDmRZG3EAPGgyICQB7OZFdxPkMemGtR/JS+FvX6GaSRbYO9/gZJ7yYJAAHZJ35AJxEDxnf5DgAZ1r/UDzNpEUkgR06MXV+q9PoyyXm7VQatWOT7uOtWkgAQGkt4PAPjQxEBINOKVS2X1EYSyJl2c904UNJfRT2+L3FkS0e7rpV0DEkACA37RGC8KCIAZNbqS3yOS2WSQI69JTbd11/2FxNFNgyUfYGk95IEgBBRRGC8KCIAZFbLNr1P2zf5A/LsiEKizwyWPOrq8iJxpFfU5W1KNCaJ4wQgSCadumKR70MS2BuKCADZvOAv+3ST+kgCgWhx6Zq5s/UvUbcfShzpVO3U1ZJOJgkAASu2d+hMYsDeUEQAyOYFv6tH0gEkgaC4XhEXdF+l5G8kjHSpdPuJJq0mCQDB32A6j2dgHPOECABkTRR5iyW6giQQqANM+ruBkt8UdTkbtabjnFQomEYlTSMNAMFLNJ8QsDcUEQCy9/32c71LpqNJAgEzSZclnfp8pezHEkdzVTfrEjexoSgAbP+GYkUE9ooiAkDGuCWmleQASC7NM9c3Bkv+LtJojqjbDzVpPUkAwNOeFy31A4kBe0IRASBTBnv0JpNOIQlgB9csl/6k0ut3s1N548UFfVRSJ0kAwO9Vq5pHCtgTiggA2brnMq0iBWBn5lrU0a6vRiU/jTQaY6DXL5D0FpIAgJ1uMnk8A3ubIwCQkYv+kr9E0otIAtitk2Lpy5VeX0YU9RX1+L5y3UgSALAzFxtWYs8oIgBkB6shgPGYZq4bB0r+F6sv8TnEUR9V04clHUQSALBLCyQ3YsDuL+sBIAMGyn6qEn2T8xYwIT9NTO9eP2JfIIraGez2V3hB/4/zEQDsXjHRsdFG+xFJYFdYEQEgEzzRKi76gQk7quD63GDJoyhyvvNrICr7dC9ohPMRAOxZUtACUsDucFECIPUqJT/GpHeSBDApLS5dE2/WP0dL/GDimOKFdaK1ko4lCQDYC2OfCOweRQSALJyorpTUQhLAlLw6btE3B3v9dUQxOVGvn+ESG4ECwDi48+YM7B7LCgGk+8J/qR8YV/UTSR2kAdTm2lDSzQ8WtGJ42LYRxzjPRZG3VDfryyadRRoAMC5PPljQLL5rsCusiACQaklVl4kSAqglk3TZQbH+vVLyY4hjfOLNWkkJAQATMu2gWKcQA3aFIgJAaq3s9pkuXUoSQB2YFph072CPdxHGnlUu9uMlVUgCACbGxeMZ2DWKCACp1W66RNIckgDqptNNn6j0+t3Llzsrj3Z9GW0W6zaxMgsAJo4NK7EbFBEAUqmvz9tlbAoHNOQ60bVoxqP66kCvn0wazzZQUq+kV5EEAEzi+4UVEdgNiggAqTR7i94j6VCSABrmZLm+NNjji4hiuzVlP0TSB0gCACb/3bKy22cSA56LIgJA6nR1eVGuFSQBNNwMN91d6fW7o0t9RuhhFBPdKh4PA4Ap3W+2F9noF7uYGEQAIG3mztbbZTqeJIDmMNei+Cl9faDHzww1g8Fef7uk85kNADA17jyegZ1RRABI4TeWVhIC0HQnyPTFSq8vk9xCGviqsne66yamAABMnbFhJXaBIgJAqlS6/bWSziYJIBXazXXjQI8+efVi3y+UQbfG+qCkwzj8AFADrIjALlBEAEgVK2gVKQBp+2DqzS1tuneg5C/J+1AHev1lZipx0AGgZo7asfkv8DSKCABpugGYL+mVJAGk0hGSPjNY8qiry4t5HGBfn7fLdbsk43ADQA1vOp3HM/CcOUEEAFLDtZoQgFQrunTN3Nn6l6jbc/d63dlbFEmay2EGgNqyhCICz0YRASAVKt1+oqS3kgSQAa5XxAV9c7DHz8vLkKKSnybpSg4uANTlrpN9IvCcKQEAKWBFreScBGTK/m7624GS3xR1eVuWB9LV5cVEGpPUymEFgDpwnRPaG5iwZ1z0A2i6/qV+mFwXkgSQOSbpsqRTn496/LisDuLETl3h0jwOJwDUzeyoV8cTA36HIgJA809E23SFpDaSALLJpXlxQV8f6PF3Z+13j5b60SZdw1EEgPqKeY0nnnn9TwQAmnoT0OP7ytRLEkDGuWbJdE+l1+9escj3ycyFcVXDkvbhAAJA3bFhJZ5GEQGguTcB0vskzSQJIB/MtaijXV/bsfljqg2W/CJJr+GoAUADvh/Eigg8az4AQHNEZZ8eJ/qJpANIA8idJ920et2I3ZTS88/+caLvSdqfQwUADbH1oQ513nyzbSUKsCICQNPEiUqihADyapq5bhwo+V+svsTnpPD8c6soIQCgkdpnPa5TiQESRQSAJimXvVXSFSQB5N7bWrfp3v5ef2FafqFKyd8o6R0cGgBo8M1nkcczsGMuEAGAZjgo0bskHUUSQBCOKrg+N1jyKIq8qdce0UKfZdLtHBIAaIKEDSuxHUUEgCZwc+kqcgCC0uLSNfFmfWpN2Q9p1i8RT9N1ko7gcABAE5gWEAK2TwUAaLBKr7/ZXH9NEkCwfmmmxWtH7J8b+Yf2l/zcgvR58RcxANAsXqxq3+gue4gowsYXMYCGM9dKUgCCdqC7/nGg5Dft2C+m7vr6vL1gGuPaBwCaexmYFHU2MYAvYwAN1d/jL5X0IpIAuBiVdNnBif6jUvJj6v2HzdmifrmeT+wA0FyJ2LASFBEAGn3SMa0iBQC/49I5Jt070Ot1e4tF1OOnuDj3AEAamLFhJSgiADRQVPLTJL2BJAA8R6dcf17p9bujsk+v6Xkn8kJiukNSGzEDQCqcSwSgiADQMPH2v5Fkk1wAu2SuRXGir0Q9fkqtfmb1fvW59ELSBYDUOKR/qR9GDGGjiADQEDueAX8HSQDYi5Nj01cqvb5sqj8oKvuR5lpHpACQLsWYfSJCRxEBoCHMtUJSC0kAGIcOc9040OufWFX2zsn+kDjRLZJmECcApA77RASOIgJA3UVL/UCZLiIJABPi6mqLdd9A2RdM9D8dKPmFkv6AEAEghad3Z0VE6CgiANRdXNUySR0kAWDCTEcr0ee2P6rh49pj5urFvp+kPyI8AEitc6LIuRcNGAcfQF2t7PaZki4lCQBT0G6uGwd69MkdJcMeFdt0k6QDiQ0AUmtmdbNOJIZwUUQAqPPdgy6RNJskAEyZ6c0tbbqvv8dfurt/pdLjrzdpIWEBQMpvRHk8I+zjTwQA6qWvz9tlWkYSAGro8ILpXwdLHnV1efGZ/yAq+3Qz3UpEAJB+LoqIkFFEAKib2Vv0HkmHkgSAGiu6dM3cTn36me+iT2JdK+l5xAMA6WdGERH08ScCAPXQ1eXFubP0PZmOJw0AdfR/5loSS78qmL4gqUgkAJAJ2x6bqc4NG2wLUYSnhQgA1MPc2Xq7nBICQN3t76a/LUj/J0oIAMiS1umP6nRJXyKK8PBoBoD6cK0kBAANYpIOIAYAyNzNKI9nhHvsAaC2Kt3+WklnkwQAAAD2YD4RhIkiAkDNWUGrSAEAAAB7wYqIUO8XiABALQ30+ny5vkISAAAA2AuvPqUDrrvbfk0UYWFFBIAaf51oNSEAAABgHKzYwuO8IaKIAFAzlW4/UdJbSQIAAADjYUUezwgRRQSAWn6RrOS8AgAAgHFL2LAyRNwwAKiJ/qV+mFwXkgQAAADGzXQuIYSHIgJAbU4m23SFpDaSAAAAwAQcGJX9SGII7N6BCABMVdTj+8rUSxIAAACYqGrCPhGhoYgAMPUvD1OfpJkkAQAAgEnclFJEhHfMAWDyorJPN+m9JAEAAIDJcIqI4FBEAJiSqqtX0gEkAQAAgEmaF0XeQgzhoIgAMGnlsreaazlJAAAAYAr2iR/QScQQDooIAJN2cKx3SzqKJAAAADAVxoaVQaGIADBJbolpBTkAAABgykzzCSEcFBEAJmWwpDebdApJAAAAYKrcWREREooIAJO1kggAAABQI6euWOT7EEMYKCIATNhAr7/MpReSBAAAAGqkpaNNZxBDGCgiAExcolWEAAAAgFpy8XhGKCgiAExIVPLTZHo9SQAAAKCm2LAyGBQRACakKq2WZCQBAACAWjJWRIR0rAFgfColP8ak/5LUQhoAAACotWKLDoput1+SRL6xIgLARE4YV4kSAgAAAHVSrWoeKQRxXwEAexct9QNdWkISAAAAqOMNKo9nhHGcAWDvkliXS+ogCQAAANSLiw0rQ0ARAWCvooU+y12XkAQAAADqbIHk7GWYcxQRAPaqOl2XSJpNEgAAAKiz/aJuHUMM+UYRAWCP+vq83VyXkQQAAAAaIS6yT0TeUUQA2KPOJ7RE0qEkAQAAgIZI2Cci7ygiAOxWV5cXTbqSJAAAANAoxpszco8iAsBundSpP5TpeJIAAABAo7jp7HLZW0kivygiAOz+S0C6ihQAAADQYB2Huk4mhvyiiACwS4O9/jpJZ5MEAAAAGi12Hs/IM4oIALvk0ipSAAAAQJOwYWWOUUQA2MlAr8+X6xUkAQAAgCZZQAT5RREBYGeuqwkBAAAATXTyym6fSQz5RBEB4Fkq3X6ipLeQBAAAAJp5r9pe1FnEkNODSwQAnnNWWMW5AQAAAM3mbFiZ41sOANghKvnhJi0kCQAAADSbGRtW5hVFBICnJaYrJLWRBAAAAJqOFRG5ZUQAQJKiHt83Nv1U0gzSAAAAQBrEBR167bD9L0nkCysiAEiSqqY+UUIAAAAgRVpizSOF/KGIAKCo7NNNei9JAAAAIFXYJyKXKCIAqOrqlXQASQAAACBNXOwTkUcUEUDgymVvNddykgAAAEAKLZCcvQ1zhiICCNzBsd4t6SiSAAAAQArNrlys44ghXygigKC5JaYV5AAAAIDU3rQmPJ6Ru2NKBEC4Bkt6s0mnkAQAAADSyp0iIm8oIoCwrSQCAAAApJmxYWUejymAEA30+svk+ixJAAAAIOWeLD6szmiTPUUU+cCKCCBUiVYRAgAAADJg2raZOo0Y8oMiAghQVPLTZHo9SQAAACATN65FHs/I1fEkAiA8VWm1eDQLAAAAWZFoPiHkB0UEEJhKyY8xqYskAAAAkKE7V1ZE5OpwAgiKbX9TRgtJAAAAIDNcc6OFPosg8oEiAgjImpIfJOk9JAEAAICs3btWOzSPGHJyMIkACEdRulxSB0kAAAAga0w8npEXFBFAIHYsZVtKEgAAAMgoNqzMCYoIIBBxhy6VNJskAAAAkFGsiMgJXt8HBKCvz9tnb9GPJR1CGgAAAMiqYqLDoo32AElkGysigADMflIXiRICAAAAGVc1VkXkAUUEkHNdXV5UoitIAgAAAJm/gS1QROTiOBIBkG9zZ6tLpuNJAgAAAFnnThGRBxQRQP5P1leRAgAAAHJiXhQ597EZxwEEcqzS46836SySAAAAQE50VjfrRGLINooIIMfMtIoUAAAAkKubWB7PyP4xJAIgn/p7/BxJLycJAAAA5IppPiFkG0UEkNcPd0FXkwIAAADyxsWKiKwzIgDyJyr73DjRd0TZCAAAgPx56qEOzbr5ZttKFNnETQqQQ3GsVXy+AQAAkFNts7fqDGLILm5UgJyJSn64TO8mCQAAAOSVs2FlplFEADkTS1dKaiMJAAAA5BgbVmYYRQSQI1GP7yupRBIAAADIM2NFRKZRRAA5kpgukzSDJAAAAJBzJ6y+xOcQQzZRRAA5EZV9ukvvJQkAAAAEwFq28nhGVlFEADkRJypL2p8kAAAAEAIr8nhGVlFEADlQLnurpMtJAgAAAMFIWBGRVRQRQA4c5Foo6SiSAAAAQDCMFRFZRREBZJ6bXCvIAQAAAIE5OCr7kcSQPRQRQMZVevQWSSeTBAAAAEJTTVgVkUUUEUDWP8Smq0gBAAAAITJjn4hM3sMQAZBdlZK/3KUXkgQAAACC5KyIyCKKCCDDTFpFCgAAAAjYvK4uLxJDtlBEABk10O2nS3odSQAAACBgM06epZOIIVsoIoCsMq2WZAQBAACAkMXi8YysoYgAMijq9ufJ9IckAQAAgOCxYWXmUEQAGRQXdJWkFpIAAAAAtIAIsoVl3UDGrCn5QUXpx5I6SAMAAABQtVhQZzRsTxBFNrAiAsiYonS5KCEAAACA32mJY51JDNlBEQFkSLTQZ0laShIAAADA7zkbVmYKRQSQIXGHLpU0myQAAACAZ2DDykyhiAAyoq/P2yVdRhIAAADAsxkrIjKFIgLIiNlP6iJJh5AEAAAAsJPnRWXfnxiygSICyICuLi8q0RUkAQAAAOySJc7jGVlBEQFkwNzZ6pLpeJIAAAAAdi1xHs/ICooIIAPcdRUpAAAAALtnbFiZGRQRQMpVevz1Jp1FEgAAAMAesCIiMygigJQz0ypSAAAAAPbqgErJjyGG9KOIAFKsv8fPkfRykgAAAADGdYPLqohsHCcAqf2AFnQ1KQAAAADj4zyekY37HCIA0ikq+1y53kwSAAAAwPgYKyIygSICSKlqotV8RgEAAIDxc9NZUeQtJJFu3OQAKRSV/HCT3kUSAAAAwIRM1/06hRjSjSICSKHEtUJSG0kAAAAAExOzT0TqUUQAKRP1+L5u6iEJ1MAySQ8TAwAACMx8Ikg3igggZRLTZZJmkASmygv6e0+0QNIPSAMAAARzDcSGlalHEQGkyIpFvo9L7yUJ1Mq6jfaDouuFkj5NGgAAIAQmnRxd6vzFXopRRAApMq1NZUn7kwRqKRqz33z/Yb3eXNeTBgAACEBx21adRQzpRREBpES57K1mupwkUA+bNlm8dsxWm+lCSVtIBAAA5PxGl8cz0n18AKTBwYkulHQkSaCe1o7YPUr0Kkn/SxoAACC3jA0r04wiAkgFN5euJAc0wtBG+2Ix0TyTvkIaAAAgn5fXrIhIM4oIIAUGe/VWSSeTBBol2mgP/LZDL5XrLtIAAAC5Yzp6TckPIoh0oogAUsBdV5ECGu3mm23r0JhdJOliSVUSAQAAubrZ5fGM9B4bIgCaa7DbXyHpBSSBZhkatWEzvUnSb0kDAADk5maXxzPSe2yIAGguL2gVKaDZ1o7YPxdd58j0XdIAAAC5uM7mzRmpRREBNNFAt58u6bUkgTSIxuyHW2OdK+mvSQMAAOTAfMmNGNKHIgJoIi/oakmcHJEaN2y0R4dGdb5J75fkJAIAADJs38rFOo4Y0ociAmiSqNufZ9LbSQLpY7521CKT3iXpCfIAAACZveFNeDwjlceFCIDmSIpaKamFJJBWa0ftz4umF0n6KWkAAIBsXnTz5ow0oogAmmBNyQ9y12KSQNpFI3ZfsaB5kj5LGgAAIGvcWBGRRhQRQBO0uJZL6iAJZEE0bP9XfFivkzRKGgAAIGPOjLq8jRjShSICaPRN3UKf5aaLSQKZmreb7KmhUeuVdLGkbSQCAAAyYlrcqVOJIV0oIoAGq07TeyXNJglk0dCoDUt6laRfkgYAAMgCF49npA1FBNBAfX3ebqY+kkCWDY3avyex5kn6OmkAAIAMYMPKlKGIABqoc4u6JR1CEsi69Xfaz4tterlcf0EaAAAgzYwVEalDEQE0SFeXF026giSQF9FH7bGhMXW5abWkhEQAAEBKnRQt9FnEkB4UEUCjzn6deoek40gC+WK+bsSuN9ebZXqEPAAAQBrve6sdmkcMKTogRAA0gpubVpED8mrtmP29TC+W9CPSAFBjjxMBgCkz9olIE4oIoAEGe/V6uU4nCeTZ0LB9q+iaL+nTpAGgRhKZzjPXOyT9hjgATJY5+0SkCUUE0ADurIZAGKIx+833H9brzXU9aQCY8o2DtGFoxD63dsw2Fas6Wa5/JBUAk0QRkSIUEUCd9ff4OZJeRhIIxaZNFq8ds9VmulDSkyQCYJK+/+hMDfzu/4nusl8Mjek8SRdLeoJ4AEzQ4VG3H0oM6UARAdT7Q2ZaQwoI0doRu0eJXinpF6QBYIKqies9GzbYlmf/z+ZDozZcjDVf0r3EBGBCJxZjVURq7pGIAKifqOxzJf0BSSBUQxvti0mL5pn0FdIAMG6uD6wfs92eN6I77bsPFrTApPdLigkMwHgYG1amBkUEUEfVRKv5nCF062+3+wtVvcylj5EGgL3fKeibxUc0tLd/bXjYtq0dtUiJXiLpfwgOwDiwIiIluEEC6iQq+eEmvYskACm6y55cN2pL3HS5+NtLALu3Ta6eaJM9Nd7/YGijfbG4RWdJGiY+AHsxP4qce+AU4CAAdZK4VkhqIwng99aN2E3uepOkh0gDwHO59P6hUfv6RP+76B57ZGjULjbTH0r6NUkC2I1OPaATiKH5KCKAOoh6fF839ZAEsLN1Y/ZPXtQ5kr5HGgB+x6Vv/LKgG6byM9aO2F/E0smS/o5EAexKnPB4RhpQRAB1kJgukzSDJIBdW3eH/ffWRAvk+hvSACBpq5kWDw/btqn+oGtH7cGhUb1Z21/z+TjRAngWNqxMBYoIoMZWLPJ9XHovSQB7dsNGe3RoTG/dseu9kwgQ9I3BmqER+04Nf+D213wWNE/S1wkYwNNcCwih+SgigBqb1qaypP1JAhjfzcLaUYt2bOz6BHkAAZ4FpC98/yHdVI+fHQ3b94uH61xe8wngGU7v6/N2Ymguigighsplb7XtbwUAMAFrR+3Pi6YXSfopaQBBeSIpasmmTVa3kiCKrLp21CIV9CK5/pvIgeC1zd6qM4ihuSgigBo6ONGFko4kCWASNwsjdt+OZdSfIw0gEKar1t1hDSkHhobty8WizpD0EYIHwubOhpXNRhEB1O6UZi5dSQ7A5EXD9n/Fh/Val8ZIA8i9/zc0otsafI55YmjUlrnrDZL+l0MABIsNK5uMIgKokcFevVXbXxkGYCo3CpvsqXWjVtL2He+3kQiQQ6ZHigV1S9aUjWrXjdk/FVt0Bm/uAQI9BbEioukoIoAacddVpADUztCoDUt6laRfkgaQu5uAy6Nh+1kzf4fodvvl0Ji9RdJ7JD3GUQGCcsLqS3wOMTQPRQRQA4Pd/gpJLyAJoLaGRu3fk1jzXPoGaQC58XdrR+3OFJ1n7nbpNHP9B4cGCIa1bdM8YmgeigigBrygVaQA1Mf6O+3nLW16maS/JA0g8x4qSpek7ZdaN2o/LhyhV7hptXgkDAhCIh7PaCaKCGCKBrr9dEmvJQmgfqKP2mNDo/rDHTcJCYkAGWW6JBq1zak8z0RWXTdi12v7q4R/wMEC8n46YsPKZqKIAKb+KVqz/VwGoM6XDL5uxK5301tkeoQ8gMxd9X9yaMT+LO2/5tCIffWxmTpT21/z6Rw4ILcWEEEzb6EATFrU7c+T9HaSABpn3Yj9nUwvlvRj0gAy41fFoi7Oyi+7YYNtGRq1ZZ7o9ZIe4PABuXRw/0V+BDE0B0UEMAVJUSslFUkCaKyhYftWsaBzJH2WNID0M9PF0e2WuTfgrNton6rGOkOmT3IUgfwptrBPRLNQRACTtKbkB7nrPSQBNEc0bP/nrutJAkg3N3187Yj9VVZ//+vutF8Njdj52v6az0c5okCOzk9sWNk0FBHAJBVNV0iaRhIAAOzWAy2JLs/DQIZG7e5ii04z6d84rEBOOEVEs1BEAJMQLfRZ8uw86woAQDMu8c1UisbsN7n5/r/dflI4XK9w0+WSnuIQA5k3r6vLecy6CSgigEmIO/Q+SZ0kAQDAbo2sHbF/zNugosiSdSN2kwqa59J/cpiBTJtx8iydRAyNRxEBTPQCZIlPk/Q+kgAAYDdcP9maaEWehzg0bN9qqWqBbd+rJuGgA9kUs09EU1BEABM9WbWqW9IhJAEAwC4lbrroho2W+40do7vsybVjttpNr5O0mUMPZJBpPiE0HkUEMAFdXV6UazlJAACwm2t6183rRu2zIY153Yh9uljVqS7dwwwAsoU3ZzQHRQQwASd16h2SjiMJAAB2eUX/34Wi1oQ49Ogue2jdqF2o7a/55FENICNMOnX5cu8gicaiiAAmdH2lq0gBAIBdSmTqiYbticDvaqZzjQ1kSuv0x3QmMTQWJ0lgnColf6PESQoAgF3ff+vWoVH795AziJb60XLdwGwAMnZT7Dye0fDMiQAY94dlFSkAALBLP30yUX/YEbjFse6QNJPpAGQOG1Y2/t4KwN4MlH2BSy8lCQAAdr4D90TlEN6SsSeVXr1PrtcyHYBMYkVEg1FEAOMRh7nxFgAA4zC2bqN9KuQAKiU/xlzXMhWAzDr26sW+HzE0DkUEsPeLi5NkehNJAACwk//d1qqVIQcQRV4w6U5JM5gOQGZZsZXHMxqJIgLY21lJWs1nBQCAnbnr0g/cZr8NOYPqz7VM0suYDUDmL/oXEELjcHMF7EH/RX6EpAtIAgCAZ3PpnnVj9smQM6h0+4lmWs9sALLPjBURjUQRAezpA1LUCkltJAEAwLP8X0uLrgg5gCjyQsE0KqmD6QDkAK/wbOx9FhEAu7Zjw5pukgAA4DlM741ut1+GHEH8c61w04uZDEBuHFAp+THE0BgUEcButLTrMrHxFAAAz/W3QyP2iZADiMo+V6aIqQDk7uaYVRGNyxrAc61Y5PvIdSlJAADwLA8nLbok5ACiyFuSRB8Tj2QAecQ+EQ1CEQHsQsc0XSxpf5IAAOD3zLVs/e12f8gZVDdrlfO3pkAu8dluHIoI4DnKZW+VaxlJAADwLJ9eO6a7Qw4gusifb1KFqQDk1tlR5C3EUH8UEcBzHBRrkaQjSQIAgB1MjxQL6pHMQ40girwlKepjkqYxIYDcmh7/TCcTQ/1RRADP4qaCriQHAACeZVU0bD8LOYDqZvW7NI+pAOSbFXk8oxEoIoBnqJR0vlzPJwkAAJ72uaER3RFyAAPdfrpJa5gKQP4lCRtWNgJFBPAMJq0gBQAAnvZE0VUK+ZGMctlbvaCNktqYDkAA9wMFVkQ0AkUEsEOl5K+U9AKSAABgO3dVojH7YcgZHBRr0KSzmA1AKCc+nRJd6jMIor4oIoAdzLSKFAAAePpi/Ms/eEQfCTmCgR4/U1wfAKEpbttK+VhvFBGAtj/7KddrSAIAAEnSVhXUs2mTxaEG0Nfn7W66W1Ir0wEI7iaZxzPqnzEAFbRGkhEEAACSpLVDI/adkAOY84Teb9IpTAUgQMaGlfW//QICF3X78yS9nSQAAJBk+uaDBX0w5AgGyr7AjQ2sgWA5KyLqjSICwYsLWiWpSBIAAKgqV8/wsG0LNYC+Pm9XojGuDYCAmY5eU/KDCKJ+KCIQtB0nmMUkAQCAJNcHhkbt6yFHMPsJXSvpZCYDEPiNMo9n1DdfIkDIiqYrJE0jCQAA9P1irPUhBzDQ7S+QaRlTAYCJIqKeKCIQrGihz5LrYpIAAECJXKXoLnsy2OuCsk+X6WPikQwAEvtE1BlFBIIVd+h9kjpJAgAQOpM2DI3Z54O+Lkh0nUzHMxsA7HCO5LxVr04oIhCkaIlPk/Q+kgAAQD9+YquuCTmAgR5/EdcFAJ5j36hHxxJDfVBEIEhxq7olHUISAIDAubl6P/RxezzUAFYs8n1kuovrYgA73TOIxzPqhRMugtPV5UW5lpMEACB4rtvWjtn/CzmC6e36oKTjmAwAdsKbM+qGIgLBmTtL7+SCAwAA/Wyra3XIAVRK/kqXljIVAOzGAiKoD4oIhMe0ghAAAKFz18U3bLRHQx1/tNBnmbRREpvRAdidM6MubyOG2qOIQFAqJX+jpDNJAgAQMpfuXDdm/xRyBnGH/kjSUcwGAHswLe7UqcRQexQRCG3CryIFAEDgflFt1ZUhB1Dp9VdL6mEqANgbZ8PKet2XAWEYKPsCl15KEgCAwC+q3/uB2+y3oY5/Vdk7zXkkA8C4sWFlHVBEIByJ+gkBABA015+tG7W/DDmCtlg3SjqCyQBgPIwVEXVBEYEgVEp+kqTzSAIAELBfF1u1LOjrgV5/k0xLmAoAJuCkaKHPIobaoohAGExXM98BAGF/Faovut1+Ger4oyU+21y3MRMATPSeOWnX2cRQ41CJAHnXf5EfYa4LSAIAECzT368dtT8NOYJqi26RdDiTAcBEJUUez6g1igjkXrGoqyS1kgQAIFAPF11LQw6g0utvNmkhUwHAZFjChpW1RhGBXLt6se/nUjdJAACC5boiGrXNoQ4/Kvv+5rqDiQBg0owVEbVGEYFca23TMkn7kAQAIFD/OjSmO0MOIE50q6SDmQoApuCIqNsPJYbaoYhAbq1Y5Pu4dClJAAAC9XgxUa9kHmoAlR5/q6R3MBUATFVS4PGMWqKIQG5Na9dSSfuRBAAgRC6tijbaj0Idf1T2/c14JANAzVBE1BBFBHKpXPZWky4jCQBAoL7YcnjYr6qME90m6UCmAoBacGkBKdQORQRy6eBEiyUdSRIAgABtdakniiwJNYDBXl8o6Q+ZCgBqaH4UOffPNUKQyJ0o8oKbriAJAECQXJV1o/a9UIe/puyHuOsjTAQANdapB3QCMdQGRQRyJ7lf58v1fJIAAITGpK98/xFtCDmD4va3ZOzLbABQa3HCazxrhSIC+eNaSQgAsOtrKJfukZQQRS49VXD1bNpkcagBDJR8saTzmQoA6sLYsLJWKCKQK4M9/ioXTSUA7IpL7183ahcq0Ysl/ZBEcnd810Vj9u1Qxx91+6GSbmQmAKgXc+4zaoUiAvm6CDOtIgUA2KV//cHDulaShjbaF4tbdLakYWLJyfef9J8tD+v6kDOITaOS5jAbANTxXHtGX5+3k8TUUUQgN6JeP0PSq0kCAHbyi2JVC5+5ZD+6xx4ZGrWLzfRGSf9LRJlW9UQ90SZ7KtQABnq8JNMbmAoA6qxt1hM6nRimjiICuRFLayQZSQDAs29SJb0just+sat/uHbE/rHYojNk+iRRZZOZPrh+o30t1PH3L/XDZPogMwFAg26geTyjNjkC2Vcp+7FyvY0kAODZXFozNGr/vqd/J7rdfjk0Yueb6x2SHiK1TPlBYZvWBjzDrVDVqKTZTAUADcGGlTVBEYF8iLVKUpEgAOBZF0t/v25UHxrvv752zDYlrjMkfY7wMiFJCipFd9mToQZQKWmppNczFQA0ECsiaoAiApkXLfGDzbSIJADgWX5W3ar3SOYT+Y/Wj9lPh0b1CjddLmkrMabaR9YP238E+/2/1I82hb1BJ4CmODFa4rOJYWooIpB5SYuukDSNJADgaduU6ILr7rZfT+4/N183YjfJdLake4kzhVw/KbZpIOAALK5qWNJMJgOABrNqq+YRw9RQRCDTVpW906UySQDAM2/RdOXQRvviVH/O0Ih958GCFpj0fkkxyaboEJvK0UftsVADqPTqfZJew1QA0AzmPJ4xVRQRyLTWRO+T1EkSAPC7W1T9zboR3VKrHzc8bNvWjlqkRC+R9EMCTsEFsGl47aj9S6jjr5T8GHNdy0wA0EQUEVNEEYHMipb4NJPeRxIA8LQfPlXU4onuCzEeQxvti1sTnSVpmJib6oHCNq0O9rs/8kJBukvSDKYCgCZaQARTQxGBzKq2qEfSwSQBAJKkJ4sFvfP6YXu4Xn/ADRvt0aFRu9hdb5D0AJE3nkmXRnfZQ6GOP75fl7v0UmYCgCY7uP8iP4IYJo8iApnU1eVFk5aTBAA8bVk0bN9oxB+0bsz+qRrrDEl/RewNdffaUfvrUAdf6fYT5VrHNACQBsUWHs+YCooIZNJJs3WBpGNJAgAkuf5saNQa+sjEdXfar4ZG7W3meoek33IQ6u5X1VgrQh18FHmhYBqV1MFUAJAKieYTwuRRRCCb19yuK0kBACRJ/7XVm/f2oLVjtilxnSnpsxyK+jHTJdfdab8KdfzV+3WVm17MTACQmvuRAisipoIiApkz2OPnSTqTJABAW5ToHTdstEeb+UusH7OfDo3qlW66XNJWDkvN/X9rR+wvQh18VPa55oqYBgBSxTWvq8uLBDE5FBHI3mfetIoUAEAy1yVDG+2baflt1o3YTTKd7dI3ODo18+s44DdERZG3JIk+JmkaUwFAysycO1tziWFyKCKQKQNlXyDpJSQBABpdO2YfS9svNTRi3/llQeea9H5JMYdpyi6/dtQeDHXw1c1a5WL5M4B0Muf8NFkUEciWRP2EAAD6VrGgZWn95YaHbdvaUYsS6cVy/TeHa9L+YWjU/jjUwUcX+fNNqjANAKQYG1ZOEkUEMqNS8pMknUcSAAL3WLGgd0TD9kTaf9H1o/alYlFnSPqIJOfQTYDpkSTW0lCHH0XekhR5JANAurFia/IoIpCli7KrmbMAgj8VmpZGw/b9zNxQDtsTQ6O2zExvkPQAR3C8X3lasf5O+3mo4082q+LSPGYCgJQ7bfly57XCk8BNHTKh/yI/wlwXkASAwG9Ob107Yvdk8XdfO2L/XI11hqS/4kju9UB/Zu2IRkMd/kC3n+7S1UwEABnQOuNhnUEME0cRgUwoFnWVpFaSABDwzek3H52pq7I8hOvutF8NjdrbzPUOSb/loO7SE27qlSzIR1miLm/zgu6W1MZUAJCRO+oFhDCZ2ICUu3qx7+dSN0kACNhDxVhv27DBtuRhMGvHbFOxoDNk+gyHduevvXXD9j+hDj7p1KBJpzENAGQIG1ZOAkUEUq+1Tcsk7UMSAEJlplK00X6UpzFFw/az4mF6tUsrJD3JUZZM+kLxcN0S6vj7u32eS6uYCQAyhg0rJ4EiAqm2YpHv49KlJAEgYKNrR+wv8jiwKLJk3aj9UTHW2S59I/DjvLUQqzeKLAlx8H193m4F3SmphY88gIw59urFvh8xTAxFBFJtWruWSuKDDSBU/7M10RV5H2R0p3235XAtMOn9kuIQD7SbronutO+GOtFnP6m1Jp3CRx5ABlmxlcczJooiAqlVLnurSZeRBIBAVRPpwhs22qMhDDaKrLp21KJEerFc/x3SgXbpvl+aPhzqRO8v+blyXclHHkBWGY9nTBhFBFLr4ESLJR1JEgBC5FK0ftS+FNq414/al4rtOksK5vWV2yzRkuFh2xbiPF++3DsK0p2SinzqAWSWsSJioigikEpR5AW3/C9HBoDd+PwPHtYHgv0O+Kg95qYfhnHtqmuHNto3Qz3WMx7ROklz+cgDyDhe4TlBFBFIpeR+nS/X80kCQIAeLrbowk2bLA41gIGSn22utQEM9Xu/7dB1oR7n/l5/oUzL+MgDyIEDoqV+NDGMHzsTI5XceX0XgDCZ6b3R7faTUMcfXeoz4q36U5nacj7UOHEtuflm2xrkcS779DjWXTIVJP1I0ndN+nHi+l8z/Xqn6wJpprn2UUH7uOsAMx3orsNMOljSgeIv1wA0+6Qe6xxJPyGJ8aGIQOoM9virXDxnBSBIf7J2xO4J+kJuq26W6fjcD9T0R+tH7SsBX7CfaNLywhb9e3SPPTKVnxV1eVu1U8fKdeKOuXOipDN3vIWjTQDQiNO66xxJnyCJ8aGIQOq4sRoCQJB++lRBl4YcwECvXyDXkgCG+v3iNl0T8rEeGrN7Jd1bi58VbbKnJH1vx//9/n/v8jbN0SmJ62x3vVjSyyQdxakGQF3uYXhzxoQYESBVF6ElP1vS10gCqMEXYkHHrRu2/8nzGCs9/noz/WMOhhJLesXQqP17qPM1WupHx1XdK2l2zocaK9FLhjbaFzlLNV5/jx9VML1MrjfI9DpJc0gFQI08Xjxcs6PIqkSxd6yIQLqYVsmJAUBopz59YG3IJUTkLfFm/bHyX0LIpBvXUkI0zfox+6mkuyXdHUXeUt2sF5vpPLm6xGoJAFOzjzbr+ZL+kyj2jiICqVG52I9XrLeRBICQmPSVXxT0/pAziO/XgKQXBTDU/3p0pgaY9emw428tP7v9/3zlQI9eqIIukOsd2r4BJgBM7Pts+z4RFBHjwA7DSM/FeKyVkookASAgjyeJFg8P27ZQA+gv+4vl6g9gqImk0oYNtoVpn8qrEB8as88PjVjf9x/WoW56jUybtP2xKQAYF/aJGD9WRCAVom4/NJYWkQSAoG59pGVDG+0HwZ77l/jsONE9CqOE/kjIe4BkyaZNFkv6tKRPV8p+bCHRxS6VJXWSDoA9fq8XKCLGixURSIW4qOWS2kkCQDhXK/rk2lEbC/zcf5ukIwMY6o+LbTySkUXrhu1/1o7aymKbDnfT5ZJ+RioAdst1yopFvg9B7B1FBJouWuKz5bqYJAAE5P7qVpVCDmCgx7tluiCAoSaJa0n0UXuMaZ/ha5WP2mPrRuymBws6zqRuuX5CKgB2odjRrrOIYe8oItB0caveJ2kmSQAIhJup97q77dfB3tT1+HEy3RjIcG9ZP2b/xrTPh+Fh27Z21O58sKgTJF0s6X5SAfCsL3n2iRgXigg01fLl3iFXH0kACOgKZcPaEfvHUIcfdXlb1fTnCqOA/tGWrVrDpM+f4WHbNjRqw4/N1PEuVSQ9TioAJMkoIsaFIgJNNeMR9YhXZAEIhEvfLsZBvCFit5JOXWsKYtmqm7T0Qx83blBzbMMG27Ju1NYXE50gaVjb344CIGzziWDvKCLQNFHkLTJdQRIAArHFTBdEd9mToQZQ6fbXurQ8hLGadPvaUfsXpn0g1zQb7YGhUbs4Mb1E0ndIBAjaMVdf5AcQw55RRKBp4s26QNIxJAEgCK6VQyMW7A3K1Rf5AVbQXYFce/z0yUSrmPThWT9iX3iwoDPdtFrSVhIBwtTKazz3iiICzboiN5euIgcAgfiHoTHdGvI5v6VFd0o6JITBuql0w0Z7lGkfpuFh27ZuxK4vuuaZ9DUSAQL81qOI2CuKCDRFpVfnmXQaSQAIwK+KVfVI5qEGMFBSn1znhTBWMw2vG7FPM+0Rjdm3C4frBSa9X1JMIkBAnCJibygi0JyJx5JVAIFcipirJ7rLfhFqAAO9frKkDwQy3PsL27SaaY/fiSKrrh21yBK9RtJmEgGCcc72PYux2/tBIkCj9Zf8XDe9mCQA5J7rtrVj9rfB3oQt8Wnu+hNJHUEcblcpusseYuLjudZutM9Un9IZMn2KNIAg7Bv16Fhi2D2KCDRj0vFOdQAh+F6xGPZeOEmLPhzMY3imjevG7J+Y9tid6+62X3//Ib3RXNdLchIBcv4daLzGcy/3hEDjRD1+iqQ3kQSAnHtKroXRsD0RagCDJX+LS5cEMtwHt7VoBdMee7Npk8Vrx2y1mbokPU4iQH652CdiTygi0FCxaZUknpcCkPerj/6hMbs31OH3L/XDXBoNZsCmyz9wm/2WiY/xWjtif6FELxL7RgA5/mqgiNgTigg07sL0Ij9C0jtJAkDOLzz+7fuPaEOo448iLxSq+pik/QMZ8j8PjdifMfMxUUMb7ZtJi86V6ZukAeSPS2eVy95KErtGEYGG2fGsNB9GAHn2m4K0cNMmC/ZVffFmrZT0qkCG+0RAj5+gDtbfbvcXt+nl5voP0gByZ9qh0qnEsGsUEWiIqxf7fi51kwSAPDPp0mjUgl1q3d/t8yS9P5gBu65ZN2o/ZuZjKqK77KFCUa/jjRpA/sTO4xm7QxGBhmhp1eWS9iEJALll2rh21P482JupS31GoaB7JLWFMF6X/vPBom5i4qMmn59he6L4kP5A0l+RBpArvDljNygiUHcru32mTO8lCQA59j9bY10ecgDxU7pV0gmhDNdMpeFh28bUR61Em+ypBwt6p1zsOQLkhLMiYrcoIlB37aaLJc0hCQA5VVVBC2/YaI+GGsBAj79b0uKAhnzr0Ih9lamPWhsetm3FI7RQpltIA8g+k05a2e0zSWJnFBGoq3LZW2W6jCQA5JVLa4eG7cuhjr9S8mNk+mhAQ36wWNU1zHzUSxRZMjRifW5aTRpA5hXbCjqbGHZGEYG6OijWeyQdQRIAcurzP3hY14Z7w+QtJt0jqTOgYa+M7rKHmPqot3Ujdr1cfZKcNIDsMh7P2CWKCNTzArUg0xUkASCnHiu6lgT9qs6f6xpJLwjmYlL6wtCoPs7UR6MMjdktUtj7zwA5QBGxCxQRqJvqZr1N0kkkASCnLonG7IehDn6g5C+R6eqAhhwXTO+VjL+dRkMNjdpHJC0nCSCjjCJiVygiUM/JtYoUAOSS68+GRu2PQx3+6kt8jrY/klEM5zpSt0cjdh+TH80wNGo3SuonCSCTjlhT9kOIYad7RaD2Kr3+apfmkQSAHNpcVNivJG7ZptsU1v4/v972FBtUormGRu1ac91EEkAGvzcTVkU8F0UE6sKc1RAAcilOXAujMftNqAEM9HjJpHcGNWjX6uvutl8z/dH0C/cjdIVMnyQJIHPmE8FzzmdEgFqLev0MSa8iCQA5dP36Mfu3YM/vPX6cTBsCG/b3i0foLqY+UvEZjCx5bIbeLemLpAFkh7Nh5U4oIlBzsatfkpEEgDwx6WsPFhSFOv6+Pm+PTZ+QNCOo4+5aGUVW5ROAtNiwwbYUW/RWST8jDSAz5kvO/dEzUESgpiplP1bS+SQBIGceTxJdODxs20INYM6Tuk7SmYEN+9/XjtnfMv2RNtHt9sui6S2StpAGkAmzK906gRh+jyICNWWJViugXdQBBHJuMy1ft9F+EOr4K93+WnddHtq4E9NqZj/SKhqx+9x5rSeQmRtvXuP57DyIADX7QlziB0u6kCQA5Mxfrx2xkVAHf/VFfoAVdJfCe+TuL9eP2BeY/kizdWN2h0wbSQLIAGPDymeiiEDNxK26UtI0kgCQIw/G0sXhDt+tpaiNkkJ7/3lcjDXA9EcWFLfpvZK+QxJAyr9RnRURz0QRgZpYfYnPkYd8sQ4gl9cMiRZfO2oPhhpApVeXSXpTcAdeuju6077LRwBZEN1lTyaJlkjaRhpAipnOiLq8jSC2o4hATbRW9V5JM0kCQG6uF0w3rttonwr25qbHTzHXdQEOPW4xfYBPALJk/Ub7mlzrSAJItfZ4tk4nhu0oIjD1i9WyT5erjyQA5IVL//nbabo65PP6jld1dgQ4/D+NRuy/+BQga4pH6Fq5vkwSQIqvL3g842kUEZiyOFa3pANJAkBObG2RFt18s20N9ryeaIOkkwIcelJ0Xc9HAFkURVZVQT3iEQ0gtUwUEb9DEYEp6eryoiy8V7oByLWV0aj9Z6iDH+z18yWVAx3+/xeN2bf5CCCrhkbsOybdSBJAalFE7EARgSmZ26l3STqWJADkgulTQ6O6OdTh9y/1w9wV6qtKvSit50OAzF/cFxTJ9ROSAFLpxGiJzyYGighM7ZrNJK0kBwA58aviNr1HMg9x8FHkhUJVfyxpvyCPvumvQ14Jgxx9loftCZeWkwSQzm+baqvmEQNFBKag0qvzJJ1KEgDywE2l6C77RajjjzdrtaSXh3tpyJsykB/rxuyTMn2GJIAUft2wYaUkighMZfIkWkUKAHLi9nUj9jehDn6g1+dLigI+/p8fGjbeNoBcSWKtlOQkAaSMaT4hUERgshetJX+Jm15MEgBy4IfFNl0V6uCjS32GEt0jqTXYa0LTBj4GyJv1G+1rkjaRBJAyrgWEILUQASaJvSEA5MFTxYLeGX3UHgs1gPgp3SbT8QFfEP7kew/rk3wUpi7q8rZqp46V60STTnDpOCtotqROSzTdTR2SZNLj7npcBT0m6UGXfqhEP5DpBy2H66dRZAlp1kbR1R+bzlfARSOQQodEJT88GrXNIYdAEYEJGyj7qUp0HkkAyMFN6EA0bN8I9nze6++Q68Kwp4A+smmTxXwYJm75cu+Y/rjONteLzPXqWHqJSe2y7f/cdgQs7dje+veZb/+H/ox/b8c/jzfr8YGSf9FNnzbXp4uH616KicmLxuyHlZL/sUkXkQaQHtXtr/GkiAAmJNHK318yAEBmfbZ4hD4U7A1Ktz8vVrCv6vydR7cVtZGPwviVy956oOt1lmihHtVbpO2rHGpoH0mvNterJSnerF8O9vifuvSxoTG7lyMwqeu261XQe8Qj2UBqFLZvWPmXIWdAEYGJXbgu9aPjqi4gCQAZ99sk1uKhQP+mtVz21jjWn8g1K/B5MHb9sD3Mx2Hv+nv8qILpciW6UNL+DfzriAPdtEzSsoGSf0vSaLGg0WjYnuCojM+6jfaDgR7/K5neThpAOniBN2fQjGJCkqpWiAILQNaZLl1/p/081OEflCiSBb9ZlhdNt/Fh2LOox48bKPlNBdMPJF0uaf8m/jqnSropTvTTwZJHq8reyREat/XiDRpAir6BNK+ry4shR0ARgfFfjCz1A51nDAFk/rtfHxsasT8LdfyVkr9c0mpmgj4Xjdh/EcOurSn7IZWS/3G8vYC4TFJ7in69/V26pi3R/1R6fVnoF/PjseOxln8jCSA1Zp48QyeGHABFBMYtqeoySdNJAkCG/bhliy4LdfCrL/E5Jn2M739JHvz+GLsURd5S6fVlRdf3TVqY8rmyn7lunDtbX+8v+bkcvT0z6Q5SAFJ0b1UMe2UiFyIYl5XdPtOlS0kCQIZVlWhhdI89EmoArds0JulIpoJ+U4zD3iRsV6IePyXerG+Y68ZM7R/iOr0g/cdAyW+Klvg0juSu/bZDfynpVyQBpMb8kAdPEYFxaStoqaQ5JAEgq1xaN7TRvhjq+Cs9frGk85kJkrk+Ht1lT5LE7w2UfHFs+pK278OQRUVJl8Ut+kLU7c/jiO7s5pttq0l3kQSQmuuSoDespIjAXvX1ebtJy0gCQIZ9seVwrQ918JWSn2SmDzMNnr74GSWF7aJLfcZAj/+ptj+ys08OhnRmXNDXKr3+Jo7uzpKiRsSmlUBanBbyKi6KCOzV7Ce0SNJhJAEgk0yPFBNdGEVWDXH4fX3ebqY/FXv8/M4XozH7NjFIV1/kB8RP6V9luXst9xxz/U2l1/s4ys+27g77b0lfIwkgFVrjgs4MdfAUEdijKPKCTFeRBIDMcvVFG+1HoQ5/zhO6Xq7TmQhPz4eNhCBFS/3olqL+Q/l9RtnM9ZGBXq9wtJ/7EdCfkwKQks9jMdzHMygisEfVzXqbpBNIAkBGfWJo1O4OdfCDvf4Gt3DfErILTxSf1CdCD6FS8pPiqj4fxPe7a2iw5DdIbkz/7VoK2iQezwDSco4KdsNKigjsbYKsIgUAGbW56Lok1MFHS/1A3/63/9yA/d5fhvzWFEnqX+qHmfSPkg4N5zpfVw32aAPTf8e5Ydh+ZtIXSQJoPnNWRAA7qfT6q12aRxIAMihxaVE0Zr8Jc/hucVUfk3QwU+GZqehjQd+A9vi+hVifknRUgMd+2faVEZCkRPokKQApYDou6vF9Qxw6RQR2/7lwVkMAyOz564PrRu2zoY6/0qPLJb2emfAsv/rBQ/pMqIOPlvi02PR3cj0/1Axcumqg5Ov5KEgt0j+TApCOS5akEObjGRQR2KWBXp8v6dUkASCDNxvfKDyiwWDP32U/1UzXMhOeMy9cn9y0yeJQx5+06MOSXsBM0JqBHi+FHkI0qm9JeoDpAKTg/Bzo4xkUEdjNJ4LVEAAy6YmWghZGm+ypIG8uyj5diT4haRpT4TkXPAX9VahjH+z1t7vC3S9lJ6Zb+nv8nMBDcLk+xWQA0nBKoogAtl/I9voJMp1PEgCyxl1XRMP2/VDHX411o6S5zISdPPrbafrXEAdeKfkx7hplCjxLe8H0F2tKflDQNz9GEQGkBI9mAJIUu65ibgDIHNffrBuzO0Id/mCvv91MvUyEXc6Nz9x8s20N8mZTGpE0m0mwk8OLprHAr/e+wDQAUuGg/h4PbhNhbjbxLP1L/TBJi0kCQMb8MjaVQx18VPLD3XUH02C3/iXEQQ+W/J2SXsXh3w3XeTsyCtL6MfuppPuZCEAKbsoLWhDcmDnseKZiVcsltZEEgCzdTpir+9pRezDEwUeRF2LT3ZL2YyrsZoJ4eEVEVPbpLl3P0d/L3JBuicq+f8ARfJlZAKRCcI9nUETg9xctPb6vK9y/UQSQWTevHbO/D3Xw8f1aI9crmAa7tXndRvtBaINOXBVJR3H492r/ahzuW2Zc+hJTAGg+C/DNGRQReFrV9F5JM0kCQFa0SD8sVsN9y89At79ArmuYCXu6utMXQxty1OP7uut9HPxxThHTRVGPHxfi2AuubzADgOZz6eyuLi8Gdf7hsEPavoTTpD6SAJCpc9eY/TC6y54McuyX+gyZPiaphZmwR8H9jS9/sTBhLVXTmhAHXnB9j8MPpMI+J3fq5KDOPxxzSFLV1SPpAJIAgIyct5/S7TIdTxJ7kYT1DDx/sTA5Ji2Oev2E0MYdbbQHJP2WGQA0XxzY4xkUEVC57K3mupIkACAbBkq+2KSFJLFX1cdmhbX0vBprkfiLhckoxomWBTr273P4geZzUUQgMAfHukBsaAUAmbDjWfZbSGJc/mfDBtsS0oDNtIjDPtnw9K5oiU8LcNw8ngGk47MY1JszKCKC55aYVpIDAKRfFHlLYvq4eP5/nF9x+nZIw+3v8aMkvZADP2lzkqL+ILhRJ/ophx5oPpNOXbHI9wllvBQRgRvs0ZtMOoUkACD94s0aculckhjnRZ2FVUSYafH2a1lMlhf0ngA/J/dz5IFUKLZ36MxQBksREfoXroX72jsAyJJKyV8psYJtgoJacm7S+RzyqV4Y6XXRQp+lsCbOAxx4ICU35wFtWEkREbCBkr9E0otIAgDSbfUlPsekO/nenpjY9eNQxhr1+L6STueoT1lLMk0vCWnAbtrMYQdS8nmkiEAQWA0BAJnQuk13SjqSJCaYW6yfhTLWqvRSrutqdnX8qpCGW92mX3DQgbTcnlFEIOcGyn6qXG8kCQBIt0rJL5H0FpKYsK3RXXowoAu6l3PIayNxvSKk8ba7HuWoA6lxTLTUDwzkewsh8kSrxIZWAJBqA71+skl/RBKT8nPJPJjvdTYxrRmTTlu+3DtCGW90lz0paRtHHkiHZFsYr/GkiAhQpeTHmPROkgCA9Orr83ZJ90jqII1J+VVgd88ncMhrd30843EdF9iYH+OwA6k5n1NEILcH/UpJLSQBAOk1c4tmy3UoSUz6Qu43oQz16ov8AElzOOi144lODGzIPJ4BpOX8E8iGlRQRgYmW+oEudZMEAKTbtaP2oLl6JDlpTOJCTuEUES0FVkPUmim4TJ/iqAOpOQHNlzz3j9BTRAQmqeoyscwXADJh7Zj9rUkfJYlJXOAk4RQRMh3DEa+5I4K79QGQFvtXynpe7r+nOc7hWNntM126lCQAIENf1FWtcOk/SWJi3LQloFvIWRzxms+ffUI71XDUgRR9IJP8P57BSScgbQUtFc+QAkCmRHfZk2Z6txTQjXVtbs7DWWqeaAYHvMbTxwPL1FkRAaTsOyz3G1ZSRASir8/bTbqcJAAge4ZG7DuSVpPEhATzOkIziog6CCtTo4gAUsW1IO9DpIgIxJwntVhi93UAyKqhUd0s6R9IYrzXcOEUEW7s/VQHrYGNt8ghB1L1HXZmuey5Pg9RRAQgirzgrhUkAQBZZl6NtUTSL8hiHJJwrnHMeWyn9qHqocBGzGvdgXTpOCjWKXkeIEVECNdiP9fbJV7tBQBZd92d9iszLRGv9BzPjWQwN1aJ6XEOeK1DpYgA0PQ79QX5Hh5yz02rSAEA8mHtiP2zuT5CEnu9wAlmqblJj3LEax7qQ4GNmEczgPTJ9YaVFBE5N1jy10g6myQAID9+O12rZPomSeyeh/SMv+sRjnjN589vAhtyK0cdSNl5yPP9Ck+KiPx/kbIaAgBy5uabbWuxyis998jUFspQk4J+wgGv+QXyf4Uy1q4uL0rah6MOpO1rTCdFl3pu3+BDEZFjA70+X9KrSAIA8ie6074rYyPi3fFEnaGMtbUQzk1zAy+QvxfKWI/r0Ozt9zwAUqZYfUrzcnyeRW4lrIYAgDwbGtFtcv0NSezMpH1DGWt0u/1SCm5Pg3qKVQ2n3ClO02wOOZDS77IcP55BEZFTlW4/UabzSQJAnvX3+EsrJT8p5EuUYlE9kh5gNux0hbNvUON1/YCDXrMsfxTdZU8GM9yq5nDQgbR+zed3w0qKiPwe2as4vgDy//2s6SbdE3V5W6gZRMP2f256j6SEGfGMmysP7ObK9GWOeo3mjunfQhpvsaj9OOpAarEiAtnRv9QPM2kRSQAIxJnxbA2FHMC6Efu0TB9mKjzzvlwHBjVe02c56jW7OP5/IY3XEx3BUQdS68hoiR+c03MtcndQt+kKSW0kASCcK2mtqJT8lSFH8KBpjUlfYTI87eCQVsoUEn1OrIqpydmkUNVnAhvzURx2IL2qrflcFUERkTNRj+8rUy9JAAhMwaS7Vl/iwT7rPDxs25JEiyU9znTYPieqc8L5m95ozH7j0n9y2KfGpW9Fd9kvghq06UiOPJDiLzOniEAGxNL7JM0kCQABOqL1KY2EHMC6jfYDMy1nKuy4yKmGdYNlrr/iqE+R688CHDUrIoA0n5ZyumElRUSORGWfLtP7SAJAsExvH+zxoPfIWTtiI5L+kskgqaCjg7pYLeoeSc6Bn7TEE/1xgOM+hkMPpPnkrvmSW/6+opEbVVePpANIAkDQ39cF3VIpedAX1kVXr6TNwU8G0/EhDXfdsP2PSV/kLDBpn11/p/08pAGvKnunxGaVQMrNiXrz931GEZET5bK3mutKkgAQPNcskz7e1eXFUCPYsV/AIgW+eaG7Tg1tzImC/Bv9WrkztAG3uE6WZBx6IN3iHO4TQRGREwclepd4xg8AfudFc2fr6pADWDdqnzXT9YHPg9NCG/CTW3W3pP/jFDBhPys+rE+ENmhLwivrgEx+VkURgVRyc+kqcgCAZ54adU1/yc8NOYLCYRo06UsBR3BEtMRnhzTgD33cHnfpFk4AEz1d6APRJnsquHOE6WSOPpCBcxQrIpBGgz16k0mnkAQAPEtLwXV3dKnPCDWAKLJqwbVI0qOBRmDb2sL7fmxx3SzpMU4B4/ZASzW8xzIkyaWzOPxAFr7NdEbU5W15GhJFRB6+REyrSAEAdvnFfXz8lDaEHEE0Zj+U6bJgp0CiBQEe89+IVRETOU+sj+6yJ0Mbdl+ft0s6mwkAZEJ7PFun52lAFBEZ19/jL5X0IpIAgN0qDfZ4V8gBDI3YXS79aZj3mGF+R25NdK2k+/n475lL3/j+Q7ojxLHPfkLzJE1jFgAZOV/l7PEMioisH0BWQwDA3r+8TR+Nuv3QkDPYVtAlcv0kwKEHWUTcsNEeNfaP2pvEpfdu2mRxoOfFFzIFgEyZn6v7WI5ndkUlP03SG0gCAPZq/7ioOyUP9jV11w/bw0lRiySFdtN1YNTjx4V4zNeO2p/K9Bk+/rs1vH7Ugt3M1SgigGx9ZsWKCKREVVop3v0MAOPjem2lN9y9EiRp/bD9h0zrQxt3YnpJqMe8GKsk6WFOADv5wdZEK0MdfBR5i1wvYxoAmXLiqrJ35mUwFBEZVSn5MSa9kyQAYPzMdf2O1WTBKh6mIZO+ENKYE+l1wd5wbrQfuVTi0/8sT8r1rhs2Wqhvk9G2B3SupDlMBSBb9+7tseblZjAcz8xeTK+Q1EISADAh7bH0J8uXe0ewN6aRVRPpQpke+f/bu/84u+r6zuOv770zk0wSkhCQ8COAIj8SA4JACFh/ULUWf1StOlYJCcnMnUv4ESQYEpLMHU9JoOpa2cr6axhQAd22lF13u93uPmwfdqtdH2XbWu3alVK1KNiyj65SASNk7v3sHwmUH0mYH3dm7jnn9Xw84gOTmXvP9/393jnnfOZ7vt/SnDPhjVkWpT1n7h5NvweM+PHfL9i067b0jVLfzbR8tFfKo1aBHs+wEJFDO2qxlMQGk5CkSVl52GPlezzhOTem309wRYmafHjzh+XbxvOZHjuMaxLcW/YPf0p8ZtdtabTsOQRc5KlAyuHPsIqFCM2iKlwN9JqEJE3yIjy4ZrgWv1TmDG64NX0BuKtEN6Cl/g3wzTenPZUKbwHuK/Hd9z3/5xGuLPvPv6w/jk3wCs8EUi5/jlmI0CydPNbEQsr1WyxJmpb70oDPbV8XR5Q5hOoergS+V4a2tuDtpb+GGEn/3Ap+GfhR+T7xfOWReawp61adzzRWpQ8XO5fy6tidG+O4IjTEQkTONOeyEVhsEpI09ZN5V0+5n5vPvpB+SotLgLHi34dyejYQp5d90N94W3qAChcBD5eo2V+t/ox33HJLesIfe5DCxc6lPKs2izErwkJEjmzaFHNIvN8kJKlt3tkYiP4yB7Dr9vR1gl1laGvT3ab29flI+puACwjuL/5dN1967DB+OftC+qk9D1k9TgDONwkpvyIsRGiGLd7DpcCxJiFJbb1R+Xg2GKeWOYLq8ewm8ZUS9PX7IJySzr4FS5uJVwf8VXG7m09Uj+NdN9+c9tjj+4wF78PHMqS8sxChmdPXF1X2bdkpSWqv+c0Wd5R5e8csS61qYj3wSMGb+tLGYHH2YJ+qm0bTw0+2uBD4vYI17eckrrxhNF2VZallTz9DcIkhSDmXODfLIvf38RYicmL5Yt5F4hSTkKRpOamvbj5Eo8wRZCPpBylRK8GNWM0B/68+cnt6dNdo6gMuBX5WgCbdV01csOvW9El799kaA/ELCU43CSn357GFPMDyvDfDQkRexluwzRQkaVpP7Dt2DsYryxzBDbemewg+V/BmXry1Pw5zwD/brtF0By1eSeJvc3upFNy65wnOyW5Nf22PHiCgCpeZglQMza78P55hISIHhvrjjQnONglJmlZdleCu/dskl9aeJ7kKuK/ATVzQk7jY4f58u25P33w4cVYkriGRp8Udv0Hw6t23pfpH70yP25PPl62PxSl4l0lIBdFiVd6bYCEiB1LF2RCSNENeMtbLx8scwEfvTI+TWAvsLe6JlY0O9QMbGUl7d9+afqtV5WUBvwNEBx/u/41gY3UZ5+66Lf2ZvXdwY1U2APNMQirIaSw5I0LTbOdAnAe8ziQkaabuUbm0MRjvKXMGu25N/wsYLnAfn9Woxasd7Qd346fTQ7tH03upcCbwRWCsYw4u+IeAqx47jBfvvi19xgUpD61ej+7k9u9SoQS8PFsfc/PcBgsRnd5BydkQkjQLZ/hPZ7VYVuYIqsv4SKG39PT8Oi67RtLf7BpNa6otTkvwCeAns3fdzVeBtdXjOWX3aPqE23KOz9IW7wNONAmpUHr2dnFWru9z7cPOldVjOfAOk5CkGXd4Ez5fhO2xJn0OylKrGqwDflzIBgZvzgbCHQTGOx5uT9+7YTRd9Ugvx0TwqwT3AD+f/m7iW8D2aoUX7xpNr9k1mu7KsjRmj4w7wQRsNQepeCrk+/GMLruwczWD67BYJEmz5XXNH3It8NHS3nyOpgeHajGY4J4CNi+NVdgKrHOoj98tt6QngC8BX8quiAVjT/CqClwYcCGJc6Z8bRncT+J/pMSfVJp8Jbs9/cjUJ294gLcGrDQJqXgi54WIZBd26MVfLZY14btAj2lImtQJqsLJu0fSd4vcxqGBuCgl/nAa3+LJamJ12bcDHBqIkZQYLGDT9gactns0fd+fGG24dqnHvOYYp6TEqZE4JeDUlFhEsAA4HJgL/COJxwgeAx4j8RDwd7S4f8+T/J27XrT1LJCGa9wbcK5ZSIWsRNy/67Z0al4P3xkRHaoZbCZZhJCkWdbTDL64eXOcU+bn0buqXNNs8WpgecGa1p0gAy51qLehEDGSfgZ8c/8fzbLGIH0RFiGkwkqcvH1dHPEbd6T/l8fDd9p/J57IB2IJxfzNkyTl0YoFj/GRst9gViusAZ4sYPMuafTHmQ5zFUlfX1QJft0kpEJL3XPyW2y0ENGBmnAVcJhJSFKHCK4cGoy3ljmCbCT9FcHOAjatQuIGB7mK5LSF1CjeDCZJz9GK/K4TYSGi0y706jGPxCaTkKSOklIwun1DvKjMIVSP52PAl4vXu7ytMRC/4DBXEWztj8NSYtgkpBJcnMCqvB67hYgO02xRA440CUnqOEu7Knx+/3Z4pZRlqdWEtcDDRWtbJD7e1xdVh7nybk4iA441CakUVuf1wC1EdJB6PbqBa01CkjpU4k1DA9TLHMFNo+nhlNgARLG6lrOXL+YyB7nyrDEYK51ZK5XKUTsH4sQ8HriFiA6ytMX7gBNNQpI6+IY18bGsHqV+9vqGW9MfEnyqcA0Ldmcb4yhHuXI6gBNwC9BtFlJ5VMnnOhEWIjrr5LHVHCSp481rtrhr/yy20npsIVuAbxesWYePjfEhh7jyaHiAdQS/aBJSye4iKxYiNJWTR423AStNQpJy4ZyjS7413s03pz0kfg3YU6R2JVg/NBAXOcSVJ1l/HBuJm01CKqHI54KVFiI6h7MhJClP5/1g23B/lPq3j7tuTd+OxPaCNSulxOj1l8fhjnLlRTMxCjhmpXI6N8uiK28HbSGiAzQG47UBrzQJScrXOTQq3FH2G9bdt/Jx4L8UrFnHdY/xUYe4cnEdORA1Em8yCam05jd/xIrcXUTZbx0gnA0hSTm1rHsv/67cEaRoQo2ibekZ9A8PxFsc4upkQ7V4CRV+0ySkkp+JW/lbJ8JCxCzLavFysIotSTl2cWMgLi5zAPu39LyUgm3pGYnP7twYxznE1Yk2bYo5FfhdgoWmIZVbYCFCEzQG1wPJJCQpxxKfzDbGi8scwQ23pv/Ovq0Di+RF1TG+mMdnb1V8i3/GxwLONQlJFiI0IUO1eEmCPpOQpNxb1NrLnX19US1zCI/0spXENwt2cfea5oPl3iFFnacxGO8hcYVJSAJIcMaWtTE/T8dsIWI2B0ywBfC3LJJUhBvWxKuWL2JbmTO45Zb0BLCGgm3pCVw/VIs3O8rVCRqDsZJg1CQkPUN1Ti+vyNMBW4iYJdnGOIrEBpOQpEL59UY9Vpc5gF23pm8HXFewZlUS/HY2EKc7xDWbtq+LIwi+BBxmGpKedaKKfD2eYSFilrSaXAP0moQkFUoXLe7KrogFZQ5h92j6BMF/LlizDmvC72cb4yiHuWZD1hc9XT3cA5xsGpKef4PJqjwdroWI2TiRrImFEVxuEpJUSCe39vLRsodQrTIA/GOhGpV4cWsv92zaFHMc5ppZkcYWMwq81iwkHeQc5YwIHVpzLhuBxSYhSQW9ZQguGxqMt5U5g2wk/XOCS4FWsW4HedXiPYxmWXgNpRkzPMiNKVhrEpIO4aTtG+JFeTlYT6IzbNOmmEPi/SYhScWWgtt21OOYMmdww2j6coKbC9i0S5o/LNxWpepQjVpcE8F2k5D0QqrV/DyeYSFihi36GeuBY01CkgrvyGrwOYhU5hD+qcL2BPcWrmGJKxqD4baemlbDtdgAfMwkJI3z5v68HB2rZkpfX1QTfMAkJKkkgjcODXJVmSMYGUl7KxUuBR4vYP8ON2pxjQNd06FRi0sCRoFkGpLGdVoKCxE6gBWLeDeJU0xCksojBR9p1OOMMmeQjaTvANcWtHkfawzGtY50tSog7VsAABavSURBVFOjFpcAn/VaXdLELjo4Ly8zMf3hNoMKuK+6JOmFzY0WX8zWx9wyh7BrNI0Av1vIy77gN4dq8UGHutqhMRgbgc8DXaYhaYKOGKpzUh4O1ELEDBkejF8GzjEJSSqfBKc3u9lV9hz2drMR+EFB+zgbHogPOdo1FUO1uI7gU16jS5r0DX4rH49n+ENuhkSw1RQkqcwnAq4dHojXlzmCD30q/SS1WE/BtvR8uosT24YH42NlX6BUkxs9w4NxU4KPmIWkKUn52DnDQsQMaAzGKuB1JiFJpVaJxOe3r4sjyhzCDbenr1Dgm60INjdq3JFl4bR6jUtfX1QbNT7tFp2S2nQeckaEnhoNnlgkSQAc19XDSNlDqC6jQfDnBW7iJc0H+Q+bN0evQ16HsmlTzFm+iN8G6qYhqU3Oqdeju9MP0kLENMvqsRx4u0lIkvZ7Z2Mw1pf63JilsehiLfBYgZv5Kwse5b9ef3kc7pDXQa4Rj1y8hy8D7zYNSW00d2mT0zv9IC1ETLOxFlvNWZL0LMEtQ5dFqbdz3v2ZdH+CqwvezAu793Lv/l9KSE/LBuPUZouvAa82DUntv8zo/MczvEGezpNMLZYlWGMSkqTnWJCafCEPUyen0w2j6bMB/77gzTy52eLPhmrhWlEC9u2k1gzuBU4zDUnTIgcLVlqImEatxLVAj0lIkg5g1VEtdpQ9hK4xrqCgW3o+w5IE/21oIC5z2JdZpMZAbI3gD4BF5iFpuiRnRJRXNhBLIhg0CUnSIS4Uhhr9cUGpz5efS4+0KqwBmgVvandKfLpRizu3rI35jv5y2VaPRY0B7ibxYaBqIpKm2cqt/XFYJx+ghYhpMpbYBCwwCUnSIXRR4a5Ov1iYbjeOpK8luKkkzb2kdw5/kQ3E6Q7/cmgMxqqeFt8g8S7TkDRT9/lzqpzd0QdoH7XflrUxP8FVJiFJGoeTeir8VumvmJZxA/D1kjR3eTPx9bLvnlJ0fX1RHRqI7QR/BrzERCTNpIjOfjzDQsQ0mDuXGnCkSUiSxiPBhsZgvKfMGWRZGgtYQ+KnJWnyAoLPNmrxBzvqcYyfgoKN5/44afkivpISNwHdJiJpFq4tLESUSb0e3SnYbBKSpAkJPr1zQxxf5gh2j6bvE1xZsma/udrir4cG4h1+CArxQU6NWtSbFb6FW3NKml0WIsrk6CYXAyeahCRpgg6vVLk9y6LU5+Zdo+mugC+UrNlHpcR/bNTizmxjHOVHIZ8a9ThjeIA/BT4DuCCppNl2QrY+ju7Ug7MQ0VaRWokt5iBJmqQ3NB/imrKH0NXDRoL7S9j0S5pj3Dc0GO/v6wt3VsiJrB7zhmuR0eIvIvEqE5HUKca6O3dWhIWINhqu8bYEroItSZq84KZGf5xZ6hu7T6bHCC4FxkrY/MUp+LfLF/HVbDDO8gPR0R/W1BiM9zRb3BfwQaDHTCR1ktRiVacem4WI9tpqBJKkKZpDlS9u3hy9ZQ5h1+3p6wS7ShzBBc3gLxuD8bvZxnixH4vOsrMW5w8P8KcEvwMsMxFJHXq374yIomsMxmsDXmkSkqQpC1624FE+VPYYvvNTbgS+WupLyKCvOca3G7W4MVsTC/1wzK6hWqxo1OJLFfi6j2FIysH1xCqI1JknOLVHi22GIElqo03DA/GWMgdw992pWYWLgR+XfCzMA3Y0e/necC2ybH0s9uMxsxqDsXJoMO5I8C3g7SYiKScOzwY5pRMPzEJEG2S1eDmJi0xCktRGKRK376jF0lKfY0fTgwGXORwAOCLgg81uHhgeiA9df3kcbiTTf403NBh3EHwzBWuBLlORlCfN6MzHMyxEtMEYXA8kk5AktdlR1X1bAZba7tH0ewSfczjsFyyMxLbuvXy/MRj/xjUk2ivLojJci7c3avFHTZ4uQLiLiaRcSliIKObJqj9OSvAek5AkTZO3Dw/GYNlDqM5hE/D3DodnWUSwpTnG3zdqcU9jMF5rJFO4plsfixuDcW3zQe4P+BLwelORVAAduXOGv8WfouFafDLgcpOQ1Gmiwsm7R9J3i9zGoYG4KCX+sATd+Xi0OGf37em+Mo/pRi3OAf4nbpN4KN9J8DuVCrdnI+kHxnFoWRaVsYd4HbAuBe8E5puKpIJ54pFeFt1yS3qikw7KGRFTsKMWSwM2mIQkaZrNTxXurNeju8wh7BpNfxlB5nA4pOUBH2y2+G6jFr8/VIt3l30r2ANp1OKcxmB8uPkgP0zBl/c/fmERQlIRzVn4OGd02kG54M5Uwku8P4K5JiFJmgGrjm7xQWCo1Ofe4/lw80HeALzOIfGC13hvTfDWBY+yp1GLPwbufrLCf/rwSPqXsoWRZVFpPsgrEvxKBBcDpxAOEknlUKlyHvAXnXRMPpox2RPamljY7OUHwCLTkNSJfDSjkJqtChfeOJK+VupzcC2WNeGbwBI/6RP2c+BPSHyZxJd3jaS/KWpDd26I4ysVfikSb0j71ns4yu6XVMprQvj87tG0vpOOyRkRkzQ2j8tTWISQJM2oaqXJndvqcVYZf6v9lGw0PThUi8EE9zgkJmwucBHBRQQ0avGPkfijFHyNCl//zk/427vvTs0cXmanoRrLK3B+wPnAa4HTwN+6SVIn7pzhz+bJXACtj7nNLr4HHGMakiSpQB4F7k2JewO+VQ3+ln/hO9nd6clOOcAta2P+nG5WVKqcnoKXBbwcWA0stvsk6YBaT1ZY0km/xHBGxCSMVbk0WYSQJEnFcxjw+oh9W1c2ARYx1qjF/STuSy0eiMQ/BPwgwQOtLv7pZ738+Oab0552vHk2EEuAJXthSYIllcRxkTiB4MXAiQQnkjgRSAQu8yBJ41OZ0+Rc4I875YAsRExQX19UU2KLSUiSpJLoAlYQrIj9c2mfmlJbGYMFj0KjFnuAH+//82SCxwOe3P/FjxEczr41PZ67M0XPM/5ucXP/Sz+1rVs8/T88+40lSRMSiVVYiMiv5YvpIzjZJCRJkp7WCxy3/8+zZyo4bUGSOkFHrRNRsT8mJoLrTEGSJEmSlCPnd9LBWIiYgKGBuCjB2SYhSZIkScqRY3ZujOM65WAsRExASmwzBUmSJElS3lSbnfN4hoWIcdo5EOcBF5qEJEmSJCmHVnXKgViIGG9QFbabgiRJkiQpjyI6Z0aEmyCNQ1aP5c0W38bCjSRJkiQpnx6tLmNxlqXWbB+IN9bj0GyyzawkSZIkSTl22NiDnNYJB+LN9QvIarGMxMUmIUmSJEnKs0qHPJ5hIeIFNOEDQI9JSJIkSZLyLLAQ0fGygVgC1ExCkiRJkpR3KVmI6HitxNXAApOQJEmSJOVdwJmbN0fvbB+HhYiDyOoxL+BKk5AkSZIkFUT3vEc5c7YPwkLEQTRb1IEjTUKSJEmSVBSVDlgnwkLEAdTr0Q1cYxKSJEmSpIJZNdsHYCHiAJYGa4ATTUKSJEmSVDDOiOg8kQi2mIMkSZIkqYBO2b4ujpjNA7AQ8RxDA7wdWGkSkiRJkqQCStUuzpnNA7AQ8dxAEteZgiRJkiSpqFJ1dh/PsBDxDEO1uDDglSYhSZIkSSqs1uwuWGkh4hkSbDMFSZIkSVLBb37Pn+V7bwE0+uNMKnzDTCRJkiRJRVetcGI2kn4wG+/tjIinJK7HIoQkSZIkqQRaTVbP1ntbiACy/jiJxLtNQpIkSZJUCmn21omwEAE0K1wHdJmEJEmSJKkMgtnbOaP0jyLsqMXSKnwf6HUoSpIkSZJK4vHqMhZnWRqb6Tcu/YyIKlyDRQhJkiRJUrnMb/6IFbPxxqUuRGRrYiGw0fEnSZIkSSqb1JqdxzNKXYho9nIFsNjhJ0mSJEkqnVlasLK0hYhNm2IOcLUjT5IkSZJURhHOiJhRi3/OBuAYh54kSZIkqaTO2LI25s/0m5ayENHXF1VaXOuYkyRJkiSVWFdvD2fN9JuWshCxfDF9JE5xzEmSJEmSyiyY+cczSlmIiOA6h5skSZIkqfRmYcHK0hUihgbiogRnO9okSZIkSWWXYPVMv2fpChEpsc2hJkmSJEkSACdlG+OomXzDUhUidg7EecCFjjNJkiRJkvYZG+PcmXy/UhUiKhW2O8QkSZIkSXrGvfIML1hZmkJEVo/lBG9ziEmSJEmS9K+CmV2wsjSFiGaTbZR0lxBJkiRJkg5hNUSaqTdLZUg0q8WyJnwX6HF8SZIkSZL0bNUWL81uT9+bifcqxQyBJnwAixCSJEmSJB34vrk6c+tEFL4QkQ3EEqDmsJIkSZIk6SBaM7dOROELEa3E1cACR5UkSZIkSQeWZnDnjEKvEZHVY16zxQPAkQ4rSZIkSZIOas/DFRaNjKS90/1GhZ4R0WxRxyKEJEmSJEkvpPfYYOVMvFFhCxH1enQDmx1LkiRJkiS9sGbMzOMZhS1EHN3iEuAEh5IkSZIkSS8ssBAxlfhS7NuyU5IkSZIkjUOyEDF5w4O8A2bm2RZJkiRJkgpi5db+OGy636SQhYgIrnP8SJIkSZI0IZU5Vc6e9jcpWmrD/fGLwAWOH0mSJEmSJiZmYMHKwhUiosI2h44kSZIkSROXEqum+z0KVYho9MeZwBsdOpIkSZIkTYIzIiaYV4XtQHLkSJIkSZI0KSfuqMcx0/kGhSlEZP1xUoJ3OWYkSZIkSZq8ribnTufrF6YQ0aqyFehyyEiSJEmSNAXTvE5EIQoRO2qxNIJ1jhZJkiRJkqYmmN51IgpRiOgKNgO9DhdJkiRJkqZsNcS0rb+Y+4UdszWxsNnLA8Bix4okSZIkSVMXVU7d/Zl0/3S8du5nRIzN5UosQkiSJEmS1DaV1vQ9npHrQsSmTTEnJTY5RCRJkiRJap8ICxEHtGgP/cAxDhFJkiRJktonYSHiefr6oprgWoeHJEmSJEntFfCKTZtiznS8dm4LESsW8R7gZIeHJEmSJEltN2fh45wxHS+c20JEC7Y4LiRJkiRJmh6V6vQ8npHLQsTwYLwpwdkOC0mSJEmSpkmLVdPxsrksRESwzREhSZIkSdI0qkzPjIiUtxx2DsR5lcSfOyIkSZIkSZpWUR1jSfa59Eg7XzR3MyIqiR2OBUmSJEmSpl0a62r/sgi5KkRk9VgO/IpjQZIkSZKk6Zdo/+MZuSpEjLW4nhzv9CFJkiRJUs60fcHK3NzUZ7VYluB9jgFJkiRJkmZMeWdEtIItQI9jQJIkSZKkGbNs58Y4rp0vmItCRDYQSyIxYP9LkiRJkjSzqs32zorIRSGilbgaWGD3S5IkSZI049q6TkTHFyK2rI35AVfa75IkSZIkzbyIks2ImNtDHTjSrpckSZIkaVacm2XRtvpBRxci6vXoTolr7HNJkiRJkmbNorEHOa1dL9bRhYijW1wCnGCfS5IkSZI0eyptfDyjgwsRkQI+YHdLkiRJkjTLUvsWrOzYQsTwIO8AVtrbkiRJkiTNrqAEMyIiuM6uliRJkiSpI5y5aVPMaccLdWQhYrg/fhG4wH6WJEmSJKkj9Cx+grPa8UIdWYiICtvsY0mSJEmSOuhevU0LVnZcIaLRH2cCb7SLJUmSJEnqKG1ZsLLjChFRYTuQ7F9JkiRJkjpHCla35XU6qVFZf5zUrHAf0GUXS5IkSZLUUWJvN0d86FPpJ1N5kY6aEdGqshWLEJIkSZIkdaLU9cTUH8/omELEjlosjWCd/SpJkiRJUmdK1akvWNkxhYiuYDPQa7dKkiRJktShWgWZEZGtiYWRuMwelSRJkiSpg6WCzIgYm8uVwGJ7VJIkSZKkjnZ0Vo8TpvICs16IyNbH3JTYZF9KkiRJktT5xlpTmxUx64WIZjf9wDF2pSRJkiRJnS+lqa0TMauFiL6+qLJvkUpJkiRJkpQHkeMZEcsX8mvAyfaiJEmSJEm5cW5fX1Qn+82z+2hGYov9J0mSJElSrixYuZAVk/3mWStEDNXizcAr7D9JkiRJkvKlyeQfz5i1QkQFttl1kiRJkiTlT6rkrBDRqMfqgNfYdZIkSZIk5U9E3mZENNlht0mSJEmSlFtnZPWYN5lvnPFCxFAtVpB4q30mSZIkSVJudTWbk1v3ccYLEQmuZ7Z365AkSZIkSVMSk1ywckYLAjs3xPHAe+0uSZIkSZJyLrFqMt82o4WISpUtQI+9JUmSJElSvqVJzohIM3WA29fFEV09/AOwwO6SJEmSJCn3olrhqGwk/fNEvmnGZkR0zeFqLEJIkiRJklQUqRUTfzxjRgoRW9bGfIIr7CNJkiRJkoqjFRN/PGNGChG9c7kMONIukiRJkiSpOFLqwBkR9Xp0E7zf7pEkSZIkqWA6cUbE0iZrgRPsHUmSJEmSCudFQ7V4yUS+YZoLEZGo8AH7RZIkSZKkYqpMcBvPaS1EDNX4VYKX2S2SJEmSJBVTRAcVIhJssUskSZIkSSqu1CkzIoZq8TrgArtEkiRJkqTiisTZWRZd4/36aStEpMQ2u0OSJEmSpMKbx0OcPt4vnpZCRKM/ziT4JftCkiRJkqTia05gnYjpmRFRYQeQ7ApJkiRJkkph1Xi/sO2FiKw/TgLeZR9IkiRJklQOwSzOiGhW2AZU7QZJkiRJksohwcrsilgwnq9tayFiRy2WAuvsAkmSJEmSSqW69wnOHs8XtrUQUU1cC8w1f0mSJEmSyqUyzscz2laIyNbEQoLLjF6SJEmSpBJK41uwsm2FiGYvVwGLTF6SJEmSpBIa5xaebdliM1sfc5tdfA84xuQlSZIkSSqnJhx902h6+FBf05YZEc1u+rEIIUmSJElSqXWNY1bElAsRfX1RJdhs3JIkSZIkldw41omYciFi+UJ+DTjZtCVJkiRJKrdgBmZEkNhi1JIkSZIkCVgFccj1KKdUiBiqxZuBV5izJEmSJEkClgxdduinJqZUiKjANjOWJEmSJElPqbQO/XjGpAsRjXqsDniNEUuSJEmSpKe1Dr1g5eRnRDTZYbqSJEmSJOmZIh16RkSazIsO1WJFgv9NOxa7lCRJkiRJRfLz6r+wKLs7PXmgf5xUISHB9ViEkCRJkiRJzze3uYgzDvaPEy4m7NwQxwPvNVdJkiRJknQgwcEfz5hwIaJSZQvQY6ySJEmSJOkgDrpg5YQKEdvXxRFAv3lKkiRJkqSDSYnVB/u3CRUiunt4P7DASCVJkiRJ0kEFy7M1sfBA/zTuQsSWtTE/4ArTlCRJkiRJL6Ay1su5B/yH8b7C3DlsBI4wS0mSJEmS9ELSQRasHFchol6P7gRXG6MkSZIkSRqnAy5YOa5CxNEt1gEnmKEkSZIkSRqnyc2IyLKoROJa85MkSZIkSROwLOuPY5/7ly9YiGg9xK8SvMz8JEmSJEnSRIyl58+KeOFHM4ItRidJkiRJkiYqpeevE3HIQsTwQLw+4HyjkyRJkiRJkzCxGRGR2GZmkiRJkiRpklZlWTyr9nDQQkQ2GGcBbzAzSZIkSZI0SYv4Eac+8y8OWohowg4gmZkkSZIkSZqsZuvZj2ccsBAxVI+XErzTuCRJkiRJ0lQkxlGIoMk2oGpckiRJkiRpKuI5hYjnPXqRrY+jm118H5hrXJIkSZIkaYqefKSXhbfckp6AA8yIaHVxLRYhJEmSJElSe/QsfoKznvo/zypEbKvHooC6GUmSJEmSpHaJ+NfHM55ViOhucRWwyIgkSZIkSVIbrXrqP54uRGTrY26Cq8xGkiRJkiS1UzrQjIixLgaAo41HkiRJkiS12anXXx6Hw/5CRF9fVBNsNhdJkiRJkjQNUs9ezoX9hYgVi3kv8FJzkSRJkiRJ06HFvscz/j8BX6/xlQ48DQAAACV0RVh0ZGF0ZTpjcmVhdGUAMjAyMi0wMi0yNVQwMjo0ODozMyswMDowMIQofxEAAAAldEVYdGRhdGU6bW9kaWZ5ADIwMjItMDItMjVUMDI6NDg6MzMrMDA6MDD1dcetAAAAAElFTkSuQmCC;" vertex="1" parent="Pd8pBgte8W38DO9UlrW--8">
          <mxGeometry x="14.01" y="195" width="61.99" height="60" as="geometry" />
        </mxCell>
        <mxCell id="Pd8pBgte8W38DO9UlrW--11" value="CI Github Actions" style="text;html=1;align=center;verticalAlign=middle;resizable=0;points=[];autosize=1;strokeColor=none;fillColor=none;" vertex="1" parent="Pd8pBgte8W38DO9UlrW--8">
          <mxGeometry x="66" y="75" width="120" height="30" as="geometry" />
        </mxCell>
        <mxCell id="Pd8pBgte8W38DO9UlrW--12" value="Test environment" style="text;html=1;align=center;verticalAlign=middle;resizable=0;points=[];autosize=1;strokeColor=none;fillColor=none;" vertex="1" parent="Pd8pBgte8W38DO9UlrW--8">
          <mxGeometry x="76" y="140" width="110" height="30" as="geometry" />
        </mxCell>
        <mxCell id="Pd8pBgte8W38DO9UlrW--13" value="" style="image;sketch=0;aspect=fixed;html=1;points=[];align=center;fontSize=12;image=img/lib/mscae/Kubernetes.svg;" vertex="1" parent="Pd8pBgte8W38DO9UlrW--8">
          <mxGeometry x="11" y="125" width="62.5" height="60" as="geometry" />
        </mxCell>
        <mxCell id="Pd8pBgte8W38DO9UlrW--14" value="Test definition" style="text;html=1;align=center;verticalAlign=middle;resizable=0;points=[];autosize=1;strokeColor=none;fillColor=none;" vertex="1" parent="Pd8pBgte8W38DO9UlrW--8">
          <mxGeometry x="76" y="210" width="100" height="30" as="geometry" />
        </mxCell>
        <mxCell id="Pd8pBgte8W38DO9UlrW--15" value="Host" style="swimlane;whiteSpace=wrap;html=1;fillColor=#fff2cc;strokeColor=#d6b656;" vertex="1" parent="1">
          <mxGeometry x="710" y="200" width="200" height="280" as="geometry" />
        </mxCell>
        <mxCell id="Pd8pBgte8W38DO9UlrW--16" value="" style="image;sketch=0;aspect=fixed;html=1;points=[];align=center;fontSize=12;image=img/lib/mscae/Kubernetes.svg;" vertex="1" parent="Pd8pBgte8W38DO9UlrW--15">
          <mxGeometry x="13.75" y="125" width="62.5" height="60" as="geometry" />
        </mxCell>
        <mxCell id="Pd8pBgte8W38DO9UlrW--17" value="" style="html=1;verticalLabelPosition=bottom;align=center;labelBackgroundColor=#ffffff;verticalAlign=top;strokeWidth=2;strokeColor=#0080F0;shadow=0;dashed=0;shape=mxgraph.ios7.icons.cloud;" vertex="1" parent="Pd8pBgte8W38DO9UlrW--15">
          <mxGeometry x="13.5" y="65" width="71.5" height="50" as="geometry" />
        </mxCell>
        <mxCell id="Pd8pBgte8W38DO9UlrW--18" value="Orchestration" style="text;html=1;align=center;verticalAlign=middle;resizable=0;points=[];autosize=1;strokeColor=none;fillColor=none;" vertex="1" parent="Pd8pBgte8W38DO9UlrW--15">
          <mxGeometry x="80" y="140" width="100" height="30" as="geometry" />
        </mxCell>
        <mxCell id="Pd8pBgte8W38DO9UlrW--19" value="Hosting services" style="text;html=1;align=center;verticalAlign=middle;resizable=0;points=[];autosize=1;strokeColor=none;fillColor=none;" vertex="1" parent="Pd8pBgte8W38DO9UlrW--15">
          <mxGeometry x="85" y="75" width="110" height="30" as="geometry" />
        </mxCell>
        <mxCell id="Pd8pBgte8W38DO9UlrW--20" value="" style="shape=image;verticalLabelPosition=bottom;labelBackgroundColor=default;verticalAlign=top;aspect=fixed;imageAspect=0;image=data:image/png,iVBORw0KGgoAAAANSUhEUgAAAMgAAADICAIAAAAiOjnJAAAlvUlEQVR4nOydd1xT19vAT3YgCSEM2VtEEVABERXFvWqXVbHaOuqve7nbam1tq7bWLldbq9bVum1t3VtxsEQFBFQ2yAwJISRkJ+9HLy9SNDfJzT33JprvX7fk5Jyn8uXec895zjl0g8EAHDjAGyrZATh4MnGI5QAKDrEcQMEhlgMoOMRyAAWHWA6g4BDLARQcYjmAAp3sABwQQVNT0/Xr1wvyC8rKymtrayUSiVqtBgCw2WyBQODr6xMaGtYzKrJPnz5cLheXFimOkfcnGJVKdfbsuZMnT+bfyjfnF02n02Jj48aMHT1w4EA63aqbjkOsJxOVSvXXwb/379/X3CzF8PUuXbpMe2Xa2LFjaDQatgAcYj2BpKdnrF2ztr6+3sp6QkJD5s+f16NHDwzfdYj1RKFWq3/++ZfD/x7Gq0IqlTp9xvRp06ZSqZa95znEenKQSCRLP11aUFCIe80DkwYuWbKYxWKZ/xWHWE8IIpFowfyFlZWVkOqPiYlZ+fUKJycnM8s7xHoSkMlkH34wp7y8HGorsbGxX3+z0sy3RccAqd2j1+uXf7UCtlUAgOvXr69ds87Mwg6x7J5du3ZnZWUR09bRo0fPnDlrTkmHWPZNaWnpzh07iWxx3dp1YrHYZDGHWPbN+vUbtFotkS3KZLLNmzabLOYQy47JzMzMuZlDfLunTp0uL69AL+MQy47Zu2cfKe0aDIZ9e0007RDLXqmsrLp58yZZrZ8/f14mk6EUcIhlr5w17+0MEmq1+tKlSygFHGLZK+np6eQGkHY1DeVTh1h2iVQqLSkpITeGmzdzUKZtHGLZJUVFxaTPxcnl8urqamOfOsSySyorTLztEwPKnLcj5x1odCqtTqM36GhUOpvBQWbfLE0/IhihUEh2CPcRNhgN46kQS6VpbWipapBWiuW1Ynlds0LYohC3KJsUmhaFRm4w6JFiQ7qnvBQ39/6DpvTWomUznNgcDofH5wlc+e7uAk8Pd29vrwBf70A/nyBnJ3xWHGCmBfVVnzCkLS3GPnoyxZKrmstF+RWNBffEd+5JiprkdZbWYDAYWhWyVoVM2Fj76Kee7t7Bgd3Cgnt0DY3sHh7jwhPgFLi56IidxjGGXq839tGTI5ZCLbtTl3W3Pru4/nptcynUtoSiOqGoLutGKvKffj7BUT3iYyL79o7ux+O6Qm0agWbdEhq8oFAoxj6yifisQSSryam6kHcvtVSYpzfoSImhura8urb85LkDFAqlW1h0QmxyYvzQAL9QeC1yOBx4lZsPl2s0DHsVq1nRmF1+6lr5ySrxHbJjeYjBYLhTnHunOHfnvnWB/mGDEkcPSXrGy9MP94Y8PTxwrxMDnh6exj6yM7F0eu2t6stXi/8trE1v73TbJpX3Sv488POfB36O6hE/euiE/gnDmQwLFiOgExAYiFdV1uAfEGDsI7sRq0XZdKXo78tFfzUrGsmOxTJuFV67VXiNt4M/auiEcSNSPD28ra8zPLwrHqFZBYvFCgy0Z7GELffOFvyRUXpMq1eTHQt2WmTNBw9v/fvojkGJoyaMnxUS1M2a2gQCQVBQUAWpw6TR0VEo66RtWqwGaeXxvC3ZFadt/KlnPnq97uLV4xevHu8XN2TKhLfCgrtjrqpfYj9yxeqXmIjyqY2KJVU0HsnZmFF6jKwXPdhkZF/IyL7Qv+/wVye/5+8bgqGGYcOGmcy2gweVSk1OHoxSwObEUmuV5wp3nynYodIqyI4FOmlZZzOyL4wZ9tLUie+48CwbAAsP79q9e/fbt29Diw6NAQMGuLu7oxSwrRkxsbxu+eGUo7kbnwarEPR63bEz+96a/9zxM/tRBrIfy6DBg6DFZYKUlMnoBWxLLDeOtyfPn+woSEAml/6ydcVHX86sqCo28ys5N3MIXvjVTmJiYmTPSPQytiCWPlf8q0Td9g86JeEjOpVBdkjkcKcod+6SKfsObdLpTPQsc27mLF68RKlUEhXaQxgMxtvvvGWyGMlitWgqD1U8c6l+/qW6BchPPF0Ch/eYRm5UJKLVaf/Yv+HU+b9QypBoFQDgtdmv+fubfqqQKVZR84E9pYnVrakAgEr56RLpP8jPR0XNdOP4kBgYubwwbvrYEZOMfUquVYmJ/SZNmmhOSXLE0uqVF2o/PFUzQ61vbv/h5fpFGn0rAIBJZyN5UU8hL4yb/tq0ecY+JdeqkJCQxUsWo2Q0dIQEsWSa6r8rRuVLOi/TlmnvZTeuQq5jAgZH+g4gPjZysWWr/AP8v129yvysCqLFqlNk7C9LalBmP/bTG+I1Taq7yPXE+Hl0KpPY6MjElq2KiIj46acf3dzczP8KoWIVNe8/VDG2VddgrIDeoLlUPx+59uT5j4x8lcDoyMSWrRozZsxPP/0oEFiWJUucWDdEa07VzNIZVOjFquTniqVt70Qjo6a7PwW9eJu1ylXg+vmyzxcuWsBkWfzoIEisRmVeWsNSAMxaCne5/iONXgYAYNBYE+Pnw4+OTOBZxXgAtqicnNhTp768Y8f2wVgH9wkSy4MdPdJ3CwWYtRu9XFtzrfEb5DrKPynKLwlydKQBzyomk7l8xVe7dv85ffp0Hx8L7vqBQYGvv/H67j27Z/9vtjUJ0HAnofV6fUNjjXcXfwBAOH8SAOB0zWwDMJ2wcFO0PoL/ihurOwDgpbi5d+qyNDoTz1C7A6pVXy3/Mj4+HgAwY+b0GTOnFxUVXbuWXVhQWFJSIhQKO47s0+l0Ly+vsK5hkZGRffvGBwcHY/0f+g9wxfpl64qrmWeWL/4tJCjCIrf0QJNaN++FoGP373Y8v5E9ZxzL/Q1qqARDjFXthD8Audbr9c3NUrVKBSiAzWbzeDwYq3MhPgo371x98tzBFlnzpyvfKKtoW/IQzp9k5jOxuvXi3eb9yPWIyFc8uPgvSSALgq3qBJVKFQhcvby9vLy8+Hw+pDXfsMTae2jTvyf+RK4xu3Wl4WO1vuVBL575xPTi4VnFZrOXL/8K3SrCgCLWmQuH/ty/oeNPsLnVqq3LEq5Ernv6DYjxR0tZtAugWrVy5Yq4+DjrAsQN/MXKuZWxYctXj/4cm1u54p9FynzkekLcXAYNtxVUxAPbql69e1kXIJ7gLFZ1bcWqtQt1+sf3zTG4pQfa1Pq2X4Y712d01Ex8AyaMp8oqnMVqVciXf/+hTI528iIGt2paL99p3oNcD+8xzZNndC2bzfK0WYWzWGs2flZda/pEFwxuXW1YrNbd95VOY06yt178U2gVnmL9c2xnWpa5+/ha6lartj6zcTly3cM3sXfAUDxCJoKn0yrcxCouK9y+d61FX7HUrVzxr43KPOR6QtyHTBrbupCJ4Km1Ch+xlMrW79Z/rNVqLP2iRW4ZgC61bi4yjS3geI+OnmV14HAh0Sq1mpwEm47gINa23T/V1GFc622RW7WKtNuSXcj1sB5TvVyCsIYMHRKt2rlv/Y+/LsVQM75YK1ZufuaxM1Yt9LbIrasNS1Q6yf1ePJVhs2Px5Fq1/5/NVzJOX04/haF+HLFKLLVauX7zl9YHYb5bCp0wQ9g2+trdJ6FP4HDrW8cX0q1Crn/bsUomQxv3gY1VYu37Z0tdwz1c4jDfrVtNmxqVbWepTYj7kEU39/hrArARqwAAkmbR1t0/YmgIL7CLda+2/K8j23AMxUy3DEB34X4vXg8AcHXuMib6NRxjsAbbsQrhzMVDd4rzMDSHC9jF+v2P7zC8CaJjplv1ioxCSVvqxNDuL3vz8clNswZbswrZEHXjtq/J2loMo1jXc69eu3kZ72CA+W5dbfhUqWsCANCo9EnxC2BEYj42aBVCcVnBhcvHMLRrPVjE0uv123ZBfH6b45ZS15gh/AK57uYdHxc0El486NisVQg79q1Ta0jI6sYi1qW0E+VVRRCCeYg5buU3bWlQ3ECuX4z7gEV3hhrSY7FxqwAAInH9sdMkbPxnsVg6nXbXwV/gBPMfTLplAPqLdXMMD3rxfCfPcTH/IyCqjti+VQgHD/+uVBG9kZ3FYqWmnaitr4ITTGdMutWgvFbYtAO5To6Y7MOHeBhEJ+zFKgBAs7TpOOE3LcvE0uv1B/79HVowj8GkW2nCpUqdGOnFT+67kJio7MgqhEPHd6o1hG5mbplY126kVlXDPf/oUdDdUurE6Q2fI9ddvfrEB4+GHY/dWQUAaJI0nr98BMMXMUOx6ATYJStezyvIghmPUXhcfvv6RGR/kQ7rE6kTg897OcU/2Mdb9NXhyUqN3ERtbEGgW6SPa6gnz1/g7MVlu7LoHA6Lz2G5AABkMunVrLN1DVUVVcUlZYViycPjHu3RKoQA39D13x40c3cr67FArLLKux9+YmKvXKiguOXJjp0UcgG5jV24vedg9k+Pfp1KoYZ7xUX7D+ru08+izIja+qrc/MyM6xcC/cJmvjzHWDFbtgrhi49/6RPd38pKzMQCsX7ZuvK4dYkM1oPiVrL3mijB/x4c5KT79vj0GsnDQ949uH4Dw1/sFzqOx7ZghyeLsH2rAACJ8cMWz/3B+nrMwVyxlMrWme+NbFWYeMQQgDG3WDTBtNCbTnQPAEBJQ85Pp98EAPi6ho2Nnh0TMIRKgbjm2y6suv9+Q6P9vvakwJWII+loy5YtM6dcatqJS+kn4cdjGrVadSXjdGzMAOQfyJ3d05XZtbTlsNbQqtQ3hfCeQfaL1+hUSeETJics9OGHQu1Y2ItVyOwh30UQGdEHrwpRMPfvmOB3CnSMvScWSnbUKTKRHz7f592+IWMokPdpsiOrEAj7PZr17y5uEubmZ8IPxgKMuEXNEn5NWAx2ZxVyPGdZ5V3cq30Us8S6mnXWolEJYnjUrWcCDgz3/ZWY1u3RKoQrhGQtmyVWWuYZ+JFgoZNbQdxRznQvAtq1X6uQ2wS8ytsxLVaLTJp/5zoBoWADcatRVEdYi3ZtFQDgXk1ZTS30EzRN7+h3I/eKpcedEUxC3BAPdywHLcvl8uLiksrKSmFDg1wu12i0dAadw+F08fQMCAzs2jWMy+V2+oq9W4VwLefycz5wF8+ZFis79yrUCKykb5/B783+zKKvVFdXnz1zLiMj/c6duyh9RwqFEh4e3q9fwvDhwwMenKr9ZFiFJAA/NwbuSVimB0hnvTdK1GR0y39yCQoIX/3FDjbL3IU62dey9+7dm51t8ZO9V+9eAwYM2Pr71ifAKgAAi8ne9VsqgwHx4A8Td6zq2gqbtcqJ7fzJnO/NtKqsrHzDhg03rt/A1lbOzZycmznYvmtrVgEAVGplUemtyIhYeE2YECv/9uMPvbEF/vfqIl/vQJPF9Hr9nt17tm/fodVqCYnrP9igVQj5t2+QKdad4lx4bVtD76jEkUNeMFlMJpOtWL4iM5OcVB+btQoAUHj3JtT6TYpF2opHFOg0+puzPjFZTCQSLVr4UXm56b3gYGDLVgEAikvzodaPNo6lUivv1ZRBbR4bY0dM9vM28bYskUjmz1vgsMoYEqm4UVQPr340sSqqimxwBIvJYE16fjZ6GbVa/emSpVVVBC366ITtW4VQUl4Ir3I0scor4S4exMaI5Odd+e7oZTas31BYCPFfDQV7sQoAUFldAq9yNLHM2amWeJ4Z9TJ6gbSraUeOHCUqnP9gR1YBAO5VQ+znoIl1rwb6jJKldAuLDvALQSmgVCrXrLFsN1S8sC+rkElDeJWjiVUvxGfvKxwZOmg8eoEDBw4KhUKiwnkIi8VCtyrnVrpNWQUAwGtvs8eCJlZDYw28hrHRL3YIyqcKheLA/gMEhvMQCoUSGoa2DjssJJJGNescUMJokTUroC1iMCqWTC5VKole8I9OcEC4hztautWZ02daWloIjOghSqXy6BG0DYO4HJeI8BgCIzILePN1RsVqkoggNYmZqEgTB6adPEnmjq6nTploPaq7rRzN1Y64qRFSzUbFkjTbnFjhoVEonwqFjWQNMSBUPAClgA3esZqlYkg1GxWrRdYMqUnMhAV3R/n0+nXy58uvXUOLoX0tpO0A77dsVKxWhQxSk9igUCg+Xv4oBQryCwgM5/EUFqDF4OHmxWLZ1kkt8lZYXVKjk9AKJfmLnjviJujCYKCdgllaSv60ZkmJia14BvcfJxITl55vEjeBJ6SajYqlUpF/HktHeFwX9AK1tbVExWKU+noT07rvv25ZFrX9YvRRqMF7q20rcWJzUD41GAzNzeR3ClUqlVxuW3d6sjB6x6JSqFBzoi2Fx+WjfKrRaGwkEUOpVHI4Rv8G1FqlTm9Df7E0KoNJh9LtMypWyouvp7z4Oowmn2b2ZH6TVXaC7CgekhQ+ISVhEYya4e6ZQRhMJpNGs4kJEzYb7Qag0tjWZAadxoBU8xMiFgDA1dWV7BAAi8VCeQ7ef1Ca2sOSYGgU0wtLsWG03iLpwRzxOkitYoBJdXku8F+UAr6+PiIRybMF3t4mFmTLVBKiYjELBg1tBMcajIql0cvqFeQsbjGGRi9nUI3eD0JDQ/PybhEbUWfCwsLQC4hk1UTFYhZsBtr91RqMPgpZVPKfLJ1oUqFt7BTZsyeBsRiLIRLlU6lCpNLaVh/LiXix2DRY+8BiplGFtsgxLi6WsL2mjREfj5a/UCW+TWAsZsFhw7p9GBXLiQ5rsB8zda1ouwoKBIKYGDLTB0JDQwMCAlAKlIvIn83sBI8tgFSzUbE4dCwbA0GluvUieoHRY6AfS4HCqNEmjrYrqrtGVCzmwmObWO+EGeN9LJornQLrAYwNqaYMvZs1dOgQNzdynuDOzs7jxo5DKdCqbilrJPnd4hEoAmdYGyCijWO5MOHuzYWBkpZDKJ8ymcwpU1IIDOchEya8yOGi/R3eundZb9ARGJFpXJzcyBkgdWGgLbQihbvNe9ELPPf8c37+fkSF04abm1uKKaEzy44TFY65eHDR8tusBE0sAbMbvIax0aS+XdOKtsMgg8GYN3cuwa+HH875wNkZ7XxXsbzubr3NdbAsOlDIUtDEcmOhpQKTRY54PXqB3n16T06ZRFQ4YOy4sUlJSehlUu8eIOs0eRS8XEzvLoYZdLF6wGsYG67McOQkJnRmz54dhzqkhBcREREffPA+eplWtfRK0d8EBGMpvq5d4VWOLlZPqhm73xIDneKc6LlsSmhmAGeYycI0Gu3zzz/rFgH3Ue7v779y5Qom00TW2pmCP2xt7hnBXwDx3wdNLDqV7cZCm6MgjFDec1PDrsd5LKRR2n6LOr2JfR85HM63365Cn2OxhuCQ4B9/+sFVYGLkWiyvvXB7D6QYrIHv5Mlzgjg0YyJtposTyWss+cywZwMOjfXfzWO0DWor1LL9177//uT/TLrF4/G++2710GFDcY+qX7+EtWvXmDNmtj/rB42O0MOYzSTEE22RpvWYeNL5OPUvkGyFGoEx6BSnWI+FsW5zaNT21A5DZunxQzfWtyjFAIDTBTvHRM1Cr4TFYn366ZJevWI2/rpRocBheQiDwZg1a+akyZOoVNOpbFllJ25VX7K+URgEe0RDrd+UWM4DoDZvjBDuM0neq10YD9+HayTF+zJXlwgf7ol9PHdzd++EYA/TSQ3PPvtsQkLCr79uTL2Yak1UCQkJ77z7NvqEYDsiWc2+rO+saQ4qXbv0hlq/6QMEthdFyLTE7Wfkwggd5L06mDum/SdKjfxozqbUu/sfHbkWOHstGruda/YUfVFR0Z7dey5duqzTWTAITqFQEvsnpqRMjo42969crVX+eOqNe01EHOCGATaDs2rSKSoFYjK3abHO1b5bKNkGL4J2aBR2rPv8WPd5dOrDtPGsshOHbqyTKoymhoZ16fXesPUWTU00NUkuXriQlpael5enUqmMFWMymZGRkYn9E4cMSfb0tCDXQ6fXbUn9JK/aqrsjVKL9B72RvBpqE6bFKpb+dbL6VahBPDgRbsxgr+9cmA8nkWqbS/dlri5uMH2WRO+AYbMGLcdw6rNOp6uoqKisrBIKhS1SqU6vp1KpPB7Pw8MjICAgODiIwcAylbYrfWVaCVoWNemkJHyUFP4i1CZMD1MFcoZTKQy9AdZqOB4jaJDXauQsZwSlRn48d8uFO3vNnLUta8yVKhpdnbtY2jSNRgt9gKVfRKFV3WLOHwO59PSF3nU2/VfOpPF9nQbCaJtGYcW7fzQ1NLujVdnlp5cfnnLu9i4zreI7eXww4mcMVkHCmcn7YMTPnjyzOvikECCIEHCgHxdqQiw90Cp1TWEupg8XsZRAzqiXQ7P6dfmMTm07ZamuuXztmfe2XVnarDB3E1HEqi7/P+d14cpRIYEnYnZE3CQ8faFt3sbV2dOW3eodiP/A3qOYEIsK6GyaIMzlBQrA7Q2CxwgY47/72cC/+cy2NS0qTes/N9Z/c+yVIktSADpZdfjk7h9+XjJ3yZSsGyT0mnfuW79u0xd7/96E/Kctu9UnaDgBrdCWLVtmshCDyqlTZDZrrN1vnkphxrrPHeW304P9cNj3RuW5jRcXFNSkWTT//6hVm3asQo5pSb16XNRUHxkRy2TCWjT3KKHB3U+eO3gjL41KpUX1iENe6XsFDL1VfblVLSUsDJMEufcc2RP6q5i5Yj24ddHQszdNEsAZPj7gQFeXl2iUtletBmnltstLTxfssHSO1phV7ZSU3z6b+g/HmRcSFAEpN0sPdAWS7TdEP3R1eREACseZByggNz8zryDLlt0a1XN6kBlDytZjergBQatXbisKU+mxLOTl0v0Hen3z4BfQhlqrOHFr27nCXRi2XjFpVTveXv4bv/+XYvkwBDo6g7qoeX+2aLVEXQQAGOG7OYL/MrLx0/sfTaypqwAATJv4bvuWKpJW4doz7whbyDnYpyN0GnPFi4edWWj79uCFuf/odCo7gm/xKcJUCiPWfd7UsOsdrcqpurD88JTT+duhWgUAGDN8EmKVQivMFC5HPLCGZnVphvCrHcU9zta+0V7blfrFKl3z/Q4DnfHmjI+RH/55YIMN9rf6BA4nxioL7ljIQuRdpX3Mr9rfechg7x8ErIc7ugqlVfuvfV9Ym255nMBSqxgM5rb1p3hcVwBAduN36cLPAQCe7D6hvGf9nYd0cYqjmrcfht6gaVBcr5KfL5MdESofP0AVI3h7kHfbtOA3axZczTyDXNvafWvuqN9CPQlaemmBWPd/l5UvVMpPmyzGofsO7PJ1OH9i+0/UWuWp/B1nC/7Q6jHmkFhkFQBgaNL4uW8vBwAYgG5ncXSL5j8bZdMpzu6sSHd2tAsjmMvwY9M8GFQnKoWpN2i1erlC1yjT1Eg1pSJVfqMyT2cwkRZBAbTJIZc92Pd/Z0JR3bsLX1Sq2pbS245bge6RC8f8TlhzlolVKTt7uOo5lAJUQI9xe7ev52Imldv+w7x7lw5c+0Esx75HqKVWAQBWf7Ejouv933R5y/Gj9yZibtpMvJ0SXwo+c98xAA78+/uOvQ8PirIRt2YM/CI+mLgFvZZ1bAO5wz1YRu+lfs6DUkLTB3qtbLeqseXer+fn/XZxIcFWhQZ3R6wCANySbMLctPnUKdJvS/5Erl8Y96q/78NJT1vob7lxfPoEEjF81Y7Fb0xxHo/ZWdCZ7j3S9/cXgk60r7/Q6FTHcjevODo1vwZttZZJMFgFABg7vG2VjlRdUSkz/ezGhasNn6p099+a6R168QikuzWy53QaldDlCxaLFebyvBvr4UAIBdB6ub03LfRGN/7DFZu37l1ZceTl43mbtdZl5WKzytmJmzywbbV7vmSLARC07kqhE2YIv0Cue0X1S0oc1fFTEt1yde6SGPoMMW21Y7FYFEBN8PgUufZxHpgScjXJaxWT1rYJu0hW89uFhRsvzhfJrD2SDptVAIBhg8azWU4PBpxUBZLtVoZhEbeatgiVN5Hr2a8scGL/ZxUrWW6NjZ5NpxG9ATaWwcMwl+dCuM+M8N00Ieik+/9Pzmh06hN5W1cceTkPjyxvzFYhZ9wjFyXSQ0odrNOtHosB6C7WzUHuke6CLlMmvNmpAPFuefIC+hF+u8K+ue24gH0R/KnISxAAoKAm7eujU4/mbtTojCZkmo81VkX1iA/wa8uvutVERLe9E/WKrELJTuT62dHTAvw7bx5JsFsv9HmP4N4VgrXTHWJ53abUj345P1fYgk9evDVW3Td+RFu3XaS8VatIwyUkS0lrWKrUiR/04ulvzfjk0QKEuRXuFRcTkAyjZpNYJdb5wt0rDk/JrTKxH5r5WGmVgO+eGN+2TpqU2xWCUidKb2ib2o+OjE8eMPbRMgS4RaXQJsbNxbdOC1q35st6g16tw+0sJyutuv9SPXQCnc4AAKj1LXekZK4/LpBsbVBcR65fmzbfyekxW2fBdmtI9xRfAcTdGdCxSqwh3VP8cFr/b71VVCp19LAJyPVdyR6NnszzFg1A396LF7h6TH3p7ccWg+eWwNlrXLTp3VPgYZVYNCp9WuIS65enWW8VAKBvn8Ge7j7INTGj7eg0KLMLmtqWzY0fNSUoIPyxxSC5NaXfRywG2pZdsLG28x7gFjGy53RrasDFqo6jDDWtV0WqfGtCwos04ecKrejBciD6WzMf04tHwN2txLBnI+Gvw0EHhyS4sdGz/d0wnnaMl1XeXv59ohORaxK77Z1Q6cTpwraTL3t2jx2aZHQ8CUe33Dm+L8XNwfZdHMFBLBqVPnPAlxiOvcPLqk45fVamUONLgWR7+8kxs6bOc3bmGiuJi1tUCm1m0pfwDjKxIBJcavHiB02Mn2/RV3C0isFgjkx+HrkukGzXG2xq2yDDg1687r4ufPdpE99BKWq9W+N7vRnsAXd/IjPBLR+8f9iz5k8d4GgVACCp3ygkU9QAdPkS4nLZzESovJnf1BbVuBEpIUFo3QZr3Ir2GzSCkBU45oDnQoPJfRcFmNHZwteq+7+tkW3d9oqWU50yRW2E9IZlCq0QWdSP0otHwOaWJ9f/1QGfUQDJpwm1g6dYTDrr9cGr0I9nwd0q4nP6MKDSS9IaliLXPbr1Hj4YLQsXg1tODO4bQ75zYvLwC9lacF4aJeB4v5682liSBu5WkZXTh4HC5j9qFRnI9cyX53A4JiQw3y0qhToraYU3PxjvkK0C/6N7QzyiZgxY9ug9GYZVZOX0YcKQWjtH/6AXz3dxe2XSuya/YKZbKQkf9/DtByFgq4ByJnTvwGEvxc/r+BMYVpGb04eBRlXuLXGbKGOHTwoLNn0+g0m3xkW/PqCriQcrKcA6bDw5YlL7XBUkq8jN6cNGhvDLVm3Dg5lN2luzlpiz/B/FreSIlLExsyGHjBFz927AQLhXrFqnFMtqIFkV1SN+wvgZyPXFujlEbpSKGZ1BpdAJQ3n37zEebl6NovrSctPHrj52P4jeAUNSEh6zsMVGsGxdIQZalGIeu20/dBytAgAsen9VUuJoJKdvT5nNdTJQmBB0GtmOWtoieXvB8y2yZnO+1XF9okwpcWa5YNgdkzCgRwbJKhvJ6cPGxbo5eqAFALjwXF+Z/J6Z3+r4TOSyXW3ZKiLEQiituLNpx7c4Vmg7OX0YEKny80QbkevRQ1/qGmruvkJ/HtiQV5AFMzTcIEis0KCID99YRqPhk9VvUzl92MhsXC7X1iH/L2/P/MS8Tbwos19ZEB3Zl4DwrIe42+nw5Oc/W7DO2cno9L752FpOHwbUeunV+sXIdXhY1KihE9DLM5msRe+ven7sK4REhwOEPqf7xPT/dtl27y7Wnhhrgzl9GLgr3Vvd2rYGc3rKBy48o+druLl6rlyyudPSahuH6A5goH/Y91/92Tu6P+YabDOnDxuptXORDfR5XP70lA8eWyaia8wPy3d16wr3TCXcIeHNgsflL1u0YcqEN7HtDmqzOX0YEKsLc8S/INcjkl/oFtY5lWr86JdXLt3iJrDgwBUbgZxXViqVOvWlt7/8+FeBq4dFX7TtnD4sZDWulGtq2nrxs5a075jK5fA//vC7N6Z/xKBjOXaFdMgcC+kV1W/t1/vbh6PMwcZz+jCg0bdcaWjL0AoL6TFm+EQAQO+oxHXf7BuQMILs6LADfeTdHM5fPrJ552pzBqC/Xba9e3gvwvbpI4znA4/5c5IBADK5NO3auZHJ+B8FQjA2IRYAoEnSuGnn6svpJ1HKhARFrFm5F7k+UjWhQoZW2L4QMCNSQtPbT7x+ArCVaQGBq8ei91ctW/Szr3eQsTLtoww2ntOHAa1Baf1u4TaFrYiFENtrwLpVB2ZNncdx7pxg6ezEHfL/u2vYfE6fBTCp/AFdVkwLu+HOIuLACMKwlUdhJ1paJPv+3XL89D61pm3DrfGjprzxYGNPnUG1raibXWRfoUOlMHq6vtbXY7ET3bJXY7vARsVCEDcJDx7eevL8QbVateHbv5Ad1e427z1d8xrZoVkFlcLowX81zmMhjxFIdiywsGmxEJql4ozrF0YNaZtN+6t8BFk7qlkPg8qNdJ3V2+19LsOP7FjgYgdidUSsKtxdGk92FFhwYYREC97s4TqdRSPoNBtysTOxAAC1remFku3FLX/ZRbYMlcIM5Y2PdJ3pzxlKsbFXJajYn1gIGr28RPp3kfRglfyc4UE2pk1BAVRf56Rw/uSuvBdZNKNpC08w9ipWO0qduFx2orzlaJX8nFpP8nmTDCrHzzk5hDcuhDveiW5/M8c4YvditaM3aOsUGdXy1OrW1HpFltagIKZdKoXhxY735Qzyd072ce5PoxB3XrAt8+SI1RG9QdOozGtQZguVOSJlnlhdqNFbdjowCjSKk4AZ7s6O9mTHdGHHe7J706kW7w32xPNkivUIepmmRqIuaVaXyjT35NqaVl2DQitU6SVqnVSjl+sMyvahfBqFSQF0BpXDorkyqXw2zY3D8OHQfLgMPz4zlM/symX4PlXdcGw8JWI5IBrHX54DKDjEcgAFh1gOoOAQywEUHGI5gIJDLAdQcIjlAAr/FwAA///QJMTtZbTgfAAAAABJRU5ErkJggg==;" vertex="1" parent="Pd8pBgte8W38DO9UlrW--15">
          <mxGeometry x="13.5" y="190" width="70" height="70" as="geometry" />
        </mxCell>
        <mxCell id="Pd8pBgte8W38DO9UlrW--21" value="Publish API" style="text;html=1;align=center;verticalAlign=middle;resizable=0;points=[];autosize=1;strokeColor=none;fillColor=none;" vertex="1" parent="Pd8pBgte8W38DO9UlrW--15">
          <mxGeometry x="80" y="210" width="90" height="30" as="geometry" />
        </mxCell>
        <mxCell id="Pd8pBgte8W38DO9UlrW--22" value="Integrate" style="swimlane;whiteSpace=wrap;html=1;fillColor=#ffe6cc;strokeColor=#d79b00;" vertex="1" parent="1">
          <mxGeometry x="490" y="200" width="215" height="280" as="geometry" />
        </mxCell>
        <mxCell id="Pd8pBgte8W38DO9UlrW--23" value="" style="image;sketch=0;aspect=fixed;html=1;points=[];align=center;fontSize=12;image=img/lib/mscae/Kubernetes.svg;" vertex="1" parent="Pd8pBgte8W38DO9UlrW--22">
          <mxGeometry x="10" y="125" width="62.5" height="60" as="geometry" />
        </mxCell>
        <mxCell id="Pd8pBgte8W38DO9UlrW--24" value="" style="dashed=0;outlineConnect=0;html=1;align=center;labelPosition=center;verticalLabelPosition=bottom;verticalAlign=top;shape=mxgraph.weblogos.github" vertex="1" parent="Pd8pBgte8W38DO9UlrW--22">
          <mxGeometry x="10" y="60" width="60" height="60" as="geometry" />
        </mxCell>
        <mxCell id="Pd8pBgte8W38DO9UlrW--25" value="CI Github Actions" style="text;html=1;align=center;verticalAlign=middle;resizable=0;points=[];autosize=1;strokeColor=none;fillColor=none;" vertex="1" parent="Pd8pBgte8W38DO9UlrW--22">
          <mxGeometry x="70" y="75" width="120" height="30" as="geometry" />
        </mxCell>
        <mxCell id="Pd8pBgte8W38DO9UlrW--26" value="" style="shape=image;verticalLabelPosition=bottom;labelBackgroundColor=default;verticalAlign=top;aspect=fixed;imageAspect=0;image=data:image/png,iVBORw0KGgoAAAANSUhEUgAABCIAAAQACAYAAAA0tfhuAAAABGdBTUEAALGPC/xhBQAAACBjSFJNAAB6JgAAgIQAAPoAAACA6AAAdTAAAOpgAAA6mAAAF3CculE8AAAABmJLR0QA/wD/AP+gvaeTAACAAElEQVR42uzdeZxeZX3///fnvmfJhCSTsO+LbEF2SAju+4pV0Y6iITHM3HMT0CEEQhIy9wzHTAKC1oCAwCwBsXQxv7Z2b63fqm3dF7DurXUNVLQqewi5z/n8/khEINss93LOuV7Px6N/VGAy1/tc97nPeec615EAAAAAAIqW+MGVkr+NJID6KhABAAAAAEhxi24tmF5LEkB9tRABAAAAgNBVev1Ncr3NXfeSBlBfRgQAAAAAQraq7J1tib4j6TBJ1S1bNftDH7fHSQaoDx7NAAAAABC01lgf1PYSQpJaOtp0BqkA9UMRAQAAACBYA73+MjOVnvm/uXQOyQD1QxEBAAAAIEh9fd4u12167iPrpvmkA9QPRQQAAACAIM15UtdIOum5/7uxIgKoKzarBAAAABCcqOSnxdLXJLXu6p9XYx143Z32K5ICao8VEQAAAACC0tXlxUQa025KCElqbdE8kgLqgyICAAAAQFDmztJy116KBtcCkgLqgyICAAAAQDCipX60TNfs7d9zsWElUC8UEQAAAACCEce6Q9KMcfyrCyRnTz2gDigiAAAAAARhsOQXyfXacf7r+0XdOobUgNqjiAAAAACQe1HZ93fphon8N3GR13gC9UARAQAAACD3qolukbT/hP6jhH0igHqgiAAAAACQa5WSv9Gkd070vzOxIgKoBzZfAQAAAJBb0UKfFXfo25KOmMR/vuXBgjqHh20bSQK1w4oIAAAAALkVT9N1mlwJIUkdh7pOJkWgtigiAAAAAORSf8nPlWnpVH5G7DyeAdQaRQQAAACA3Im6vK1gGqvBPQ8bVgI1RhEBAAAAIHfi2eqX6/lT/TnOhpVAzbFZJQAAAIBcico+N050n6T2Gvy4uNim2dFH7TGSBWqDFREAAAAAciOKvJAkGlNtSghJKsbbdDbJArVDEQEAAAAgN6r3q8+lF9byZzobVgI1RREBAAAAIBeish9prqFa/1wzNqwEaokiAgAAAEAuxIlukTSz5j+YFRFATVFEAAAAAMi8wV5fKOkP6vTjj1pT8oNIGagNiggAAAAAmXb1Yt/PXR+u55/RwqoIoGYoIgAAAABkWkubbpR0YF3/EPaJAGqGIgIAAABAZlV6/PWSLqz3n+NiRQRQKxQRAAAAADIpKvt0M93aoD9uvuRG6sDUUUQAAAAAyKQk1rWSntegP27fysU6jtSBqaOIAAAAAJA5/T1+jpve19Cbp4THM4CafJaIAAAAAECWRJG3mOkOScWG/sEJG1YCtUARAQAAACBTqpt1tUlnNPwPNi0gfaAWHyUAAAAAyIio10+IXd+UNK0Jf/yTxYfVGW2ypzgSwOSxIgIAAABAJkSRF2LXqJpTQkjStG0zdRpHApgaiggAAAAAmRDfr6WSXtLUG6giG1YCU/4cEQEAAACAtIu6/VC51jf9F2HDSmDKKCIAAAAApF5c1K2SZqfgDooVEcAUsVklAAAAgFQb6PV3yPXnKfl1kuIWzYnusUc4MsDksCICAAAAQGqtKnunXBvSdA9V7dA8jgwwhQ8REQAAAABIq9ZEGyQdmqbfycTjGcBUUEQAAAAASKVKyV9u0pIU/mpsWAlMAUUEAAAAgNRZvtw7TBpROve1Y0UEMAUUEQAAAABSZ+ajer+k41L66x0edfuhHCVgcigiAAAAAKTKQLef7tLlaf4dq8aqCGCyKCIAAAAApEYUeYsXtFFSa6pvpAoUEcCkPz9EAAAAACAt4s1aYdJZaf893SkigMkyIgAAAACQBpWL/XiL9U1JHRn4dR8uHq59o8gSjhwwMayIAAAAAJACbhbro8pGCSFJndXNOpHjBkwcRQQAAACAphvoUY+kV2fqZorHM4DJfXaIAAAAAEAzRUv8YJluyNwvbprP0QMmjiICAAAAQFPFRd0iaU7Wfm8XKyKAyWCzSgAAAABNU+n1N5nrbzP66z/1UIdm3XyzbeVIAuPHiggAAAAATREt9Fnmui3DQ2ibvVVncCSBiaGIAAAAANAUcYc+KOnwLI/B2bASmDCKCAAAAAAN19/jL5XUm4OhsGElMEEUEQAAAAAaqq/P2wum25WDPeuMFRHAhFFEAAAAAGio2Vs0KOmknAznhNWX+ByOKjB+FBEAAAAAGmag7KdKuipHQ7K2bZrHkQXGjyICAAAAQENEkReU6A5JrXkal5sWcHSB8aOIAAAAANAQ1c1aLukFuRtYwoaVwERQRAAAAACou/4eP8qkKJeDMzasBCaCIgIAAABA/W88ChqWNCOnwzs4KvuRHGVgnOcDIgAAAABQT4M9/h65XpvnMVYTVkUA40URAQAAAKBuorLv76YP5n2cZuwTAYwXRQQAAACAuolj3SzpgNwP1FkRAYwXRQQAAACAuhjs9TfIdEEgw53X1eVFjjqwdxQRAAAAAGpuZbfPdNcdAQ15xsmzdBJHHtg7iggAAAAANTetoOskHRHSmGPxeAYwHhQRAAAAAGpqoOwLXLokuIGzYSUwLhQRAAAAAGom6vI2JRoL8V7DWREBjAtFBAAAAICaSTq1RtLJIY7dpFOjsk9nFgB7RhEBAAAAoCaiss91aXXAEbTGsc5kJgB7RhEBAAAAYMqiyAtxolFJ7SHnwOMZwN5RRAAAAACYsniz3ifpRcEHwYaVwF5RRAAAAACYkqjsR0paRxKSsSIC2CuKCAAAAABTEse6WdJMkpAkPS8q+/7EAOweRQQAAACASRvo8XfL9GaSeJolzuMZwJ5QRAAAAACYlKsX+34ybSCJZ0ucxzOAPaGIAAAAADApxXZtkHQgSTybsWElsEcUEQAAAAAmrFLyV5rrQpLYBVZEAHtkRAAAAABgIqKyT48TfUvS80hj11x63rpR+zFJADtjRQQAAACACUlc60QJsbcbLVZFALv/fAAAAADA+Az0+nx3XUYSe8U+EcBuUEQAAAAAGJco8ha57pBUJI29cC0gBGDXKCIAAAAAjEt8v1ZLOpMk9s5NZ0WRt5AEsDOKCAAAAAB7FfX6CXL1k8S4Tdf9OoUYgJ1RRAAAAADYC7fYdZukaWQxfjGv8QR2iSICAAAAwB4N9OpiSa8kiQljw0pgFygiAAAAAOzWmrIfItd1JDFxzis8gV2iiAAAAACwW0XXRyXNJomJM+nk6FKfQRLAs1FEAAAAANilwR7vkuutJDFpxW1bdRYxAM9GEQEAAABgJ6vK3ummDSQx5RsuHs8Adv5cAAAAAMCztbk+LOkwkpgiY8NK4LkoIgAAAAA8S6XkL5frIpKoAV7hCezEiAAAAADA7yxf7h0zHtV/SjqONGojlg6+dtQeJAlgO1ZEAAAAAHjajMcUiRKitjddPJ4BPPszQQQAAAAAJGmg20+XazlJ1Pimi8czgGd/JogAAAAAQBR5iwoak9RKGrXlvDkDeBaKCAAAAACq3q8rJZ1NEnUxX3L25wN24MMAAAAABK5S8mNM+pakfUijPryoE9bdYf9NEgArIgAAAIDQb5HNpGFRQtT3xivh8Qzg6c8DEQAAAADhGiypW9KrSaLOEt6cAfwORQQAAAAQqGiJH+zSB0mi/txYEQH8DkUEAAAAEKi4RTdLmkMSDXFm1OVtxABQRAAAAABBGuzx8yT9IUk0zLS4U6cSA0ARAQAAAAQnWuiz3HQ7STSWi8czAIkiAgAAAAhO3KHrJR1OEg3HhpWAKCIAAACAoAx0+wsklUmi8YwVEYAkiggAAAAgGH193q6CxrgPaJqTooU+ixgQOk5AAAAAQCDmbNGApJNIonn3X0m7ziYGBP9BIAIAAAAg/wbKfqpLK0miubygBaSA0FFEAAAAADkXRV5QojsktZJG07FhJYJHEQEAAADkXPXnWibpBSSRCmxYieAZEQAAAAD51d/jRxVM35Y0gzTSoZjosGijPUASCBUrIgAAAIA8X/Cb7hAlRKpUjVURCPy8RAQAAABAPg2UfLGk15FEupixTwTCRhEBAAAA5FBU9v0lfYgkUokVEQgaRQQAAACQQ9VEH5F0AEmk0vwocu7FECwmPwAAAJAzg73+BpPeRRKp1akHdAIxIFQUEQAAAECOrFjk+7jrVpJItzjh8QyEiyICAAAAyJHp7bpO0jEkkXJsWImAUUQAAAAAOTFQ9gUuXUoS6WfOigiEiyICAAAAyIGoy9uUaExSkTTSz6Uz+vq8nSQQIooIAAAAIAeSTq2RdDJJZEbb7K06gxgQIooIAAAAIOMq3X6iS6tIIlucxzMQKIoIAAAAIMOiyAsF06ikaaSROWxYiSC1EAEAAACQXfHPdalMLyaJ7GHDSgQ794kAAAAAyKao2w+NC/qupE7SyCTf1qr9PnCb/ZYoEBIezQAAAAAyKjbdJkqILLO2bZpHDAgNRQQAAACQQYMlf5dMbyaJbEvE4xkID0UEAAAAkDFRj+/r0gaSyD5jw0oEiCICAAAAyJjYtEHSQSSRCwuIAKFhs0oAAAAgQyolf6VJn+ZaPj+SWEeuv9N+ThIIBSsiAAAAgIyIyj7dpGFRQuRKsYV9IhAWiggAAAAgI+JYQ5KOJYmcSdgnAmGhiAAAAAAyYKDX58u0jCTyx419IhAWiggAAAAg5aLIW+S6Q1KRNHJpXleXc2wRDIoIAAAAIOWqm7VK0pkkkVszTp6lk4gBoaCIAAAAAFIs6vUTTKqQRL7FYsNKhIMiAgAAAEgtt9h1m6RpZJFzxoaVCAdFBAAAAJBSlR6VJb2SJPLPWRGBgPD+YQAAACCF1pT9kGKi70iaQxpB2PbYTHVu2GBbiAJ5x4oIAAAAIIWKiW4VJURIWqc/xoakCANFBAAAAJAylZL/oaTzSSKwmzPn8QwEMteJAAAAAEiPVWXvNOlGkggSG1YiCBQRAAAAQIq0JfqQpMNIIkisiEAQ2KwSAAAASImBXn+ZXJ/hOj1YXn1KB1x3t/2aKJBnrIgAAAAAUqCvz9vlul2UECGzYiuPZyD/KCIAAACAFJjzhN4vaS5JhM14PAMBoIgAAAAAmiwq+WluuoIkoAJFBEKY5gAAAACapqvLi7G0UVIraUC8whMBoIgAAAAAmujETl0h6WySwA4HVEp+DDEgzygiAAAAgCaJlvrRJl1DEnjOTRqrIpD3OQ4AAACg8dziqoYl7UMWeA7enIFco4gAAAAAmmCgRxdJeg1J4LmcFRHIOd5RDAAAADTYmpIfVJS+K2lf0sAuPFE8XJ1RZFWiQB6xIgIAAABosKLpZlFCYPemxz/TycSAvKKIAAAAABposMfPk6uLJLAnVuTxDOQXRQQAAADQINFCn+Wm20kCe5MkbFiJ/KKIAAAAABp1c9mhD0g6nCSwN1ZgRQRyPL+JAAAAAKi//pKfW5A+L/4yEOMTb9mqzg993B4nCuQNJ0EAAACgzvr6vL1gGuP6GxNQ7GjXWcSAPOJECAAAANTZ7CdUkev5JIEJcS0gBOQRRQQAAABQRwNlP1WmlSSBCTM2rEQ+UUQAAAAAdRJFXrBEt0tqIw1MmLNhJfKJIgIAAACok3izLnPphSSBSTEdvabkBxEE8oYiAgAAAKiD/h4/StIQSWBKN2w8noE8zmsiAAAAAOpyA3mLpBkkgakwUUQgh+dHIgAAAABqa7DHF0l6E0lgytgnAjlEEQEAAADU0NWLfT83fYgkUCPnSG7EgDyhiAAAAABqqNimmyQdSBKokX2jHh1LDMgTiggAAACgRgZ7/Q0mLSQJ1FIsHs9AvlBEAAAAADWwYpHv465bSQI1x5szkDMUEQAAAEANdLTrWknHkARqzVgRgfzNaQAAAABT0d/j5xRMX5BUJA3UwZMPFjRreNi2EQXygBURAAAAwBREXd5mpjFRQqB+ph0qnUoMyAuKCAAAAGAKqp262qRTSAJ1nWeJFpAC8oIiAgAAAJikSrefaNJqkkADsGElcoMiAgAAAJiEKPJCwTQqaRppoN7YsBJ5QhEBAAAATEJ1sy5x04tJAg1yUrTQZxED8oAiAgAAAJigqNsPNWkdSaCR925Ju84mBuRiMhMBAAAAMDFxQR+VNJsk0EhJkcczkA8UEQAAAMAEDPT6BZLeQhJoNEvYsBL5QBEBAAAAjFPU4/vKdSNJoCmMFRHIB4oIAAAAYJxi6Y8kHUQSaJIjom4/lBiQdRQRAAAAwDgMdvsrZHoPSaCZkgKPZyD7KCIAAACAvYjKPt0LGpFkpIEmo4hA5lFEAAAAAHuRJFor6ViSQLO52CcC2UejCwAAAOxB1OtnxK6vSmohDaTAw8XDtW8UWUIUyCpWRAAAAAC7EUXeUnWNiRIC6dGpB3QCMSDLKCIAAACA3aj+XFeZdBZJIE3ihMczkG0UEQAAAMAuVC724800QBJIHWPDSmQbRQQAAACwEzeLdZukDrJA2pizIgLZRhEBAAAAPMdASb2SXkUSSCOXzujr83aSQFZRRAAAAADPEC3xgyV9gCSQYm2zntDpxICsoogAAAAAniFu0a2S5pAEUn4jx+MZyPL8BQAAACBJg73+dklvIwmkHhtWIsMoIgAAAABJq8re6a6bSAIZwYoIZBZFBAAAACCpNdYHJR1GEsiIE6MlPpsYkEUUEQAAAAjeQK+/zEwlkkCGWLVV84gBWUQRAQAAgKD19Xm7XLdJMtJAlpjzeAayiSICAAAAQZu9RZGkk0gCGUQRgUyiiAAAAECwopKfJulKkkBGLSACZBFFBAAAAILU1eXFRBqT1EoayKiD+y/yI4gBWUMRAQAAgCDNnaXlLjb7Q7YVW3g8A9lDEQEAAIDgREv9aJmuIQlkXqL5hICsoYgAAABAcOKqhiXNIAlknRdYEYHsoYgAAABAUAZLfpGk15AEcsE1r6vLiwSBLKGIAAAAQDCisu/v0g0kgRyZOXe25hIDsoQiAgAAAMGoJrpF0v4kgTwx5/EMZAtFBAAAAIJQKfkbTXonSSCH2LASmUIRAQAAgNyLFvosk24nCeSRixURyBaKCAAAAORePE3XSTqCJJBTpy1f7h3EgKygiAAAAECu9Zf8XJmWkgRyrHXGwzqDGJAVFBEAAADIrajL2wqmMa57kXde5PEMZAcnZAAAAORW0qmKXM8nCeQdb85AllBEAAAAIJeiss91aSVJIBAUEcgMiggAAADkThR5IUk0JqmdNBCIY69e7PsRA7KAIgIAAAC5U71ffS69kCQQECu2aj4xIAsoIgAAAJArUdmPNNcQSSA0xuMZyAiKCAAAAORKnOgWSTNJAsExVkQgGygiAAAAkBsDJb9Q0h+QBAK1gAiQBUYEAAAAyIOrF/t+LW36rqQDSQOhKrbomOh2+wlJIM1YEQEAAIBcaGnTjaKEQODimH0ikH4UEQAAAMi8So+/XtKFJAGwTwTSjyICAAAAmRaVfbqZbiUJQDJnRQTSjyICAAAAmZbEulbS80gCkFyaF0XeQhJIM4oIAAAAZFZ/j5/jpveRBPC06dqs5xMD0owiAgAAAJkURd5ipjskFUkD+L3EeI0n0o0iAgAAAJlU3ayrTTqDJIBnSxI2rES6UUQAAAAgcyrdfqJJa0gC2JkV2LAS6UYRAQAAgEyJIi8UTKOSppEGsAuuU1Ys8n0IAmlFEQEAAIBMie/XUje9mCSA3Sp2tOssYkBaUUQAAAAgM6JuP1Su9SQB7JmLxzOQXhQRAAAAyIy4qFslzSYJYK/YsBKpRREBAACATBgs+TvleitJAHtnrIhAuucnAAAAkG6ryt7Zlui7kg4lDWB8ii06KLrdfkkSSBtWRAAAACD1WhNtECUEMCHJNh7PQDpRRAAAACDVKiV/uUlLSAKYIKOIQDpRRAAAACC1orJPN2lEPFIMTJg7+0QgnSgiAAAAkFqx6/2SjiMJYBJMCySnxEMKpyYAAACQQgPdfroK+qqkVtIAJqfoOj4asx+SBNKEFREAAABInSjyFi9ooyghgCmJeY0nUogiAgAAAOm7edqsFSadRRLAFLFhJVKIIgIAAACpUrnYj5c0SBLA1BkrIpBCFBEAAABIETeLdZukDrIAavCJks4ql51HnJAqFBEAAABIjcFelSS9iiSAmpl2qHQqMSBNKCIAAACQCtESP9hd15MEUFux83gG0oUiAgAAAOm4WSrqFklzSAKoOTasRKpQRAAAAKDpKr3+JpneThJA7TkrIpAyRgQAAABopmihz4o79F1Jh5EGUBdJcYvmRPfYI0SBNGBFBAAAAJoq7tAHRQkB1PW+r9qhs4gBqZmQRAAAAIBm6e/xl0rqJQmgvozHM5AiFBEAAABoir4+by+YbhePCwONQBGB1KCIAAAAQFPMeVLXSDqJJIAGMIoIpGk6AgAAAA0Wlfy0WPqapFbSABqjmOiwaKM9QBJoNlZEAAAAoKGiyAuxdLsoIYCGSgqaTwpIA4oIAAAANFR1s5ZLegFJAA1HEYFUoIgAAABAw/T3+FEmRSQBNJ6zYSVSgiICAAAAjbv4LGhY0gySAJrinChy7gHR/O8CIgAAAEAjDPT6ErleSxJA03RWf6bjiQHNRhEBAACAuovKvr9cN5AE0OQbQF7jiTTMQyIAAABAvcWxbpZ0AEkATWZsWInmo4gAAABAXQ32+htkuoAkgOZzZ0UEms+IAAAAAPWysttnthf0HUlHkAaQClsf6lDnzTfbVqJAs7AiAgAAAHUzraDrRAkBpEn77Cd1GjGgmSgiAAAAUBcDZV/g0iUkAaQLj2eg2SgiAAAAUHNRl7cp0RjXm0D6mCgi0Fx8MQAAAKDmkk6tkXQySQCpRBGBpmKzSgAAANRUVPa5caL7JLWTBpBKXqxq3+gue4go0AysiACAJllV9k5SAJA3UeSFONFGUUIAaWbVVs0jBjQLRQQANEmba2Sg5H+x+hKfQxoA8iLerPdJegFJAOlmbFiJJqKIAIAmqJT9WLneJultrdt0b3+vv5BUAGRdVPYjJa0jCSADTPMJAc1CEQEAzRBrlaTijv/vqILrc4Mlj6LIOS8DyO6pLdbNkmaSBJABrgWEgGZhs0oAaLBoiR8ct+jHkqbt4h9/uljVougu+wVJAciSgR5/t0z3kASQHUXpiGjUNpMEGo2/eQOABktadIV2XUJI0qvjFn1zsNdfR1IAsuLqxb6fTBtIAsiWKq/xRJNQRABAA60qe6dL5b38awe66x8HSn5TueytpAYg7Yrt2iDpQJIAssXEPhFoDooIAGig1kTvkzSe13aapMsOivXvlZIfQ3IA0qpS8lea60KSADKJFRFoCvaIAIAGiZb4tB17Qxw8wf/0YXP1rh2zTaQIIFXntbJPjxN9S9LzSAPIpEeLh2t2FFlCFGgkVkQAQINUW9SjiZcQktTppk9Uev3u5cu9gyQBpEWcaL0oIYAsm6mfai4xoNEoIgCgAbq6vGjS8qn8DHMtmvGovjrQ6yeTKIBmG+j1+ZL6SALItqTIazzReBQRANAAJ83WBZKOrcGPOlmurw6UvEyqAJolirxFrjskFUkDyDw2rETDUUQAQAO468oa/rgOSXdUev3u6FKfQboAGi2+X6slnUkSQA6uUdiwEk3AZpUAUGeDPX6em/6uTj/+v+S6YGjM7iVpAI0Q9foJseubkqaRBpAL2x6bqc4NG2wLUaBRWBEBAHXmplV1/PEnyPTFSq8vk5xyGUBdRZEXYteoKCGAPGmd8bDOIAY0EkUEANTRQNkXSHpJnf+YdnPdONCjT1692PcjdQD1Ut2sixtwTgPQYF7k8Qw0FkUEANRTov6G/VmmN7e06d6BknOTAKDm1pT9EJOuJQkgh5wNK9FYFBEAUCeVkp8k6bwG/7FHSPrMYMmjri5nN3sANVN0fVTSbJIA8secFRFoLIoIAKjbt7qubtJ5tujSNXM79emo2w/lQACYqsEe75LrrSQB5Paa5Tge70QjUUQAQB30X+RHmOuCJv8aL48L+uZgj5/HEQEwWavK3ummG0kCyDVrbdc8YkCjUEQAQB0Ui7pKUmsKfpX93fS3AyW/KeryNo4MgIlqc31YEqurgJxLeDwDDUQRAQA1dvVi38+l7hT9SibpsqRTn496/DiOEIDxqpT85XJdRBJA/pnYsBKNQxEBADXW2qZlkvZJ2+/l0ry4oK8P9Pi7OUoA9mb5cu8waWT7/QmAACwgAjQKRQQA1NCKRb6PS5em9hd0zZLpnkqv371ike/DEQOwOzMf1fslsYoKCMeB0VI/mhjQCBQRAFBD09q1VFLqd50216KOdn0tKvlpHDUAzzXQ7ae7dDlJAGGJY/aJQGNQRABAjZTL3mrSZRn6lefG0pcrvb6Mowfgd6LIW1TQmNKx4S6AxmKfCDQERQQA1MhBsd4j6ciM/drTzHXjQMn/cvUlPoejCKB6v66UdDZJAOEx3pyBRs01IgCAqYsiL8Sb9W1JJ2V4GD9LTO9aP2Jf4IgCYaqU/BiTvqUUbrgLoCGeKB6uziiyKlGgnlgRAQA1UN2stynbJYQkHVlwfW6w5FEUOd8PQHDcTBoWJQQQsunarOcTA+qNC00AqM3J9MqcDKXFpWvizfrUmrIfwpEFwjHQox5JryYJIGwxj2egMdfOAICpqPT6q106N2fDelUx0X2VHn89RxjIv2iJHyzTDSQBQMaGlag/iggAmOr3tWtVTod2oJn+YaDkN5XLzu75QI7FLbpZEhvWApCLFRFowPUzEQDA5EW9fkbs+kbez6cmfSWRLlg3aj/mqAP5Mtjj57np70gCwA7xlq3q/NDH7XGiQL2wIgIApvJN7epXAKWuS+eYdO9gyd/JUQfyI1ros9x0O0kAeIZie4fOJAbUE0UEAExSpezHSjo/oCF3uvRnlV6/Oyr7dGYAkH3JdN0g6XCSAPCsm0Q2rES95xgRAMDkWKLVkorBjdu1KE70lajHT2EWANnV3+MvdVeZJAA8l1NEoM4oIgBgEqIlfrCkCwOO4OTY9JVKry9jNgDZ09fn7YXtj2SwXxiAnRgbVqLOKCIAYBLiVl0paVrgMXSY68aBXv9EtMRnMyuA7JizRQOSTiIJALtxTLTUDyQG1AtFBABM0Kqyd8rVSxI7uLriou7tL/m5hAGk30DZT3VpJUkA2JNkm+aTAuqFIgIAJqjN1SepkySewXR0Qfq3Sq+vkpyl3kBKRZEXlOgOSa2kAWAv3+0UEagbiggAmMhF/BKfJtd7SWKXWs31gYEeffLqxb4fcQDpE9+vyyW9gCQA7A0bVqKeKCIAYCIX8UWVJB1MEntgenNLm+7r7/GXEgaQHv09fpRc7ycJAOP8Pl/AKkfUC0UEAIxTV5cXZbqcJMbl8ILpXwdLHnV1eZE4gBRc9JnukDSDJACM076Vsp5HDKjLdxIRAMD4zO3UuyQdSxLjVnTpmrmd+nT/Uj+MOIDmGSj5YkmvIwkAE7pZTHg8A3WaW0QAAOPh5tKV5DApLy9Udd9gj59HFEDjRWXfX9KHSALAhLFhJeqEIgIAxqHSq/NMOoMkJm1/N/3tQMlvirq8jTiAxqkm+oikA0gCwESxYSXqhSICAMZzsky0ihSmzCRdFnfqC1GPH0ccQP0N9vobTHoXSQCYpLPLZed1v6j9tTURAMCe9Zf8XDe9mCRqd1ETm74x2OsLiQKonxWLfB933UoSAKZg2kGxTiEG1BpFBADs/UTZTwo1N9Ndf1zp9btXLPJ9iAOovY5p+oCkY0gCwFS4eDwDdbm+BgDsTqXkJ0l6I0nUh7kWdbTrawPdfjppALUzUPYFcl1CEgCm/F1doIhA7VFEAMCevnylNZwr626uCvpSpdeXEQUwdVGXtynRmKQiaQCYKjasRD1wcQ0Au9F/kR8h6Z0k0RDTzHXjQMn/cvUlPoc4gMlLOrVG0skkAaAWTHp+tNBnkQRqiSICAHZ3gmzRSknsFN1Y57du030DPf4iogAmrtLtJ7p4yw+A2l4SVTt0FjGgppOKCABgZ1cv9v3kuogkmuJImT47WPIoipzvKWCcosgLBdOopGmkAaCWjMczUGNc4AHALrS06nJJvM2hiYfApWvizfqXNWU/hDiAvaver/fyqmEAdWGaTwioJYoIAHiOFYt8Hxm7zafEK4uJ7qv0+OuJAti9qOxHmms9SQCoE1ZEoKYoIgDgOTradImk/UgiNQ400z8MlPymctnZswPYhTjWzZJmkgSAOjmSFYqoJYoIAHiGctlbZbqMJFLHJF12cKL/iLr9ecQB/N5gyd8l05tJAkBdbxydxzNQw/lEBADwewfFeo+kI0ginVw6Jy7q3sGS81pVQNs31nVpA0kAqDdLKCJQOxQRALBDFHlBpitIIuVcs1z6s0qv3x2VfTqBIGQtbfqwpINIAkAD7hzZJwI1nE4AAElSdbPeJukkksgGcy2KXV+NevwU0kCIKiV/paRFJAGgIVznSG4EgVqgiACA358QrySFzF0UPT82faXS68sIAyGJyj7dpGFt3z8FABphdtSr44kBNbruBgBUev3VLp1LEpnUYa4bB0q+KVris4kDIYhjDUk6liQANFKSaAEpoBYoIgBAkrlWkULm/WFc1L39JadQQq4N9Pp8mVgFBKAJF0xsWInaoIgAELyo18+Q9CqSyMUF0tEF6d8GSx5FkfMdh/ydryJvkesOSUXSANBo7mxYidrgIg1A8GJXv3jOOk9aXbom3qx/WlNy3iaAXKlu1ipJZ5IEgKYwndHX5+0EgamiiAAQtErZj5V0Pknk0muK0jcHS/4aokAeRL1+gkkVkgDQRO2zn9RpxICpoogAEDRLtFoscc6zg1z6x8GSR11dznFGhrnFrtskTSMLAE09G/F4BmqAIgJAsKIlfrCkC0ki94ouXTO3U/+vf6kfRhzIokqPypJeSRIAUoANKzFlFBEAghW36krxt4sheVmhqvsqvf4mokCWrCn7IWb6AEkASAMTKyIwdRQRAIK0quydcvWSRHD2N9ffDJT8JjbbQlYUE90qaTZJAEiJudES55yEKaGIABCkNlefpE6SCJJJuqxzi75QudiPJw6kWaXkfyg21AWQsu/RpKiziQFTQREBIDhR2adrexGBkK+ipLMs1tcHe30haSCNVpW906QbSQJA2iQ8noEpoogAEJyqq0fSgSQBSTPd9ceVXr87utRnEAfSpDXRH0lig1UAqWPGhpWYGooIAEGJIm+xRFeQBJ51QeVaFD+lr0W9fgZpIA0Gev1lJnWTBICUOpcIMBUUEQCCkvxc75LpaJLALpwYu75Y6fVlRIFm6uvzdrlu1/b9TAAgjQ6JSn44MWCyKCIABMQtMa0kB+zBNHPdONDrfxX1+L7EgWaY84TeL2kuSQBIsyr7RGAKKCIABGOwR28y6RSSwF653hqb7u0v+4sJA4000O2nu/H4GID0M7FPBCaPIgJAOPeWplWkgAk4spDoM4Mlj6LI+b5E3UWRt6igMUmtpAEgA1gRgUnjwgpAEAZK/hJJLyIJTFCLS9fEm/UvUbcfShyop/jnukLS2SQBICPmU9Rjspg4AMLAaghMzSvjgu4b7PU3EAXqIVrqR8s0SBIAMmSmfsp+NpgciggAuTdQ9lPleiNJYIoOcNffD5T8pqjL24gDteMWVzUsaR+yAJAlcQuPZ2ByKCIA5P8SP9Eq8Ro81IZJuizu1H9Uyn4scaAWBnp0kaTXkASAzEnYsBKTQxEBINcqJT/GpHeSBGpsvrm+MdDrFxAFpiJa4gfL9CGSAJBFZqyIwORQRADI+0nuSkktJIGac82S608rvX53VPbpBILJiFv1EUlzSAJANr8Kdfry5d5BEpjENToA5FO01A90qZskUE/mWhS7vjpQ9lNJAxMx2OPnydVFEgAyrHX6ozqdGDBRFBEAciup6jJJtPSoP9fzlejLlV5fRhgYj2ihz3LT7SQBIAc3lDyegcnMGwDIn5XdPtOlS0kCDdRhrhsHevz/i5b4bOLAnsQdul7S4SQBIOucIgKTQBEBIJfaCloqnrtGM5jeHrfovoFufwFhYFd2zI0ySQDIxdeeU0RgMpdLAJAzfX3ePnuLfiTpUNJAE1VNWl84XGujyBLiwNPnpyf1DbmeTxoAcsKrT+mA6+62XxMFxosVEQByZ86TWixKCDRfi0vXxJv1z9ESP5g4IEmzn1CFEgJAzlhru+YRAyaCIgJArkSRF9y1giSQIq+OW3RfpdtfSxRhGyj7qTKtJAkAeZPweAYmiCICQL6+CH+ut0s6gSSQMgdZQf80UPKbymVvJY7wRJEXLNHtktpIA0DemDSfFDARFBEA8vZNyN82IsXXabrs4ET/Vin5McQRlurPtcylF5IEgJxaQASY6EURAOTCYMlf49KnSAIZ8LC5eteO2SaiyL/+Hj+qYPq2pBmkASCvEtfR68fspySB8WBFBIDccGkVKSAjOt305wMlv6mvz9uJI+cXW6ZbRAkBIOeKYp8ITOC7kQgA5MFAr8+X9CqSQIaYpMs6t+gLlYv9eOLIp8EeXyTpTSQBIIBvNfaJwLhRRADIh4TVEMjqdZvOslhfHyj5haSRL1HZ93fTh0gCQAicFRGYAIoIAJlX6fYTZTqfJJBhMyV9vNLrd0eXOkv4cyJOdJOkA0kCQCDmRZG3EAPGgyICQB7OZFdxPkMemGtR/JS+FvX6GaSRbYO9/gZJ7yYJAAHZJ35AJxEDxnf5DgAZ1r/UDzNpEUkgR06MXV+q9PoyyXm7VQatWOT7uOtWkgAQGkt4PAPjQxEBINOKVS2X1EYSyJl2c904UNJfRT2+L3FkS0e7rpV0DEkACA37RGC8KCIAZNbqS3yOS2WSQI69JTbd11/2FxNFNgyUfYGk95IEgBBRRGC8KCIAZFbLNr1P2zf5A/LsiEKizwyWPOrq8iJxpFfU5W1KNCaJ4wQgSCadumKR70MS2BuKCADZvOAv+3ST+kgCgWhx6Zq5s/UvUbcfShzpVO3U1ZJOJgkAASu2d+hMYsDeUEQAyOYFv6tH0gEkgaC4XhEXdF+l5G8kjHSpdPuJJq0mCQDB32A6j2dgHPOECABkTRR5iyW6giQQqANM+ruBkt8UdTkbtabjnFQomEYlTSMNAMFLNJ8QsDcUEQCy9/32c71LpqNJAgEzSZclnfp8pezHEkdzVTfrEjexoSgAbP+GYkUE9ooiAkDGuCWmleQASC7NM9c3Bkv+LtJojqjbDzVpPUkAwNOeFy31A4kBe0IRASBTBnv0JpNOIQlgB9csl/6k0ut3s1N548UFfVRSJ0kAwO9Vq5pHCtgTiggA2brnMq0iBWBn5lrU0a6vRiU/jTQaY6DXL5D0FpIAgJ1uMnk8A3ubIwCQkYv+kr9E0otIAtitk2Lpy5VeX0YU9RX1+L5y3UgSALAzFxtWYs8oIgBkB6shgPGYZq4bB0r+F6sv8TnEUR9V04clHUQSALBLCyQ3YsDuL+sBIAMGyn6qEn2T8xYwIT9NTO9eP2JfIIraGez2V3hB/4/zEQDsXjHRsdFG+xFJYFdYEQEgEzzRKi76gQk7quD63GDJoyhyvvNrICr7dC9ohPMRAOxZUtACUsDucFECIPUqJT/GpHeSBDApLS5dE2/WP0dL/GDimOKFdaK1ko4lCQDYC2OfCOweRQSALJyorpTUQhLAlLw6btE3B3v9dUQxOVGvn+ESG4ECwDi48+YM7B7LCgGk+8J/qR8YV/UTSR2kAdTm2lDSzQ8WtGJ42LYRxzjPRZG3VDfryyadRRoAMC5PPljQLL5rsCusiACQaklVl4kSAqglk3TZQbH+vVLyY4hjfOLNWkkJAQATMu2gWKcQA3aFIgJAaq3s9pkuXUoSQB2YFph072CPdxHGnlUu9uMlVUgCACbGxeMZ2DWKCACp1W66RNIckgDqptNNn6j0+t3Llzsrj3Z9GW0W6zaxMgsAJo4NK7EbFBEAUqmvz9tlbAoHNOQ60bVoxqP66kCvn0wazzZQUq+kV5EEAEzi+4UVEdgNiggAqTR7i94j6VCSABrmZLm+NNjji4hiuzVlP0TSB0gCACb/3bKy22cSA56LIgJA6nR1eVGuFSQBNNwMN91d6fW7o0t9RuhhFBPdKh4PA4Ap3W+2F9noF7uYGEQAIG3mztbbZTqeJIDmMNei+Cl9faDHzww1g8Fef7uk85kNADA17jyegZ1RRABI4TeWVhIC0HQnyPTFSq8vk9xCGviqsne66yamAABMnbFhJXaBIgJAqlS6/bWSziYJIBXazXXjQI8+efVi3y+UQbfG+qCkwzj8AFADrIjALlBEAEgVK2gVKQBp+2DqzS1tuneg5C/J+1AHev1lZipx0AGgZo7asfkv8DSKCABpugGYL+mVJAGk0hGSPjNY8qiry4t5HGBfn7fLdbsk43ADQA1vOp3HM/CcOUEEAFLDtZoQgFQrunTN3Nn6l6jbc/d63dlbFEmay2EGgNqyhCICz0YRASAVKt1+oqS3kgSQAa5XxAV9c7DHz8vLkKKSnybpSg4uANTlrpN9IvCcKQEAKWBFreScBGTK/m7624GS3xR1eVuWB9LV5cVEGpPUymEFgDpwnRPaG5iwZ1z0A2i6/qV+mFwXkgSQOSbpsqRTn496/LisDuLETl3h0jwOJwDUzeyoV8cTA36HIgJA809E23SFpDaSALLJpXlxQV8f6PF3Z+13j5b60SZdw1EEgPqKeY0nnnn9TwQAmnoT0OP7ytRLEkDGuWbJdE+l1+9escj3ycyFcVXDkvbhAAJA3bFhJZ5GEQGguTcB0vskzSQJIB/MtaijXV/bsfljqg2W/CJJr+GoAUADvh/Eigg8az4AQHNEZZ8eJ/qJpANIA8idJ920et2I3ZTS88/+caLvSdqfQwUADbH1oQ513nyzbSUKsCICQNPEiUqihADyapq5bhwo+V+svsTnpPD8c6soIQCgkdpnPa5TiQESRQSAJimXvVXSFSQB5N7bWrfp3v5ef2FafqFKyd8o6R0cGgBo8M1nkcczsGMuEAGAZjgo0bskHUUSQBCOKrg+N1jyKIq8qdce0UKfZdLtHBIAaIKEDSuxHUUEgCZwc+kqcgCC0uLSNfFmfWpN2Q9p1i8RT9N1ko7gcABAE5gWEAK2TwUAaLBKr7/ZXH9NEkCwfmmmxWtH7J8b+Yf2l/zcgvR58RcxANAsXqxq3+gue4gowsYXMYCGM9dKUgCCdqC7/nGg5Dft2C+m7vr6vL1gGuPaBwCaexmYFHU2MYAvYwAN1d/jL5X0IpIAuBiVdNnBif6jUvJj6v2HzdmifrmeT+wA0FyJ2LASFBEAGn3SMa0iBQC/49I5Jt070Ot1e4tF1OOnuDj3AEAamLFhJSgiADRQVPLTJL2BJAA8R6dcf17p9bujsk+v6Xkn8kJiukNSGzEDQCqcSwSgiADQMPH2v5Fkk1wAu2SuRXGir0Q9fkqtfmb1fvW59ELSBYDUOKR/qR9GDGGjiADQEDueAX8HSQDYi5Nj01cqvb5sqj8oKvuR5lpHpACQLsWYfSJCRxEBoCHMtUJSC0kAGIcOc9040OufWFX2zsn+kDjRLZJmECcApA77RASOIgJA3UVL/UCZLiIJABPi6mqLdd9A2RdM9D8dKPmFkv6AEAEghad3Z0VE6CgiANRdXNUySR0kAWDCTEcr0ee2P6rh49pj5urFvp+kPyI8AEitc6LIuRcNGAcfQF2t7PaZki4lCQBT0G6uGwd69MkdJcMeFdt0k6QDiQ0AUmtmdbNOJIZwUUQAqPPdgy6RNJskAEyZ6c0tbbqvv8dfurt/pdLjrzdpIWEBQMpvRHk8I+zjTwQA6qWvz9tlWkYSAGro8ILpXwdLHnV1efGZ/yAq+3Qz3UpEAJB+LoqIkFFEAKib2Vv0HkmHkgSAGiu6dM3cTn36me+iT2JdK+l5xAMA6WdGERH08ScCAPXQ1eXFubP0PZmOJw0AdfR/5loSS78qmL4gqUgkAJAJ2x6bqc4NG2wLUYSnhQgA1MPc2Xq7nBICQN3t76a/LUj/J0oIAMiS1umP6nRJXyKK8PBoBoD6cK0kBAANYpIOIAYAyNzNKI9nhHvsAaC2Kt3+WklnkwQAAAD2YD4RhIkiAkDNWUGrSAEAAAB7wYqIUO8XiABALQ30+ny5vkISAAAA2AuvPqUDrrvbfk0UYWFFBIAaf51oNSEAAABgHKzYwuO8IaKIAFAzlW4/UdJbSQIAAADjYUUezwgRRQSAWn6RrOS8AgAAgHFL2LAyRNwwAKiJ/qV+mFwXkgQAAADGzXQuIYSHIgJAbU4m23SFpDaSAAAAwAQcGJX9SGII7N6BCABMVdTj+8rUSxIAAACYqGrCPhGhoYgAMPUvD1OfpJkkAQAAgEnclFJEhHfMAWDyorJPN+m9JAEAAIDJcIqI4FBEAJiSqqtX0gEkAQAAgEmaF0XeQgzhoIgAMGnlsreaazlJAAAAYAr2iR/QScQQDooIAJN2cKx3SzqKJAAAADAVxoaVQaGIADBJbolpBTkAAABgykzzCSEcFBEAJmWwpDebdApJAAAAYKrcWREREooIAJO1kggAAABQI6euWOT7EEMYKCIATNhAr7/MpReSBAAAAGqkpaNNZxBDGCgiAExcolWEAAAAgFpy8XhGKCgiAExIVPLTZHo9SQAAAKCm2LAyGBQRACakKq2WZCQBAACAWjJWRIR0rAFgfColP8ak/5LUQhoAAACotWKLDoput1+SRL6xIgLARE4YV4kSAgAAAHVSrWoeKQRxXwEAexct9QNdWkISAAAAqOMNKo9nhHGcAWDvkliXS+ogCQAAANSLiw0rQ0ARAWCvooU+y12XkAQAAADqbIHk7GWYcxQRAPaqOl2XSJpNEgAAAKiz/aJuHUMM+UYRAWCP+vq83VyXkQQAAAAaIS6yT0TeUUQA2KPOJ7RE0qEkAQAAgIZI2Cci7ygiAOxWV5cXTbqSJAAAANAoxpszco8iAsBundSpP5TpeJIAAABAo7jp7HLZW0kivygiAOz+S0C6ihQAAADQYB2Huk4mhvyiiACwS4O9/jpJZ5MEAAAAGi12Hs/IM4oIALvk0ipSAAAAQJOwYWWOUUQA2MlAr8+X6xUkAQAAgCZZQAT5RREBYGeuqwkBAAAATXTyym6fSQz5RBEB4Fkq3X6ipLeQBAAAAJp5r9pe1FnEkNODSwQAnnNWWMW5AQAAAM3mbFiZ41sOANghKvnhJi0kCQAAADSbGRtW5hVFBICnJaYrJLWRBAAAAJqOFRG5ZUQAQJKiHt83Nv1U0gzSAAAAQBrEBR167bD9L0nkCysiAEiSqqY+UUIAAAAgRVpizSOF/KGIAKCo7NNNei9JAAAAIFXYJyKXKCIAqOrqlXQASQAAACBNXOwTkUcUEUDgymVvNddykgAAAEAKLZCcvQ1zhiICCNzBsd4t6SiSAAAAQArNrlys44ghXygigKC5JaYV5AAAAIDU3rQmPJ6Ru2NKBEC4Bkt6s0mnkAQAAADSyp0iIm8oIoCwrSQCAAAApJmxYWUejymAEA30+svk+ixJAAAAIOWeLD6szmiTPUUU+cCKCCBUiVYRAgAAADJg2raZOo0Y8oMiAghQVPLTZHo9SQAAACATN65FHs/I1fEkAiA8VWm1eDQLAAAAWZFoPiHkB0UEEJhKyY8xqYskAAAAkKE7V1ZE5OpwAgiKbX9TRgtJAAAAIDNcc6OFPosg8oEiAgjImpIfJOk9JAEAAICs3btWOzSPGHJyMIkACEdRulxSB0kAAAAga0w8npEXFBFAIHYsZVtKEgAAAMgoNqzMCYoIIBBxhy6VNJskAAAAkFGsiMgJXt8HBKCvz9tnb9GPJR1CGgAAAMiqYqLDoo32AElkGysigADMflIXiRICAAAAGVc1VkXkAUUEkHNdXV5UoitIAgAAAJm/gS1QROTiOBIBkG9zZ6tLpuNJAgAAAFnnThGRBxQRQP5P1leRAgAAAHJiXhQ597EZxwEEcqzS46836SySAAAAQE50VjfrRGLINooIIMfMtIoUAAAAkKubWB7PyP4xJAIgn/p7/BxJLycJAAAA5IppPiFkG0UEkNcPd0FXkwIAAADyxsWKiKwzIgDyJyr73DjRd0TZCAAAgPx56qEOzbr5ZttKFNnETQqQQ3GsVXy+AQAAkFNts7fqDGLILm5UgJyJSn64TO8mCQAAAOSVs2FlplFEADkTS1dKaiMJAAAA5BgbVmYYRQSQI1GP7yupRBIAAADIM2NFRKZRRAA5kpgukzSDJAAAAJBzJ6y+xOcQQzZRRAA5EZV9ukvvJQkAAAAEwFq28nhGVlFEADkRJypL2p8kAAAAEAIr8nhGVlFEADlQLnurpMtJAgAAAMFIWBGRVRQRQA4c5Foo6SiSAAAAQDCMFRFZRREBZJ6bXCvIAQAAAIE5OCr7kcSQPRQRQMZVevQWSSeTBAAAAEJTTVgVkUUUEUDWP8Smq0gBAAAAITJjn4hM3sMQAZBdlZK/3KUXkgQAAACC5KyIyCKKCCDDTFpFCgAAAAjYvK4uLxJDtlBEABk10O2nS3odSQAAACBgM06epZOIIVsoIoCsMq2WZAQBAACAkMXi8YysoYgAMijq9ufJ9IckAQAAgOCxYWXmUEQAGRQXdJWkFpIAAAAAtIAIsoVl3UDGrCn5QUXpx5I6SAMAAABQtVhQZzRsTxBFNrAiAsiYonS5KCEAAACA32mJY51JDNlBEQFkSLTQZ0laShIAAADA7zkbVmYKRQSQIXGHLpU0myQAAACAZ2DDykyhiAAyoq/P2yVdRhIAAADAsxkrIjKFIgLIiNlP6iJJh5AEAAAAsJPnRWXfnxiygSICyICuLi8q0RUkAQAAAOySJc7jGVlBEQFkwNzZ6pLpeJIAAAAAdi1xHs/ICooIIAPcdRUpAAAAALtnbFiZGRQRQMpVevz1Jp1FEgAAAMAesCIiMygigJQz0ypSAAAAAPbqgErJjyGG9KOIAFKsv8fPkfRykgAAAADGdYPLqohsHCcAqf2AFnQ1KQAAAADj4zyekY37HCIA0ikq+1y53kwSAAAAwPgYKyIygSICSKlqotV8RgEAAIDxc9NZUeQtJJFu3OQAKRSV/HCT3kUSAAAAwIRM1/06hRjSjSICSKHEtUJSG0kAAAAAExOzT0TqUUQAKRP1+L5u6iEJ1MAySQ8TAwAACMx8Ikg3igggZRLTZZJmkASmygv6e0+0QNIPSAMAAARzDcSGlalHEQGkyIpFvo9L7yUJ1Mq6jfaDouuFkj5NGgAAIAQmnRxd6vzFXopRRAApMq1NZUn7kwRqKRqz33z/Yb3eXNeTBgAACEBx21adRQzpRREBpES57K1mupwkUA+bNlm8dsxWm+lCSVtIBAAA5PxGl8cz0n18AKTBwYkulHQkSaCe1o7YPUr0Kkn/SxoAACC3jA0r04wiAkgFN5euJAc0wtBG+2Ix0TyTvkIaAAAgn5fXrIhIM4oIIAUGe/VWSSeTBBol2mgP/LZDL5XrLtIAAAC5Yzp6TckPIoh0oogAUsBdV5ECGu3mm23r0JhdJOliSVUSAQAAubrZ5fGM9B4bIgCaa7DbXyHpBSSBZhkatWEzvUnSb0kDAADk5maXxzPSe2yIAGguL2gVKaDZ1o7YPxdd58j0XdIAAAC5uM7mzRmpRREBNNFAt58u6bUkgTSIxuyHW2OdK+mvSQMAAOTAfMmNGNKHIgJoIi/oakmcHJEaN2y0R4dGdb5J75fkJAIAADJs38rFOo4Y0ociAmiSqNufZ9LbSQLpY7521CKT3iXpCfIAAACZveFNeDwjlceFCIDmSIpaKamFJJBWa0ftz4umF0n6KWkAAIBsXnTz5ow0oogAmmBNyQ9y12KSQNpFI3ZfsaB5kj5LGgAAIGvcWBGRRhQRQBO0uJZL6iAJZEE0bP9XfFivkzRKGgAAIGPOjLq8jRjShSICaPRN3UKf5aaLSQKZmreb7KmhUeuVdLGkbSQCAAAyYlrcqVOJIV0oIoAGq07TeyXNJglk0dCoDUt6laRfkgYAAMgCF49npA1FBNBAfX3ebqY+kkCWDY3avyex5kn6OmkAAIAMYMPKlKGIABqoc4u6JR1CEsi69Xfaz4tterlcf0EaAAAgzYwVEalDEQE0SFeXF026giSQF9FH7bGhMXW5abWkhEQAAEBKnRQt9FnEkB4UEUCjzn6deoek40gC+WK+bsSuN9ebZXqEPAAAQBrve6sdmkcMKTogRAA0gpubVpED8mrtmP29TC+W9CPSAFBjjxMBgCkz9olIE4oIoAEGe/V6uU4nCeTZ0LB9q+iaL+nTpAGgRhKZzjPXOyT9hjgATJY5+0SkCUUE0ADurIZAGKIx+833H9brzXU9aQCY8o2DtGFoxD63dsw2Fas6Wa5/JBUAk0QRkSIUEUCd9ff4OZJeRhIIxaZNFq8ds9VmulDSkyQCYJK+/+hMDfzu/4nusl8Mjek8SRdLeoJ4AEzQ4VG3H0oM6UARAdT7Q2ZaQwoI0doRu0eJXinpF6QBYIKqies9GzbYlmf/z+ZDozZcjDVf0r3EBGBCJxZjVURq7pGIAKifqOxzJf0BSSBUQxvti0mL5pn0FdIAMG6uD6wfs92eN6I77bsPFrTApPdLigkMwHgYG1amBkUEUEfVRKv5nCF062+3+wtVvcylj5EGgL3fKeibxUc0tLd/bXjYtq0dtUiJXiLpfwgOwDiwIiIluEEC6iQq+eEmvYskACm6y55cN2pL3HS5+NtLALu3Ta6eaJM9Nd7/YGijfbG4RWdJGiY+AHsxP4qce+AU4CAAdZK4VkhqIwng99aN2E3uepOkh0gDwHO59P6hUfv6RP+76B57ZGjULjbTH0r6NUkC2I1OPaATiKH5KCKAOoh6fF839ZAEsLN1Y/ZPXtQ5kr5HGgB+x6Vv/LKgG6byM9aO2F/E0smS/o5EAexKnPB4RhpQRAB1kJgukzSDJIBdW3eH/ffWRAvk+hvSACBpq5kWDw/btqn+oGtH7cGhUb1Z21/z+TjRAngWNqxMBYoIoMZWLPJ9XHovSQB7dsNGe3RoTG/dseu9kwgQ9I3BmqER+04Nf+D213wWNE/S1wkYwNNcCwih+SgigBqb1qaypP1JAhjfzcLaUYt2bOz6BHkAAZ4FpC98/yHdVI+fHQ3b94uH61xe8wngGU7v6/N2Ymguigighsplb7XtbwUAMAFrR+3Pi6YXSfopaQBBeSIpasmmTVa3kiCKrLp21CIV9CK5/pvIgeC1zd6qM4ihuSgigBo6ONGFko4kCWASNwsjdt+OZdSfIw0gEKar1t1hDSkHhobty8WizpD0EYIHwubOhpXNRhEB1O6UZi5dSQ7A5EXD9n/Fh/Val8ZIA8i9/zc0otsafI55YmjUlrnrDZL+l0MABIsNK5uMIgKokcFevVXbXxkGYCo3CpvsqXWjVtL2He+3kQiQQ6ZHigV1S9aUjWrXjdk/FVt0Bm/uAQI9BbEioukoIoAacddVpADUztCoDUt6laRfkgaQu5uAy6Nh+1kzf4fodvvl0Ji9RdJ7JD3GUQGCcsLqS3wOMTQPRQRQA4Pd/gpJLyAJoLaGRu3fk1jzXPoGaQC58XdrR+3OFJ1n7nbpNHP9B4cGCIa1bdM8YmgeigigBrygVaQA1Mf6O+3nLW16maS/JA0g8x4qSpek7ZdaN2o/LhyhV7hptXgkDAhCIh7PaCaKCGCKBrr9dEmvJQmgfqKP2mNDo/rDHTcJCYkAGWW6JBq1zak8z0RWXTdi12v7q4R/wMEC8n46YsPKZqKIAKb+KVqz/VwGoM6XDL5uxK5301tkeoQ8gMxd9X9yaMT+LO2/5tCIffWxmTpT21/z6Rw4ILcWEEEzb6EATFrU7c+T9HaSABpn3Yj9nUwvlvRj0gAy41fFoi7Oyi+7YYNtGRq1ZZ7o9ZIe4PABuXRw/0V+BDE0B0UEMAVJUSslFUkCaKyhYftWsaBzJH2WNID0M9PF0e2WuTfgrNton6rGOkOmT3IUgfwptrBPRLNQRACTtKbkB7nrPSQBNEc0bP/nrutJAkg3N3187Yj9VVZ//+vutF8Njdj52v6az0c5okCOzk9sWNk0FBHAJBVNV0iaRhIAAOzWAy2JLs/DQIZG7e5ii04z6d84rEBOOEVEs1BEAJMQLfRZ8uw86woAQDMu8c1UisbsN7n5/r/dflI4XK9w0+WSnuIQA5k3r6vLecy6CSgigEmIO/Q+SZ0kAQDAbo2sHbF/zNugosiSdSN2kwqa59J/cpiBTJtx8iydRAyNRxEBTPQCZIlPk/Q+kgAAYDdcP9maaEWehzg0bN9qqWqBbd+rJuGgA9kUs09EU1BEABM9WbWqW9IhJAEAwC4lbrroho2W+40do7vsybVjttpNr5O0mUMPZJBpPiE0HkUEMAFdXV6UazlJAACwm2t6183rRu2zIY153Yh9uljVqS7dwwwAsoU3ZzQHRQQwASd16h2SjiMJAAB2eUX/34Wi1oQ49Ogue2jdqF2o7a/55FENICNMOnX5cu8gicaiiAAmdH2lq0gBAIBdSmTqiYbticDvaqZzjQ1kSuv0x3QmMTQWJ0lgnColf6PESQoAgF3ff+vWoVH795AziJb60XLdwGwAMnZT7Dye0fDMiQAY94dlFSkAALBLP30yUX/YEbjFse6QNJPpAGQOG1Y2/t4KwN4MlH2BSy8lCQAAdr4D90TlEN6SsSeVXr1PrtcyHYBMYkVEg1FEAOMRh7nxFgAA4zC2bqN9KuQAKiU/xlzXMhWAzDr26sW+HzE0DkUEsPeLi5NkehNJAACwk//d1qqVIQcQRV4w6U5JM5gOQGZZsZXHMxqJIgLY21lJWs1nBQCAnbnr0g/cZr8NOYPqz7VM0suYDUDmL/oXEELjcHMF7EH/RX6EpAtIAgCAZ3PpnnVj9smQM6h0+4lmWs9sALLPjBURjUQRAezpA1LUCkltJAEAwLP8X0uLrgg5gCjyQsE0KqmD6QDkAK/wbOx9FhEAu7Zjw5pukgAA4DlM741ut1+GHEH8c61w04uZDEBuHFAp+THE0BgUEcButLTrMrHxFAAAz/W3QyP2iZADiMo+V6aIqQDk7uaYVRGNyxrAc61Y5PvIdSlJAADwLA8nLbok5ACiyFuSRB8Tj2QAecQ+EQ1CEQHsQsc0XSxpf5IAAOD3zLVs/e12f8gZVDdrlfO3pkAu8dluHIoI4DnKZW+VaxlJAADwLJ9eO6a7Qw4gusifb1KFqQDk1tlR5C3EUH8UEcBzHBRrkaQjSQIAgB1MjxQL6pHMQ40girwlKepjkqYxIYDcmh7/TCcTQ/1RRADP4qaCriQHAACeZVU0bD8LOYDqZvW7NI+pAOSbFXk8oxEoIoBnqJR0vlzPJwkAAJ72uaER3RFyAAPdfrpJa5gKQP4lCRtWNgJFBPAMJq0gBQAAnvZE0VUK+ZGMctlbvaCNktqYDkAA9wMFVkQ0AkUEsEOl5K+U9AKSAABgO3dVojH7YcgZHBRr0KSzmA1AKCc+nRJd6jMIor4oIoAdzLSKFAAAePpi/Ms/eEQfCTmCgR4/U1wfAKEpbttK+VhvFBGAtj/7KddrSAIAAEnSVhXUs2mTxaEG0Nfn7W66W1Ir0wEI7iaZxzPqnzEAFbRGkhEEAACSpLVDI/adkAOY84Teb9IpTAUgQMaGlfW//QICF3X78yS9nSQAAJBk+uaDBX0w5AgGyr7AjQ2sgWA5KyLqjSICwYsLWiWpSBIAAKgqV8/wsG0LNYC+Pm9XojGuDYCAmY5eU/KDCKJ+KCIQtB0nmMUkAQCAJNcHhkbt6yFHMPsJXSvpZCYDEPiNMo9n1DdfIkDIiqYrJE0jCQAA9P1irPUhBzDQ7S+QaRlTAYCJIqKeKCIQrGihz5LrYpIAAECJXKXoLnsy2OuCsk+X6WPikQwAEvtE1BlFBIIVd+h9kjpJAgAQOpM2DI3Z54O+Lkh0nUzHMxsA7HCO5LxVr04oIhCkaIlPk/Q+kgAAQD9+YquuCTmAgR5/EdcFAJ5j36hHxxJDfVBEIEhxq7olHUISAIDAubl6P/RxezzUAFYs8n1kuovrYgA73TOIxzPqhRMugtPV5UW5lpMEACB4rtvWjtn/CzmC6e36oKTjmAwAdsKbM+qGIgLBmTtL7+SCAwAA/Wyra3XIAVRK/kqXljIVAOzGAiKoD4oIhMe0ghAAAKFz18U3bLRHQx1/tNBnmbRREpvRAdidM6MubyOG2qOIQFAqJX+jpDNJAgAQMpfuXDdm/xRyBnGH/kjSUcwGAHswLe7UqcRQexQRCG3CryIFAEDgflFt1ZUhB1Dp9VdL6mEqANgbZ8PKet2XAWEYKPsCl15KEgCAwC+q3/uB2+y3oY5/Vdk7zXkkA8C4sWFlHVBEIByJ+gkBABA015+tG7W/DDmCtlg3SjqCyQBgPIwVEXVBEYEgVEp+kqTzSAIAELBfF1u1LOjrgV5/k0xLmAoAJuCkaKHPIobaoohAGExXM98BAGF/Faovut1+Ger4oyU+21y3MRMATPSeOWnX2cRQ41CJAHnXf5EfYa4LSAIAECzT368dtT8NOYJqi26RdDiTAcBEJUUez6g1igjkXrGoqyS1kgQAIFAPF11LQw6g0utvNmkhUwHAZFjChpW1RhGBXLt6se/nUjdJAACC5boiGrXNoQ4/Kvv+5rqDiQBg0owVEbVGEYFca23TMkn7kAQAIFD/OjSmO0MOIE50q6SDmQoApuCIqNsPJYbaoYhAbq1Y5Pu4dClJAAAC9XgxUa9kHmoAlR5/q6R3MBUATFVS4PGMWqKIQG5Na9dSSfuRBAAgRC6tijbaj0Idf1T2/c14JANAzVBE1BBFBHKpXPZWky4jCQBAoL7YcnjYr6qME90m6UCmAoBacGkBKdQORQRy6eBEiyUdSRIAgABtdakniiwJNYDBXl8o6Q+ZCgBqaH4UOffPNUKQyJ0o8oKbriAJAECQXJV1o/a9UIe/puyHuOsjTAQANdapB3QCMdQGRQRyJ7lf58v1fJIAAITGpK98/xFtCDmD4va3ZOzLbABQa3HCazxrhSIC+eNaSQgAsOtrKJfukZQQRS49VXD1bNpkcagBDJR8saTzmQoA6sLYsLJWKCKQK4M9/ioXTSUA7IpL7183ahcq0Ysl/ZBEcnd810Vj9u1Qxx91+6GSbmQmAKgXc+4zaoUiAvm6CDOtIgUA2KV//cHDulaShjbaF4tbdLakYWLJyfef9J8tD+v6kDOITaOS5jAbANTxXHtGX5+3k8TUUUQgN6JeP0PSq0kCAHbyi2JVC5+5ZD+6xx4ZGrWLzfRGSf9LRJlW9UQ90SZ7KtQABnq8JNMbmAoA6qxt1hM6nRimjiICuRFLayQZSQDAs29SJb0just+sat/uHbE/rHYojNk+iRRZZOZPrh+o30t1PH3L/XDZPogMwFAg26geTyjNjkC2Vcp+7FyvY0kAODZXFozNGr/vqd/J7rdfjk0Yueb6x2SHiK1TPlBYZvWBjzDrVDVqKTZTAUADcGGlTVBEYF8iLVKUpEgAOBZF0t/v25UHxrvv752zDYlrjMkfY7wMiFJCipFd9mToQZQKWmppNczFQA0ECsiaoAiApkXLfGDzbSIJADgWX5W3ar3SOYT+Y/Wj9lPh0b1CjddLmkrMabaR9YP238E+/2/1I82hb1BJ4CmODFa4rOJYWooIpB5SYuukDSNJADgaduU6ILr7rZfT+4/N183YjfJdLake4kzhVw/KbZpIOAALK5qWNJMJgOABrNqq+YRw9RQRCDTVpW906UySQDAM2/RdOXQRvviVH/O0Ih958GCFpj0fkkxyaboEJvK0UftsVADqPTqfZJew1QA0AzmPJ4xVRQRyLTWRO+T1EkSAPC7W1T9zboR3VKrHzc8bNvWjlqkRC+R9EMCTsEFsGl47aj9S6jjr5T8GHNdy0wA0EQUEVNEEYHMipb4NJPeRxIA8LQfPlXU4onuCzEeQxvti1sTnSVpmJib6oHCNq0O9rs/8kJBukvSDKYCgCZaQARTQxGBzKq2qEfSwSQBAJKkJ4sFvfP6YXu4Xn/ADRvt0aFRu9hdb5D0AJE3nkmXRnfZQ6GOP75fl7v0UmYCgCY7uP8iP4IYJo8iApnU1eVFk5aTBAA8bVk0bN9oxB+0bsz+qRrrDEl/RewNdffaUfvrUAdf6fYT5VrHNACQBsUWHs+YCooIZNJJs3WBpGNJAgAkuf5saNQa+sjEdXfar4ZG7W3meoek33IQ6u5X1VgrQh18FHmhYBqV1MFUAJAKieYTwuRRRCCb19yuK0kBACRJ/7XVm/f2oLVjtilxnSnpsxyK+jHTJdfdab8KdfzV+3WVm17MTACQmvuRAisipoIiApkz2OPnSTqTJABAW5ToHTdstEeb+UusH7OfDo3qlW66XNJWDkvN/X9rR+wvQh18VPa55oqYBgBSxTWvq8uLBDE5FBHI3mfetIoUAEAy1yVDG+2baflt1o3YTTKd7dI3ODo18+s44DdERZG3JIk+JmkaUwFAysycO1tziWFyKCKQKQNlXyDpJSQBABpdO2YfS9svNTRi3/llQeea9H5JMYdpyi6/dtQeDHXw1c1a5WL5M4B0Muf8NFkUEciWRP2EAAD6VrGgZWn95YaHbdvaUYsS6cVy/TeHa9L+YWjU/jjUwUcX+fNNqjANAKQYG1ZOEkUEMqNS8pMknUcSAAL3WLGgd0TD9kTaf9H1o/alYlFnSPqIJOfQTYDpkSTW0lCHH0XekhR5JANAurFia/IoIpCli7KrmbMAgj8VmpZGw/b9zNxQDtsTQ6O2zExvkPQAR3C8X3lasf5O+3mo4082q+LSPGYCgJQ7bfly57XCk8BNHTKh/yI/wlwXkASAwG9Ob107Yvdk8XdfO2L/XI11hqS/4kju9UB/Zu2IRkMd/kC3n+7S1UwEABnQOuNhnUEME0cRgUwoFnWVpFaSABDwzek3H52pq7I8hOvutF8NjdrbzPUOSb/loO7SE27qlSzIR1miLm/zgu6W1MZUAJCRO+oFhDCZ2ICUu3qx7+dSN0kACNhDxVhv27DBtuRhMGvHbFOxoDNk+gyHduevvXXD9j+hDj7p1KBJpzENAGQIG1ZOAkUEUq+1Tcsk7UMSAEJlplK00X6UpzFFw/az4mF6tUsrJD3JUZZM+kLxcN0S6vj7u32eS6uYCQAyhg0rJ4EiAqm2YpHv49KlJAEgYKNrR+wv8jiwKLJk3aj9UTHW2S59I/DjvLUQqzeKLAlx8H193m4F3SmphY88gIw59urFvh8xTAxFBFJtWruWSuKDDSBU/7M10RV5H2R0p3235XAtMOn9kuIQD7SbronutO+GOtFnP6m1Jp3CRx5ABlmxlcczJooiAqlVLnurSZeRBIBAVRPpwhs22qMhDDaKrLp21KJEerFc/x3SgXbpvl+aPhzqRO8v+blyXclHHkBWGY9nTBhFBFLr4ESLJR1JEgBC5FK0ftS+FNq414/al4rtOksK5vWV2yzRkuFh2xbiPF++3DsK0p2SinzqAWSWsSJioigikEpR5AW3/C9HBoDd+PwPHtYHgv0O+Kg95qYfhnHtqmuHNto3Qz3WMx7ROklz+cgDyDhe4TlBFBFIpeR+nS/X80kCQIAeLrbowk2bLA41gIGSn22utQEM9Xu/7dB1oR7n/l5/oUzL+MgDyIEDoqV+NDGMHzsTI5XceX0XgDCZ6b3R7faTUMcfXeoz4q36U5nacj7UOHEtuflm2xrkcS779DjWXTIVJP1I0ndN+nHi+l8z/Xqn6wJpprn2UUH7uOsAMx3orsNMOljSgeIv1wA0+6Qe6xxJPyGJ8aGIQOoM9virXDxnBSBIf7J2xO4J+kJuq26W6fjcD9T0R+tH7SsBX7CfaNLywhb9e3SPPTKVnxV1eVu1U8fKdeKOuXOipDN3vIWjTQDQiNO66xxJnyCJ8aGIQOq4sRoCQJB++lRBl4YcwECvXyDXkgCG+v3iNl0T8rEeGrN7Jd1bi58VbbKnJH1vx//9/n/v8jbN0SmJ62x3vVjSyyQdxakGQF3uYXhzxoQYESBVF6ElP1vS10gCqMEXYkHHrRu2/8nzGCs9/noz/WMOhhJLesXQqP17qPM1WupHx1XdK2l2zocaK9FLhjbaFzlLNV5/jx9VML1MrjfI9DpJc0gFQI08Xjxcs6PIqkSxd6yIQLqYVsmJAUBopz59YG3IJUTkLfFm/bHyX0LIpBvXUkI0zfox+6mkuyXdHUXeUt2sF5vpPLm6xGoJAFOzjzbr+ZL+kyj2jiICqVG52I9XrLeRBICQmPSVXxT0/pAziO/XgKQXBTDU/3p0pgaY9emw428tP7v9/3zlQI9eqIIukOsd2r4BJgBM7Pts+z4RFBHjwA7DSM/FeKyVkookASAgjyeJFg8P27ZQA+gv+4vl6g9gqImk0oYNtoVpn8qrEB8as88PjVjf9x/WoW56jUybtP2xKQAYF/aJGD9WRCAVom4/NJYWkQSAoG59pGVDG+0HwZ77l/jsONE9CqOE/kjIe4BkyaZNFkv6tKRPV8p+bCHRxS6VJXWSDoA9fq8XKCLGixURSIW4qOWS2kkCQDhXK/rk2lEbC/zcf5ukIwMY6o+LbTySkUXrhu1/1o7aymKbDnfT5ZJ+RioAdst1yopFvg9B7B1FBJouWuKz5bqYJAAE5P7qVpVCDmCgx7tluiCAoSaJa0n0UXuMaZ/ha5WP2mPrRuymBws6zqRuuX5CKgB2odjRrrOIYe8oItB0caveJ2kmSQAIhJup97q77dfB3tT1+HEy3RjIcG9ZP2b/xrTPh+Fh27Z21O58sKgTJF0s6X5SAfCsL3n2iRgXigg01fLl3iFXH0kACOgKZcPaEfvHUIcfdXlb1fTnCqOA/tGWrVrDpM+f4WHbNjRqw4/N1PEuVSQ9TioAJMkoIsaFIgJNNeMR9YhXZAEIhEvfLsZBvCFit5JOXWsKYtmqm7T0Qx83blBzbMMG27Ju1NYXE50gaVjb344CIGzziWDvKCLQNFHkLTJdQRIAArHFTBdEd9mToQZQ6fbXurQ8hLGadPvaUfsXpn0g1zQb7YGhUbs4Mb1E0ndIBAjaMVdf5AcQw55RRKBp4s26QNIxJAEgCK6VQyMW7A3K1Rf5AVbQXYFce/z0yUSrmPThWT9iX3iwoDPdtFrSVhIBwtTKazz3iiICzboiN5euIgcAgfiHoTHdGvI5v6VFd0o6JITBuql0w0Z7lGkfpuFh27ZuxK4vuuaZ9DUSAQL81qOI2CuKCDRFpVfnmXQaSQAIwK+KVfVI5qEGMFBSn1znhTBWMw2vG7FPM+0Rjdm3C4frBSa9X1JMIkBAnCJibygi0JyJx5JVAIFcipirJ7rLfhFqAAO9frKkDwQy3PsL27SaaY/fiSKrrh21yBK9RtJmEgGCcc72PYux2/tBIkCj9Zf8XDe9mCQA5J7rtrVj9rfB3oQt8Wnu+hNJHUEcblcpusseYuLjudZutM9Un9IZMn2KNIAg7Bv16Fhi2D2KCDRj0vFOdQAh+F6xGPZeOEmLPhzMY3imjevG7J+Y9tid6+62X3//Ib3RXNdLchIBcv4daLzGcy/3hEDjRD1+iqQ3kQSAnHtKroXRsD0RagCDJX+LS5cEMtwHt7VoBdMee7Npk8Vrx2y1mbokPU4iQH652CdiTygi0FCxaZUknpcCkPerj/6hMbs31OH3L/XDXBoNZsCmyz9wm/2WiY/xWjtif6FELxL7RgA5/mqgiNgTigg07sL0Ij9C0jtJAkDOLzz+7fuPaEOo448iLxSq+pik/QMZ8j8PjdifMfMxUUMb7ZtJi86V6ZukAeSPS2eVy95KErtGEYGG2fGsNB9GAHn2m4K0cNMmC/ZVffFmrZT0qkCG+0RAj5+gDtbfbvcXt+nl5voP0gByZ9qh0qnEsGsUEWiIqxf7fi51kwSAPDPp0mjUgl1q3d/t8yS9P5gBu65ZN2o/ZuZjKqK77KFCUa/jjRpA/sTO4xm7QxGBhmhp1eWS9iEJALll2rh21P482JupS31GoaB7JLWFMF6X/vPBom5i4qMmn59he6L4kP5A0l+RBpArvDljNygiUHcru32mTO8lCQA59j9bY10ecgDxU7pV0gmhDNdMpeFh28bUR61Em+ypBwt6p1zsOQLkhLMiYrcoIlB37aaLJc0hCQA5VVVBC2/YaI+GGsBAj79b0uKAhnzr0Ih9lamPWhsetm3FI7RQpltIA8g+k05a2e0zSWJnFBGoq3LZW2W6jCQA5JVLa4eG7cuhjr9S8mNk+mhAQ36wWNU1zHzUSxRZMjRifW5aTRpA5hXbCjqbGHZGEYG6OijWeyQdQRIAcurzP3hY14Z7w+QtJt0jqTOgYa+M7rKHmPqot3Ujdr1cfZKcNIDsMh7P2CWKCNTzArUg0xUkASCnHiu6lgT9qs6f6xpJLwjmYlL6wtCoPs7UR6MMjdktUtj7zwA5QBGxCxQRqJvqZr1N0kkkASCnLonG7IehDn6g5C+R6eqAhhwXTO+VjL+dRkMNjdpHJC0nCSCjjCJiVygiUM/JtYoUAOSS68+GRu2PQx3+6kt8jrY/klEM5zpSt0cjdh+TH80wNGo3SuonCSCTjlhT9kOIYad7RaD2Kr3+apfmkQSAHNpcVNivJG7ZptsU1v4/v972FBtUormGRu1ac91EEkAGvzcTVkU8F0UE6sKc1RAAcilOXAujMftNqAEM9HjJpHcGNWjX6uvutl8z/dH0C/cjdIVMnyQJIHPmE8FzzmdEgFqLev0MSa8iCQA5dP36Mfu3YM/vPX6cTBsCG/b3i0foLqY+UvEZjCx5bIbeLemLpAFkh7Nh5U4oIlBzsatfkpEEgDwx6WsPFhSFOv6+Pm+PTZ+QNCOo4+5aGUVW5ROAtNiwwbYUW/RWST8jDSAz5kvO/dEzUESgpiplP1bS+SQBIGceTxJdODxs20INYM6Tuk7SmYEN+9/XjtnfMv2RNtHt9sui6S2StpAGkAmzK906gRh+jyICNWWJViugXdQBBHJuMy1ft9F+EOr4K93+WnddHtq4E9NqZj/SKhqx+9x5rSeQmRtvXuP57DyIADX7QlziB0u6kCQA5Mxfrx2xkVAHf/VFfoAVdJfCe+TuL9eP2BeY/kizdWN2h0wbSQLIAGPDymeiiEDNxK26UtI0kgCQIw/G0sXhDt+tpaiNkkJ7/3lcjDXA9EcWFLfpvZK+QxJAyr9RnRURz0QRgZpYfYnPkYd8sQ4gl9cMiRZfO2oPhhpApVeXSXpTcAdeuju6077LRwBZEN1lTyaJlkjaRhpAipnOiLq8jSC2o4hATbRW9V5JM0kCQG6uF0w3rttonwr25qbHTzHXdQEOPW4xfYBPALJk/Ub7mlzrSAJItfZ4tk4nhu0oIjD1i9WyT5erjyQA5IVL//nbabo65PP6jld1dgQ4/D+NRuy/+BQga4pH6Fq5vkwSQIqvL3g842kUEZiyOFa3pANJAkBObG2RFt18s20N9ryeaIOkkwIcelJ0Xc9HAFkURVZVQT3iEQ0gtUwUEb9DEYEp6eryoiy8V7oByLWV0aj9Z6iDH+z18yWVAx3+/xeN2bf5CCCrhkbsOybdSBJAalFE7EARgSmZ26l3STqWJADkgulTQ6O6OdTh9y/1w9wV6qtKvSit50OAzF/cFxTJ9ROSAFLpxGiJzyYGighM7ZrNJK0kBwA58aviNr1HMg9x8FHkhUJVfyxpvyCPvumvQ14Jgxx9loftCZeWkwSQzm+baqvmEQNFBKag0qvzJJ1KEgDywE2l6C77RajjjzdrtaSXh3tpyJsykB/rxuyTMn2GJIAUft2wYaUkighMZfIkWkUKAHLi9nUj9jehDn6g1+dLigI+/p8fGjbeNoBcSWKtlOQkAaSMaT4hUERgshetJX+Jm15MEgBy4IfFNl0V6uCjS32GEt0jqTXYa0LTBj4GyJv1G+1rkjaRBJAyrgWEILUQASaJvSEA5MFTxYLeGX3UHgs1gPgp3SbT8QFfEP7kew/rk3wUpi7q8rZqp46V60STTnDpOCtotqROSzTdTR2SZNLj7npcBT0m6UGXfqhEP5DpBy2H66dRZAlp1kbR1R+bzlfARSOQQodEJT88GrXNIYdAEYEJGyj7qUp0HkkAyMFN6EA0bN8I9nze6++Q68Kwp4A+smmTxXwYJm75cu+Y/rjONteLzPXqWHqJSe2y7f/cdgQs7dje+veZb/+H/ox/b8c/jzfr8YGSf9FNnzbXp4uH616KicmLxuyHlZL/sUkXkQaQHtXtr/GkiAAmJNHK318yAEBmfbZ4hD4U7A1Ktz8vVrCv6vydR7cVtZGPwviVy956oOt1lmihHtVbpO2rHGpoH0mvNterJSnerF8O9vifuvSxoTG7lyMwqeu261XQe8Qj2UBqFLZvWPmXIWdAEYGJXbgu9aPjqi4gCQAZ99sk1uKhQP+mtVz21jjWn8g1K/B5MHb9sD3Mx2Hv+nv8qILpciW6UNL+DfzriAPdtEzSsoGSf0vSaLGg0WjYnuCojM+6jfaDgR7/K5neThpAOniBN2fQjGJCkqpWiAILQNaZLl1/p/081OEflCiSBb9ZlhdNt/Fh2LOox48bKPlNBdMPJF0uaf8m/jqnSropTvTTwZJHq8reyREat/XiDRpAir6BNK+ry4shR0ARgfFfjCz1A51nDAFk/rtfHxsasT8LdfyVkr9c0mpmgj4Xjdh/EcOurSn7IZWS/3G8vYC4TFJ7in69/V26pi3R/1R6fVnoF/PjseOxln8jCSA1Zp48QyeGHABFBMYtqeoySdNJAkCG/bhliy4LdfCrL/E5Jn2M739JHvz+GLsURd5S6fVlRdf3TVqY8rmyn7lunDtbX+8v+bkcvT0z6Q5SAFJ0b1UMe2UiFyIYl5XdPtOlS0kCQIZVlWhhdI89EmoArds0JulIpoJ+U4zD3iRsV6IePyXerG+Y68ZM7R/iOr0g/cdAyW+Klvg0juSu/bZDfynpVyQBpMb8kAdPEYFxaStoqaQ5JAEgq1xaN7TRvhjq+Cs9frGk85kJkrk+Ht1lT5LE7w2UfHFs+pK278OQRUVJl8Ut+kLU7c/jiO7s5pttq0l3kQSQmuuSoDespIjAXvX1ebtJy0gCQIZ9seVwrQ918JWSn2SmDzMNnr74GSWF7aJLfcZAj/+ptj+ys08OhnRmXNDXKr3+Jo7uzpKiRsSmlUBanBbyKi6KCOzV7Ce0SNJhJAEgk0yPFBNdGEVWDXH4fX3ebqY/FXv8/M4XozH7NjFIV1/kB8RP6V9luXst9xxz/U2l1/s4ys+27g77b0lfIwkgFVrjgs4MdfAUEdijKPKCTFeRBIDMcvVFG+1HoQ5/zhO6Xq7TmQhPz4eNhCBFS/3olqL+Q/l9RtnM9ZGBXq9wtJ/7EdCfkwKQks9jMdzHMygisEfVzXqbpBNIAkBGfWJo1O4OdfCDvf4Gt3DfErILTxSf1CdCD6FS8pPiqj4fxPe7a2iw5DdIbkz/7VoK2iQezwDSco4KdsNKigjsbYKsIgUAGbW56Lok1MFHS/1A3/63/9yA/d5fhvzWFEnqX+qHmfSPkg4N5zpfVw32aAPTf8e5Ydh+ZtIXSQJoPnNWRAA7qfT6q12aRxIAMihxaVE0Zr8Jc/hucVUfk3QwU+GZqehjQd+A9vi+hVifknRUgMd+2faVEZCkRPokKQApYDou6vF9Qxw6RQR2/7lwVkMAyOz564PrRu2zoY6/0qPLJb2emfAsv/rBQ/pMqIOPlvi02PR3cj0/1Axcumqg5Ov5KEgt0j+TApCOS5akEObjGRQR2KWBXp8v6dUkASCDNxvfKDyiwWDP32U/1UzXMhOeMy9cn9y0yeJQx5+06MOSXsBM0JqBHi+FHkI0qm9JeoDpAKTg/Bzo4xkUEdjNJ4LVEAAy6YmWghZGm+ypIG8uyj5diT4haRpT4TkXPAX9VahjH+z1t7vC3S9lJ6Zb+nv8nMBDcLk+xWQA0nBKoogAtl/I9voJMp1PEgCyxl1XRMP2/VDHX411o6S5zISdPPrbafrXEAdeKfkx7hplCjxLe8H0F2tKflDQNz9GEQGkBI9mAJIUu65ibgDIHNffrBuzO0Id/mCvv91MvUyEXc6Nz9x8s20N8mZTGpE0m0mwk8OLprHAr/e+wDQAUuGg/h4PbhNhbjbxLP1L/TBJi0kCQMb8MjaVQx18VPLD3XUH02C3/iXEQQ+W/J2SXsXh3w3XeTsyCtL6MfuppPuZCEAKbsoLWhDcmDnseKZiVcsltZEEgCzdTpir+9pRezDEwUeRF2LT3ZL2YyrsZoJ4eEVEVPbpLl3P0d/L3JBuicq+f8ARfJlZAKRCcI9nUETg9xctPb6vK9y/UQSQWTevHbO/D3Xw8f1aI9crmAa7tXndRvtBaINOXBVJR3H492r/ahzuW2Zc+hJTAGg+C/DNGRQReFrV9F5JM0kCQFa0SD8sVsN9y89At79ArmuYCXu6utMXQxty1OP7uut9HPxxThHTRVGPHxfi2AuubzADgOZz6eyuLi8Gdf7hsEPavoTTpD6SAJCpc9eY/TC6y54McuyX+gyZPiaphZmwR8H9jS9/sTBhLVXTmhAHXnB9j8MPpMI+J3fq5KDOPxxzSFLV1SPpAJIAgIyct5/S7TIdTxJ7kYT1DDx/sTA5Ji2Oev2E0MYdbbQHJP2WGQA0XxzY4xkUEVC57K3mupIkACAbBkq+2KSFJLFX1cdmhbX0vBprkfiLhckoxomWBTr273P4geZzUUQgMAfHukBsaAUAmbDjWfZbSGJc/mfDBtsS0oDNtIjDPtnw9K5oiU8LcNw8ngGk47MY1JszKCKC55aYVpIDAKRfFHlLYvq4eP5/nF9x+nZIw+3v8aMkvZADP2lzkqL+ILhRJ/ophx5oPpNOXbHI9wllvBQRgRvs0ZtMOoUkACD94s0aculckhjnRZ2FVUSYafH2a1lMlhf0ngA/J/dz5IFUKLZ36MxQBksREfoXroX72jsAyJJKyV8psYJtgoJacm7S+RzyqV4Y6XXRQp+lsCbOAxx4ICU35wFtWEkREbCBkr9E0otIAgDSbfUlPsekO/nenpjY9eNQxhr1+L6STueoT1lLMk0vCWnAbtrMYQdS8nmkiEAQWA0BAJnQuk13SjqSJCaYW6yfhTLWqvRSrutqdnX8qpCGW92mX3DQgbTcnlFEIOcGyn6qXG8kCQBIt0rJL5H0FpKYsK3RXXowoAu6l3PIayNxvSKk8ba7HuWoA6lxTLTUDwzkewsh8kSrxIZWAJBqA71+skl/RBKT8nPJPJjvdTYxrRmTTlu+3DtCGW90lz0paRtHHkiHZFsYr/GkiAhQpeTHmPROkgCA9Orr83ZJ90jqII1J+VVgd88ncMhrd30843EdF9iYH+OwA6k5n1NEILcH/UpJLSQBAOk1c4tmy3UoSUz6Qu43oQz16ov8AElzOOi144lODGzIPJ4BpOX8E8iGlRQRgYmW+oEudZMEAKTbtaP2oLl6JDlpTOJCTuEUES0FVkPUmim4TJ/iqAOpOQHNlzz3j9BTRAQmqeoyscwXADJh7Zj9rUkfJYlJXOAk4RQRMh3DEa+5I4K79QGQFvtXynpe7r+nOc7hWNntM126lCQAIENf1FWtcOk/SWJi3LQloFvIWRzxms+ffUI71XDUgRR9IJP8P57BSScgbQUtFc+QAkCmRHfZk2Z6txTQjXVtbs7DWWqeaAYHvMbTxwPL1FkRAaTsOyz3G1ZSRASir8/bTbqcJAAge4ZG7DuSVpPEhATzOkIziog6CCtTo4gAUsW1IO9DpIgIxJwntVhi93UAyKqhUd0s6R9IYrzXcOEUEW7s/VQHrYGNt8ghB1L1HXZmuey5Pg9RRAQgirzgrhUkAQBZZl6NtUTSL8hiHJJwrnHMeWyn9qHqocBGzGvdgXTpOCjWKXkeIEVECNdiP9fbJV7tBQBZd92d9iszLRGv9BzPjWQwN1aJ6XEOeK1DpYgA0PQ79QX5Hh5yz02rSAEA8mHtiP2zuT5CEnu9wAlmqblJj3LEax7qQ4GNmEczgPTJ9YaVFBE5N1jy10g6myQAID9+O12rZPomSeyeh/SMv+sRjnjN589vAhtyK0cdSNl5yPP9Ck+KiPx/kbIaAgBy5uabbWuxyis998jUFspQk4J+wgGv+QXyf4Uy1q4uL0rah6MOpO1rTCdFl3pu3+BDEZFjA70+X9KrSAIA8ie6074rYyPi3fFEnaGMtbUQzk1zAy+QvxfKWI/r0Ozt9zwAUqZYfUrzcnyeRW4lrIYAgDwbGtFtcv0NSezMpH1DGWt0u/1SCm5Pg3qKVQ2n3ClO02wOOZDS77IcP55BEZFTlW4/UabzSQJAnvX3+EsrJT8p5EuUYlE9kh5gNux0hbNvUON1/YCDXrMsfxTdZU8GM9yq5nDQgbR+zed3w0qKiPwe2as4vgDy//2s6SbdE3V5W6gZRMP2f256j6SEGfGMmysP7ObK9GWOeo3mjunfQhpvsaj9OOpAarEiAtnRv9QPM2kRSQAIxJnxbA2FHMC6Efu0TB9mKjzzvlwHBjVe02c56jW7OP5/IY3XEx3BUQdS68hoiR+c03MtcndQt+kKSW0kASCcK2mtqJT8lSFH8KBpjUlfYTI87eCQVsoUEn1OrIqpydmkUNVnAhvzURx2IL2qrflcFUERkTNRj+8rUy9JAAhMwaS7Vl/iwT7rPDxs25JEiyU9znTYPieqc8L5m95ozH7j0n9y2KfGpW9Fd9kvghq06UiOPJDiLzOniEAGxNL7JM0kCQABOqL1KY2EHMC6jfYDMy1nKuy4yKmGdYNlrr/iqE+R688CHDUrIoA0n5ZyumElRUSORGWfLtP7SAJAsExvH+zxoPfIWTtiI5L+kskgqaCjg7pYLeoeSc6Bn7TEE/1xgOM+hkMPpPnkrvmSW/6+opEbVVePpANIAkDQ39cF3VIpedAX1kVXr6TNwU8G0/EhDXfdsP2PSV/kLDBpn11/p/08pAGvKnunxGaVQMrNiXrz931GEZET5bK3mutKkgAQPNcskz7e1eXFUCPYsV/AIgW+eaG7Tg1tzImC/Bv9WrkztAG3uE6WZBx6IN3iHO4TQRGREwclepd4xg8AfudFc2fr6pADWDdqnzXT9YHPg9NCG/CTW3W3pP/jFDBhPys+rE+ENmhLwivrgEx+VkURgVRyc+kqcgCAZ54adU1/yc8NOYLCYRo06UsBR3BEtMRnhzTgD33cHnfpFk4AEz1d6APRJnsquHOE6WSOPpCBcxQrIpBGgz16k0mnkAQAPEtLwXV3dKnPCDWAKLJqwbVI0qOBRmDb2sL7fmxx3SzpMU4B4/ZASzW8xzIkyaWzOPxAFr7NdEbU5W15GhJFRB6+REyrSAEAdvnFfXz8lDaEHEE0Zj+U6bJgp0CiBQEe89+IVRETOU+sj+6yJ0Mbdl+ft0s6mwkAZEJ7PFun52lAFBEZ19/jL5X0IpIAgN0qDfZ4V8gBDI3YXS79aZj3mGF+R25NdK2k+/n475lL3/j+Q7ojxLHPfkLzJE1jFgAZOV/l7PEMioisH0BWQwDA3r+8TR+Nuv3QkDPYVtAlcv0kwKEHWUTcsNEeNfaP2pvEpfdu2mRxoOfFFzIFgEyZn6v7WI5ndkUlP03SG0gCAPZq/7ioOyUP9jV11w/bw0lRiySFdtN1YNTjx4V4zNeO2p/K9Bk+/rs1vH7Ugt3M1SgigGx9ZsWKCKREVVop3v0MAOPjem2lN9y9EiRp/bD9h0zrQxt3YnpJqMe8GKsk6WFOADv5wdZEK0MdfBR5i1wvYxoAmXLiqrJ35mUwFBEZVSn5MSa9kyQAYPzMdf2O1WTBKh6mIZO+ENKYE+l1wd5wbrQfuVTi0/8sT8r1rhs2Wqhvk9G2B3SupDlMBSBb9+7tseblZjAcz8xeTK+Q1EISADAh7bH0J8uXe0ewN6aRVRPpQpke+f/bu/84u+r6zuOv770zk0wSkhCQ8COAIj8SA4JACFh/ULUWf1StOlYJCcnMnUv4ESQYEpLMHU9JoOpa2cr6axhQAd22lF13u93uPmwfdqtdH2XbWu3alVK1KNiyj65SASNk7v3sHwmUH0mYH3dm7jnn9Xw84gOTmXvP9/393jnnfOZ7vt/SnDPhjVkWpT1n7h5NvweM+PHfL9i067b0jVLfzbR8tFfKo1aBHs+wEJFDO2qxlMQGk5CkSVl52GPlezzhOTem309wRYmafHjzh+XbxvOZHjuMaxLcW/YPf0p8ZtdtabTsOQRc5KlAyuHPsIqFCM2iKlwN9JqEJE3yIjy4ZrgWv1TmDG64NX0BuKtEN6Cl/g3wzTenPZUKbwHuK/Hd9z3/5xGuLPvPv6w/jk3wCs8EUi5/jlmI0CydPNbEQsr1WyxJmpb70oDPbV8XR5Q5hOoergS+V4a2tuDtpb+GGEn/3Ap+GfhR+T7xfOWReawp61adzzRWpQ8XO5fy6tidG+O4IjTEQkTONOeyEVhsEpI09ZN5V0+5n5vPvpB+SotLgLHi34dyejYQp5d90N94W3qAChcBD5eo2V+t/ox33HJLesIfe5DCxc6lPKs2izErwkJEjmzaFHNIvN8kJKlt3tkYiP4yB7Dr9vR1gl1laGvT3ab29flI+puACwjuL/5dN1967DB+OftC+qk9D1k9TgDONwkpvyIsRGiGLd7DpcCxJiFJbb1R+Xg2GKeWOYLq8ewm8ZUS9PX7IJySzr4FS5uJVwf8VXG7m09Uj+NdN9+c9tjj+4wF78PHMqS8sxChmdPXF1X2bdkpSWqv+c0Wd5R5e8csS61qYj3wSMGb+tLGYHH2YJ+qm0bTw0+2uBD4vYI17eckrrxhNF2VZallTz9DcIkhSDmXODfLIvf38RYicmL5Yt5F4hSTkKRpOamvbj5Eo8wRZCPpBylRK8GNWM0B/68+cnt6dNdo6gMuBX5WgCbdV01csOvW9El799kaA/ELCU43CSn357GFPMDyvDfDQkRexluwzRQkaVpP7Dt2DsYryxzBDbemewg+V/BmXry1Pw5zwD/brtF0By1eSeJvc3upFNy65wnOyW5Nf22PHiCgCpeZglQMza78P55hISIHhvrjjQnONglJmlZdleCu/dskl9aeJ7kKuK/ATVzQk7jY4f58u25P33w4cVYkriGRp8Udv0Hw6t23pfpH70yP25PPl62PxSl4l0lIBdFiVd6bYCEiB1LF2RCSNENeMtbLx8scwEfvTI+TWAvsLe6JlY0O9QMbGUl7d9+afqtV5WUBvwNEBx/u/41gY3UZ5+66Lf2ZvXdwY1U2APNMQirIaSw5I0LTbOdAnAe8ziQkaabuUbm0MRjvKXMGu25N/wsYLnAfn9Woxasd7Qd346fTQ7tH03upcCbwRWCsYw4u+IeAqx47jBfvvi19xgUpD61ej+7k9u9SoQS8PFsfc/PcBgsRnd5BydkQkjQLZ/hPZ7VYVuYIqsv4SKG39PT8Oi67RtLf7BpNa6otTkvwCeAns3fdzVeBtdXjOWX3aPqE23KOz9IW7wNONAmpUHr2dnFWru9z7cPOldVjOfAOk5CkGXd4Ez5fhO2xJn0OylKrGqwDflzIBgZvzgbCHQTGOx5uT9+7YTRd9Ugvx0TwqwT3AD+f/m7iW8D2aoUX7xpNr9k1mu7KsjRmj4w7wQRsNQepeCrk+/GMLruwczWD67BYJEmz5XXNH3It8NHS3nyOpgeHajGY4J4CNi+NVdgKrHOoj98tt6QngC8BX8quiAVjT/CqClwYcCGJc6Z8bRncT+J/pMSfVJp8Jbs9/cjUJ294gLcGrDQJqXgi54WIZBd26MVfLZY14btAj2lImtQJqsLJu0fSd4vcxqGBuCgl/nAa3+LJamJ12bcDHBqIkZQYLGDT9gactns0fd+fGG24dqnHvOYYp6TEqZE4JeDUlFhEsAA4HJgL/COJxwgeAx4j8RDwd7S4f8+T/J27XrT1LJCGa9wbcK5ZSIWsRNy/67Z0al4P3xkRHaoZbCZZhJCkWdbTDL64eXOcU+bn0buqXNNs8WpgecGa1p0gAy51qLehEDGSfgZ8c/8fzbLGIH0RFiGkwkqcvH1dHPEbd6T/l8fDd9p/J57IB2IJxfzNkyTl0YoFj/GRst9gViusAZ4sYPMuafTHmQ5zFUlfX1QJft0kpEJL3XPyW2y0ENGBmnAVcJhJSFKHCK4cGoy3ljmCbCT9FcHOAjatQuIGB7mK5LSF1CjeDCZJz9GK/K4TYSGi0y706jGPxCaTkKSOklIwun1DvKjMIVSP52PAl4vXu7ytMRC/4DBXEWztj8NSYtgkpBJcnMCqvB67hYgO02xRA440CUnqOEu7Knx+/3Z4pZRlqdWEtcDDRWtbJD7e1xdVh7nybk4iA441CakUVuf1wC1EdJB6PbqBa01CkjpU4k1DA9TLHMFNo+nhlNgARLG6lrOXL+YyB7nyrDEYK51ZK5XKUTsH4sQ8HriFiA6ytMX7gBNNQpI6+IY18bGsHqV+9vqGW9MfEnyqcA0Ldmcb4yhHuXI6gBNwC9BtFlJ5VMnnOhEWIjrr5LHVHCSp481rtrhr/yy20npsIVuAbxesWYePjfEhh7jyaHiAdQS/aBJSye4iKxYiNJWTR423AStNQpJy4ZyjS7413s03pz0kfg3YU6R2JVg/NBAXOcSVJ1l/HBuJm01CKqHI54KVFiI6h7MhJClP5/1g23B/lPq3j7tuTd+OxPaCNSulxOj1l8fhjnLlRTMxCjhmpXI6N8uiK28HbSGiAzQG47UBrzQJScrXOTQq3FH2G9bdt/Jx4L8UrFnHdY/xUYe4cnEdORA1Em8yCam05jd/xIrcXUTZbx0gnA0hSTm1rHsv/67cEaRoQo2ibekZ9A8PxFsc4upkQ7V4CRV+0ySkkp+JW/lbJ8JCxCzLavFysIotSTl2cWMgLi5zAPu39LyUgm3pGYnP7twYxznE1Yk2bYo5FfhdgoWmIZVbYCFCEzQG1wPJJCQpxxKfzDbGi8scwQ23pv/Ovq0Di+RF1TG+mMdnb1V8i3/GxwLONQlJFiI0IUO1eEmCPpOQpNxb1NrLnX19US1zCI/0spXENwt2cfea5oPl3iFFnacxGO8hcYVJSAJIcMaWtTE/T8dsIWI2B0ywBfC3LJJUhBvWxKuWL2JbmTO45Zb0BLCGgm3pCVw/VIs3O8rVCRqDsZJg1CQkPUN1Ti+vyNMBW4iYJdnGOIrEBpOQpEL59UY9Vpc5gF23pm8HXFewZlUS/HY2EKc7xDWbtq+LIwi+BBxmGpKedaKKfD2eYSFilrSaXAP0moQkFUoXLe7KrogFZQ5h92j6BMF/LlizDmvC72cb4yiHuWZD1hc9XT3cA5xsGpKef4PJqjwdroWI2TiRrImFEVxuEpJUSCe39vLRsodQrTIA/GOhGpV4cWsv92zaFHMc5ppZkcYWMwq81iwkHeQc5YwIHVpzLhuBxSYhSQW9ZQguGxqMt5U5g2wk/XOCS4FWsW4HedXiPYxmWXgNpRkzPMiNKVhrEpIO4aTtG+JFeTlYT6IzbNOmmEPi/SYhScWWgtt21OOYMmdww2j6coKbC9i0S5o/LNxWpepQjVpcE8F2k5D0QqrV/DyeYSFihi36GeuBY01CkgrvyGrwOYhU5hD+qcL2BPcWrmGJKxqD4baemlbDtdgAfMwkJI3z5v68HB2rZkpfX1QTfMAkJKkkgjcODXJVmSMYGUl7KxUuBR4vYP8ON2pxjQNd06FRi0sCRoFkGpLGdVoKCxE6gBWLeDeJU0xCksojBR9p1OOMMmeQjaTvANcWtHkfawzGtY50tSog7VsAABavSURBVFOjFpcAn/VaXdLELjo4Ly8zMf3hNoMKuK+6JOmFzY0WX8zWx9wyh7BrNI0Av1vIy77gN4dq8UGHutqhMRgbgc8DXaYhaYKOGKpzUh4O1ELEDBkejF8GzjEJSSqfBKc3u9lV9hz2drMR+EFB+zgbHogPOdo1FUO1uI7gU16jS5r0DX4rH49n+ENuhkSw1RQkqcwnAq4dHojXlzmCD30q/SS1WE/BtvR8uosT24YH42NlX6BUkxs9w4NxU4KPmIWkKUn52DnDQsQMaAzGKuB1JiFJpVaJxOe3r4sjyhzCDbenr1Dgm60INjdq3JFl4bR6jUtfX1QbNT7tFp2S2nQeckaEnhoNnlgkSQAc19XDSNlDqC6jQfDnBW7iJc0H+Q+bN0evQ16HsmlTzFm+iN8G6qYhqU3Oqdeju9MP0kLENMvqsRx4u0lIkvZ7Z2Mw1pf63JilsehiLfBYgZv5Kwse5b9ef3kc7pDXQa4Rj1y8hy8D7zYNSW00d2mT0zv9IC1ETLOxFlvNWZL0LMEtQ5dFqbdz3v2ZdH+CqwvezAu793Lv/l9KSE/LBuPUZouvAa82DUntv8zo/MczvEGezpNMLZYlWGMSkqTnWJCafCEPUyen0w2j6bMB/77gzTy52eLPhmrhWlEC9u2k1gzuBU4zDUnTIgcLVlqImEatxLVAj0lIkg5g1VEtdpQ9hK4xrqCgW3o+w5IE/21oIC5z2JdZpMZAbI3gD4BF5iFpuiRnRJRXNhBLIhg0CUnSIS4Uhhr9cUGpz5efS4+0KqwBmgVvandKfLpRizu3rI35jv5y2VaPRY0B7ibxYaBqIpKm2cqt/XFYJx+ghYhpMpbYBCwwCUnSIXRR4a5Ov1iYbjeOpK8luKkkzb2kdw5/kQ3E6Q7/cmgMxqqeFt8g8S7TkDRT9/lzqpzd0QdoH7XflrUxP8FVJiFJGoeTeir8VumvmJZxA/D1kjR3eTPx9bLvnlJ0fX1RHRqI7QR/BrzERCTNpIjOfjzDQsQ0mDuXGnCkSUiSxiPBhsZgvKfMGWRZGgtYQ+KnJWnyAoLPNmrxBzvqcYyfgoKN5/44afkivpISNwHdJiJpFq4tLESUSb0e3SnYbBKSpAkJPr1zQxxf5gh2j6bvE1xZsma/udrir4cG4h1+CArxQU6NWtSbFb6FW3NKml0WIsrk6CYXAyeahCRpgg6vVLk9y6LU5+Zdo+mugC+UrNlHpcR/bNTizmxjHOVHIZ8a9ThjeIA/BT4DuCCppNl2QrY+ju7Ug7MQ0VaRWokt5iBJmqQ3NB/imrKH0NXDRoL7S9j0S5pj3Dc0GO/v6wt3VsiJrB7zhmuR0eIvIvEqE5HUKca6O3dWhIWINhqu8bYEroItSZq84KZGf5xZ6hu7T6bHCC4FxkrY/MUp+LfLF/HVbDDO8gPR0R/W1BiM9zRb3BfwQaDHTCR1ktRiVacem4WI9tpqBJKkKZpDlS9u3hy9ZQ5h1+3p6wS7ShzBBc3gLxuD8bvZxnixH4vOsrMW5w8P8KcEvwMsMxFJHXq374yIomsMxmsDXmkSkqQpC1624FE+VPYYvvNTbgS+WupLyKCvOca3G7W4MVsTC/1wzK6hWqxo1OJLFfi6j2FIysH1xCqI1JknOLVHi22GIElqo03DA/GWMgdw992pWYWLgR+XfCzMA3Y0e/necC2ybH0s9uMxsxqDsXJoMO5I8C3g7SYiKScOzwY5pRMPzEJEG2S1eDmJi0xCktRGKRK376jF0lKfY0fTgwGXORwAOCLgg81uHhgeiA9df3kcbiTTf403NBh3EHwzBWuBLlORlCfN6MzHMyxEtMEYXA8kk5AktdlR1X1bAZba7tH0ewSfczjsFyyMxLbuvXy/MRj/xjUk2ivLojJci7c3avFHTZ4uQLiLiaRcSliIKObJqj9OSvAek5AkTZO3Dw/GYNlDqM5hE/D3DodnWUSwpTnG3zdqcU9jMF5rJFO4plsfixuDcW3zQe4P+BLwelORVAAduXOGv8WfouFafDLgcpOQ1Gmiwsm7R9J3i9zGoYG4KCX+sATd+Xi0OGf37em+Mo/pRi3OAf4nbpN4KN9J8DuVCrdnI+kHxnFoWRaVsYd4HbAuBe8E5puKpIJ54pFeFt1yS3qikw7KGRFTsKMWSwM2mIQkaZrNTxXurNeju8wh7BpNfxlB5nA4pOUBH2y2+G6jFr8/VIt3l30r2ANp1OKcxmB8uPkgP0zBl/c/fmERQlIRzVn4OGd02kG54M5Uwku8P4K5JiFJmgGrjm7xQWCo1Ofe4/lw80HeALzOIfGC13hvTfDWBY+yp1GLPwbufrLCf/rwSPqXsoWRZVFpPsgrEvxKBBcDpxAOEknlUKlyHvAXnXRMPpox2RPamljY7OUHwCLTkNSJfDSjkJqtChfeOJK+VupzcC2WNeGbwBI/6RP2c+BPSHyZxJd3jaS/KWpDd26I4ysVfikSb0j71ns4yu6XVMprQvj87tG0vpOOyRkRkzQ2j8tTWISQJM2oaqXJndvqcVYZf6v9lGw0PThUi8EE9zgkJmwucBHBRQQ0avGPkfijFHyNCl//zk/427vvTs0cXmanoRrLK3B+wPnAa4HTwN+6SVIn7pzhz+bJXACtj7nNLr4HHGMakiSpQB4F7k2JewO+VQ3+ln/hO9nd6clOOcAta2P+nG5WVKqcnoKXBbwcWA0stvsk6YBaT1ZY0km/xHBGxCSMVbk0WYSQJEnFcxjw+oh9W1c2ARYx1qjF/STuSy0eiMQ/BPwgwQOtLv7pZ738+Oab0552vHk2EEuAJXthSYIllcRxkTiB4MXAiQQnkjgRSAQu8yBJ41OZ0+Rc4I875YAsRExQX19UU2KLSUiSpJLoAlYQrIj9c2mfmlJbGYMFj0KjFnuAH+//82SCxwOe3P/FjxEczr41PZ67M0XPM/5ucXP/Sz+1rVs8/T88+40lSRMSiVVYiMiv5YvpIzjZJCRJkp7WCxy3/8+zZyo4bUGSOkFHrRNRsT8mJoLrTEGSJEmSlCPnd9LBWIiYgKGBuCjB2SYhSZIkScqRY3ZujOM65WAsRExASmwzBUmSJElS3lSbnfN4hoWIcdo5EOcBF5qEJEmSJCmHVnXKgViIGG9QFbabgiRJkiQpjyI6Z0aEmyCNQ1aP5c0W38bCjSRJkiQpnx6tLmNxlqXWbB+IN9bj0GyyzawkSZIkSTl22NiDnNYJB+LN9QvIarGMxMUmIUmSJEnKs0qHPJ5hIeIFNOEDQI9JSJIkSZLyLLAQ0fGygVgC1ExCkiRJkpR3KVmI6HitxNXAApOQJEmSJOVdwJmbN0fvbB+HhYiDyOoxL+BKk5AkSZIkFUT3vEc5c7YPwkLEQTRb1IEjTUKSJEmSVBSVDlgnwkLEAdTr0Q1cYxKSJEmSpIJZNdsHYCHiAJYGa4ATTUKSJEmSVDDOiOg8kQi2mIMkSZIkqYBO2b4ujpjNA7AQ8RxDA7wdWGkSkiRJkqQCStUuzpnNA7AQ8dxAEteZgiRJkiSpqFJ1dh/PsBDxDEO1uDDglSYhSZIkSSqs1uwuWGkh4hkSbDMFSZIkSVLBb37Pn+V7bwE0+uNMKnzDTCRJkiRJRVetcGI2kn4wG+/tjIinJK7HIoQkSZIkqQRaTVbP1ntbiACy/jiJxLtNQpIkSZJUCmn21omwEAE0K1wHdJmEJEmSJKkMgtnbOaP0jyLsqMXSKnwf6HUoSpIkSZJK4vHqMhZnWRqb6Tcu/YyIKlyDRQhJkiRJUrnMb/6IFbPxxqUuRGRrYiGw0fEnSZIkSSqb1JqdxzNKXYho9nIFsNjhJ0mSJEkqnVlasLK0hYhNm2IOcLUjT5IkSZJURhHOiJhRi3/OBuAYh54kSZIkqaTO2LI25s/0m5ayENHXF1VaXOuYkyRJkiSVWFdvD2fN9JuWshCxfDF9JE5xzEmSJEmSyiyY+cczSlmIiOA6h5skSZIkqfRmYcHK0hUihgbiogRnO9okSZIkSWWXYPVMv2fpChEpsc2hJkmSJEkSACdlG+OomXzDUhUidg7EecCFjjNJkiRJkvYZG+PcmXy/UhUiKhW2O8QkSZIkSXrGvfIML1hZmkJEVo/lBG9ziEmSJEmS9K+CmV2wsjSFiGaTbZR0lxBJkiRJkg5hNUSaqTdLZUg0q8WyJnwX6HF8SZIkSZL0bNUWL81uT9+bifcqxQyBJnwAixCSJEmSJB34vrk6c+tEFL4QkQ3EEqDmsJIkSZIk6SBaM7dOROELEa3E1cACR5UkSZIkSQeWZnDnjEKvEZHVY16zxQPAkQ4rSZIkSZIOas/DFRaNjKS90/1GhZ4R0WxRxyKEJEmSJEkvpPfYYOVMvFFhCxH1enQDmx1LkiRJkiS9sGbMzOMZhS1EHN3iEuAEh5IkSZIkSS8ssBAxlfhS7NuyU5IkSZIkjUOyEDF5w4O8A2bm2RZJkiRJkgpi5db+OGy636SQhYgIrnP8SJIkSZI0IZU5Vc6e9jcpWmrD/fGLwAWOH0mSJEmSJiZmYMHKwhUiosI2h44kSZIkSROXEqum+z0KVYho9MeZwBsdOpIkSZIkTYIzIiaYV4XtQHLkSJIkSZI0KSfuqMcx0/kGhSlEZP1xUoJ3OWYkSZIkSZq8ribnTufrF6YQ0aqyFehyyEiSJEmSNAXTvE5EIQoRO2qxNIJ1jhZJkiRJkqYmmN51IgpRiOgKNgO9DhdJkiRJkqZsNcS0rb+Y+4UdszWxsNnLA8Bix4okSZIkSVMXVU7d/Zl0/3S8du5nRIzN5UosQkiSJEmS1DaV1vQ9npHrQsSmTTEnJTY5RCRJkiRJap8ICxEHtGgP/cAxDhFJkiRJktonYSHiefr6oprgWoeHJEmSJEntFfCKTZtiznS8dm4LESsW8R7gZIeHJEmSJEltN2fh45wxHS+c20JEC7Y4LiRJkiRJmh6V6vQ8npHLQsTwYLwpwdkOC0mSJEmSpkmLVdPxsrksRESwzREhSZIkSdI0qkzPjIiUtxx2DsR5lcSfOyIkSZIkSZpWUR1jSfa59Eg7XzR3MyIqiR2OBUmSJEmSpl0a62r/sgi5KkRk9VgO/IpjQZIkSZKk6Zdo/+MZuSpEjLW4nhzv9CFJkiRJUs60fcHK3NzUZ7VYluB9jgFJkiRJkmZMeWdEtIItQI9jQJIkSZKkGbNs58Y4rp0vmItCRDYQSyIxYP9LkiRJkjSzqs32zorIRSGilbgaWGD3S5IkSZI049q6TkTHFyK2rI35AVfa75IkSZIkzbyIks2ImNtDHTjSrpckSZIkaVacm2XRtvpBRxci6vXoTolr7HNJkiRJkmbNorEHOa1dL9bRhYijW1wCnGCfS5IkSZI0eyptfDyjgwsRkQI+YHdLkiRJkjTLUvsWrOzYQsTwIO8AVtrbkiRJkiTNrqAEMyIiuM6uliRJkiSpI5y5aVPMaccLdWQhYrg/fhG4wH6WJEmSJKkj9Cx+grPa8UIdWYiICtvsY0mSJEmSOuhevU0LVnZcIaLRH2cCb7SLJUmSJEnqKG1ZsLLjChFRYTuQ7F9JkiRJkjpHCla35XU6qVFZf5zUrHAf0GUXS5IkSZLUUWJvN0d86FPpJ1N5kY6aEdGqshWLEJIkSZIkdaLU9cTUH8/omELEjlosjWCd/SpJkiRJUmdK1akvWNkxhYiuYDPQa7dKkiRJktShWgWZEZGtiYWRuMwelSRJkiSpg6WCzIgYm8uVwGJ7VJIkSZKkjnZ0Vo8TpvICs16IyNbH3JTYZF9KkiRJktT5xlpTmxUx64WIZjf9wDF2pSRJkiRJnS+lqa0TMauFiL6+qLJvkUpJkiRJkpQHkeMZEcsX8mvAyfaiJEmSJEm5cW5fX1Qn+82z+2hGYov9J0mSJElSrixYuZAVk/3mWStEDNXizcAr7D9JkiRJkvKlyeQfz5i1QkQFttl1kiRJkiTlT6rkrBDRqMfqgNfYdZIkSZIk5U9E3mZENNlht0mSJEmSlFtnZPWYN5lvnPFCxFAtVpB4q30mSZIkSVJudTWbk1v3ccYLEQmuZ7Z365AkSZIkSVMSk1ywckYLAjs3xPHAe+0uSZIkSZJyLrFqMt82o4WISpUtQI+9JUmSJElSvqVJzohIM3WA29fFEV09/AOwwO6SJEmSJCn3olrhqGwk/fNEvmnGZkR0zeFqLEJIkiRJklQUqRUTfzxjRgoRW9bGfIIr7CNJkiRJkoqjFRN/PGNGChG9c7kMONIukiRJkiSpOFLqwBkR9Xp0E7zf7pEkSZIkqWA6cUbE0iZrgRPsHUmSJEmSCudFQ7V4yUS+YZoLEZGo8AH7RZIkSZKkYqpMcBvPaS1EDNX4VYKX2S2SJEmSJBVTRAcVIhJssUskSZIkSSqu1CkzIoZq8TrgArtEkiRJkqTiisTZWRZd4/36aStEpMQ2u0OSJEmSpMKbx0OcPt4vnpZCRKM/ziT4JftCkiRJkqTia05gnYjpmRFRYQeQ7ApJkiRJkkph1Xi/sO2FiKw/TgLeZR9IkiRJklQOwSzOiGhW2AZU7QZJkiRJksohwcrsilgwnq9tayFiRy2WAuvsAkmSJEmSSqW69wnOHs8XtrUQUU1cC8w1f0mSJEmSyqUyzscz2laIyNbEQoLLjF6SJEmSpBJK41uwsm2FiGYvVwGLTF6SJEmSpBIa5xaebdliM1sfc5tdfA84xuQlSZIkSSqnJhx902h6+FBf05YZEc1u+rEIIUmSJElSqXWNY1bElAsRfX1RJdhs3JIkSZIkldw41omYciFi+UJ+DTjZtCVJkiRJKrdgBmZEkNhi1JIkSZIkCVgFccj1KKdUiBiqxZuBV5izJEmSJEkClgxdduinJqZUiKjANjOWJEmSJElPqbQO/XjGpAsRjXqsDniNEUuSJEmSpKe1Dr1g5eRnRDTZYbqSJEmSJOmZIh16RkSazIsO1WJFgv9NOxa7lCRJkiRJRfLz6r+wKLs7PXmgf5xUISHB9ViEkCRJkiRJzze3uYgzDvaPEy4m7NwQxwPvNVdJkiRJknQgwcEfz5hwIaJSZQvQY6ySJEmSJOkgDrpg5YQKEdvXxRFAv3lKkiRJkqSDSYnVB/u3CRUiunt4P7DASCVJkiRJ0kEFy7M1sfBA/zTuQsSWtTE/4ArTlCRJkiRJL6Ay1su5B/yH8b7C3DlsBI4wS0mSJEmS9ELSQRasHFchol6P7gRXG6MkSZIkSRqnAy5YOa5CxNEt1gEnmKEkSZIkSRqnyc2IyLKoROJa85MkSZIkSROwLOuPY5/7ly9YiGg9xK8SvMz8JEmSJEnSRIyl58+KeOFHM4ItRidJkiRJkiYqpeevE3HIQsTwQLw+4HyjkyRJkiRJkzCxGRGR2GZmkiRJkiRpklZlWTyr9nDQQkQ2GGcBbzAzSZIkSZI0SYv4Eac+8y8OWohowg4gmZkkSZIkSZqsZuvZj2ccsBAxVI+XErzTuCRJkiRJ0lQkxlGIoMk2oGpckiRJkiRpKuI5hYjnPXqRrY+jm118H5hrXJIkSZIkaYqefKSXhbfckp6AA8yIaHVxLRYhJEmSJElSe/QsfoKznvo/zypEbKvHooC6GUmSJEmSpHaJ+NfHM55ViOhucRWwyIgkSZIkSVIbrXrqP54uRGTrY26Cq8xGkiRJkiS1UzrQjIixLgaAo41HkiRJkiS12anXXx6Hw/5CRF9fVBNsNhdJkiRJkjQNUs9ezoX9hYgVi3kv8FJzkSRJkiRJ06HFvscz/j8BX6/xlQ48DQAAACV0RVh0ZGF0ZTpjcmVhdGUAMjAyMi0wMi0yNVQwMjo0ODozMyswMDowMIQofxEAAAAldEVYdGRhdGU6bW9kaWZ5ADIwMjItMDItMjVUMDI6NDg6MzMrMDA6MDD1dcetAAAAAElFTkSuQmCC;" vertex="1" parent="Pd8pBgte8W38DO9UlrW--22">
          <mxGeometry x="9.999999999999991" y="195" width="61.99" height="60" as="geometry" />
        </mxCell>
        <mxCell id="Pd8pBgte8W38DO9UlrW--27" value="Integration deployment" style="text;html=1;align=center;verticalAlign=middle;resizable=0;points=[];autosize=1;strokeColor=none;fillColor=none;" vertex="1" parent="Pd8pBgte8W38DO9UlrW--22">
          <mxGeometry x="65" y="140" width="150" height="30" as="geometry" />
        </mxCell>
        <mxCell id="Pd8pBgte8W38DO9UlrW--28" value="Integration testing" style="text;html=1;align=center;verticalAlign=middle;resizable=0;points=[];autosize=1;strokeColor=none;fillColor=none;" vertex="1" parent="Pd8pBgte8W38DO9UlrW--22">
          <mxGeometry x="65" y="210" width="120" height="30" as="geometry" />
        </mxCell>
        <mxCell id="Pd8pBgte8W38DO9UlrW--29" value="" style="shape=image;verticalLabelPosition=bottom;labelBackgroundColor=default;verticalAlign=top;aspect=fixed;imageAspect=0;image=data:image/png,iVBORw0KGgoAAAANSUhEUgAAAHoAAAB6CAMAAABHh7fWAAAAe1BMVEX/eQD/////dgD/nmf/cwD/cQD/bAD/bwD/5Nb/zLH/rID/8en//fv/gyn/gzz/1sT/6t//ZwD/fSX/9/L/r4b/3cz/vJz/fS3/exr/xKn/jkv/mVz/sI3/p3b/eA//tY7/k1b/hzn/yLL/VwD/iUP/0bv/lGD/ik7/oHNWWoQbAAAEOklEQVRoge2X24LiIAxAW0pKlWqxF2zHsRfX7vr/X7gkUK0z1XmZHR+WPChCkhMgBAyCFwmLXkX2aI/2aI/2aI/2aI/2aI/2aI/2aI/2aI/2aI/2aI/2aI/2aI/2aI/2aI/2aI/2aI/2aI/2aI/2aI/2aI/+H9F1biTIWRC0+c+ioVFSjWfZAdcy/9lZi1jlu14lEBdq/8N7XauB9dUqOp5eg076LNvK16AhUb8+o5lgeW4+3E8uhOBmj1jtRnldMwGTMgNGne3NAm04oBEH4K4LoDVm5lc9bth5hHW5yz6kGeOHMZEyGQ/WFT82TVPGeZNUrRmFw6lSKsl0Tj7bfaQPHM6nRCXjm4uHQZRVVRZBW3bdkfQg12R25CwQGGrAOTbmaL5JQicJeRcr06x+mw/ZBnx7HQ3L2GivTePEM9fVCSK3yjnozYeK0Uk5WckpvmmmVzQ7hzdJz8yhJVm1rJ+NhmY+hJbptesNF78tpp/YSAxa6JlZz5fRzkzZuGXt0NZRCzg9qQ9vHaoVwqLRf6NpOVZmSlBh6xSV1odB8wgb41sdYZdki2ig8Kq8bbe0iFpM6KRZGyWI5GjSicUX7GsdWkZgMhGjUSKwK3OJOcSJQwM2xpgxHuPyvfMl9A7tZYzLxjFCxR1aG99owWtmPIgY9z7cMIv+g9sXV2QaiBPygDYvJbQNJufGUry7LfiEZgMqvVMiAGqlPSN0etVm0A7lWMkZOt3iQJxZNIWsKd92ikA2vv5gpO/unM3RF4u7hXFx6CktYd+oa8IsoofCZuDUlcSiCe8k3SygOc60GGweiJB83KF3k5fiEZqdb2gxWvR4j6ZzsIhOHRo+o2k/Q6WHXfQYjRu8vps1oovVTZZm/cWC203rBDB+fL7gmvR38rbgaidgkmAJbdPMlr5unmYWjZOuMEmeoBnmQkU1cp/O0swBxV1BWT5crZwdLoumAtmg13j9EE3fYY+Hn46lOVx/aA/IRdxc4FlJMcWbD7StU0mxaJaQK1M/junjWVMaFOXQ2+yaSkrxJgTg2lfzLJsVUm4LaWG/roXUogGrRVi9T+drEW1BNzFoRgUorFYjuc3EIvrB9eFmnd8fkmU0q6frI61Cd310M6tqTr67NIdr0GpDl+Z4SxIeuUsqo4ZB02W4ZRO6wBxkrLLk3yuHDsTlGo5+dGmiYZQpKVUWcXvIDqURtz0877JqXO+Bl7rTtbkrGq11TkNH0+ps/sK5O53KfIdR04kwtf+YJYl5KuzvyR8fSPHdA4nB7ZVjvIpYYEzcnk/zUpreSnxqMsCEMqeIavgopmHb+UG+9Vm4iXSWteaeElTY9CfaP0Pb85lFm82arreBPVX/1llTLbpKI55rfyua1bdrNdTxV9rf+heAwbEyT8VUJs0AXyp/878PDvn2vN1z8Xyf/wUaXbKvsQ7NXiQQBdGrpPsL/11BDTp0wUIAAAAASUVORK5CYII=;" vertex="1" parent="1">
          <mxGeometry x="470" y="530" width="40" height="40" as="geometry" />
        </mxCell>
        <mxCell id="Pd8pBgte8W38DO9UlrW--30" value="" style="shape=image;verticalLabelPosition=bottom;labelBackgroundColor=default;verticalAlign=top;aspect=fixed;imageAspect=0;image=data:image/png,iVBORw0KGgoAAAANSUhEUgAAASEAAAA/CAYAAACvtn5EAAABYWlDQ1BJQ0MgUHJvZmlsZQAAKJFtkL9LQnEUxY+lSeUgFEU/IMEpsCiVoKHBHCJoECsql3o+TQN9fXvvhQXV1B/QFP0FTUVtDi5OQbNS0FwErYFDJa/z1UqtvnA5Hw733u/lAG1uRYiMHUBWM/Xo3KxndS3mcT7DiR50woUBRTVEKBJZYAu+tfVV7mCTWhqTuzquhnYKtzdeo//o5eQp6/jb3/K6EklDpX6wplShm4AtSI7kTCH5mNyr8yjymeRUnS8kx+tcrPUsRcPkMtmtppUE+ZHsizf5qSbOZnbVrxvk9a6ktrxIHWQNYxvjSGALBgSC5Emsw0/KMaf/54K1uTAnBfahczaFNEx4EKIjkEGSPA8NKvf5yH5MsAIy7985Nry9A2DmkF+NNLzYBnB5DfSVG573jRGUgMK0UHTlJ11bxW5sBvx17s4DjlPLel0BnKNA9d6y3vOWVT0H2h+AYuUTkIRlTlL4mOEAAABWZVhJZk1NACoAAAAIAAGHaQAEAAAAAQAAABoAAAAAAAOShgAHAAAAEgAAAESgAgAEAAAAAQAAASGgAwAEAAAAAQAAAD8AAAAAQVNDSUkAAABTY3JlZW5zaG90yQyIcQAAAdVpVFh0WE1MOmNvbS5hZG9iZS54bXAAAAAAADx4OnhtcG1ldGEgeG1sbnM6eD0iYWRvYmU6bnM6bWV0YS8iIHg6eG1wdGs9IlhNUCBDb3JlIDYuMC4wIj4KICAgPHJkZjpSREYgeG1sbnM6cmRmPSJodHRwOi8vd3d3LnczLm9yZy8xOTk5LzAyLzIyLXJkZi1zeW50YXgtbnMjIj4KICAgICAgPHJkZjpEZXNjcmlwdGlvbiByZGY6YWJvdXQ9IiIKICAgICAgICAgICAgeG1sbnM6ZXhpZj0iaHR0cDovL25zLmFkb2JlLmNvbS9leGlmLzEuMC8iPgogICAgICAgICA8ZXhpZjpQaXhlbFlEaW1lbnNpb24+NjM8L2V4aWY6UGl4ZWxZRGltZW5zaW9uPgogICAgICAgICA8ZXhpZjpQaXhlbFhEaW1lbnNpb24+Mjg5PC9leGlmOlBpeGVsWERpbWVuc2lvbj4KICAgICAgICAgPGV4aWY6VXNlckNvbW1lbnQ+U2NyZWVuc2hvdDwvZXhpZjpVc2VyQ29tbWVudD4KICAgICAgPC9yZGY6RGVzY3JpcHRpb24+CiAgIDwvcmRmOlJERj4KPC94OnhtcG1ldGE+CsujzscAAEAASURBVHgB7Z0HgFxVvf9/23tL3/SQUIXQe69KB+ldkCKggiCCIiJiFxAU33uKCAhPekcR6VVC7zUhvWeT7bOz9f/5nnPPzJ3ZTTZBEHn/Ocns3Ln31N/5nV8/5+b1keyzSCtrNe+z6EyuzRwEchD4rCBQ+Fk1bDli85mBPtdwDgL/SRD4DIhQb7/x97+jLPlRvt7UVbpgeJa+k7vKQSAHgc8nBD4lIjQQWRmYcAyUMxuUypMunW/SIPPycqJUNpxyv3MQ+DxC4FMhQh0dnVZcXGz5+WnS0dsNIaG1vr486+lGuimAiPBcpqEuHvb1pclRWUGxtSU7raCoCGJj1svzAv0ryLeenh4ryC9w2ly69s8j6HN9zkEgBwFBIO/TMkxLWkkmk1ZaWmodiW4rLRMFMmtckbBXX33FFi9ebLPmzbGlDcusG8ICbUqlyspKq6mttbqaWtt0s01ss6lfoCj1dXRYYUGBFRYWO+KUI0IpkOUuchD43ELgU5GEBA2pSyJASu+9PcseevAR++lPfuQknIqSYisuK4EwlVoh132FBZaWgwyi1Y70g7SEpLR0/jwrqS60Sy+52L5ywvFWVVFp1t1n+UUxquVayf3JQSAHgc8jBD41SagDqUVE6NlnptlOO37RRtfXo0JJneq24pIS6WVcQ3qgJX1FBTGjT771cr+0rAwJqVeimuXndVlHe7OVQLh+9YvLbP/997USEaEcHfo84lyuzzkIZEDgEydCIewofFtvvi1ZssxmzpqDKrbCysvLrb29PaMTjc2ttmjJYnvzjbft+uv/jBEoz4YOq7PCIqSlkkrr7uyx0vIS6+xqt4aGJfbIPx60bbbd2NpaEo7QFeSkogx45n7kIPB5gsCnT4SAhlQzfYKdqLCgKANGhUhCTU0tVlNThcTTZ/PnLbY/XXud3XX3PZbo6rZkAm8YUlRhEd8FPbbd9lvajTdcg20oo5rcjxwEchD4HELg30KEZKAuQ71SCraeNKzkH+vjfg82oCL3vKvTrKQ031pbzQ446FCbNXMh0hDqWx+G6cJemzt7hrUmmi0P1a6sIpOgpevNXeUgkIPA5wECn5qDKUg/Mi4HAiSA9Pb0WXdXj//0JLH7QHGQcnqt0xIdzc4YLQKEF996rMv23X8/iFGLM/8UF2NLcinPinDxiwD1dK1s/0eUNfeVg0AOAv/REPjEFZqgdoVRSwXTvZCkermQoDwRD998DwSIwCErLoWo8C+PmCCFGJXyO9HWbkWFxAtxoyvZjjrWa5dceqkVULStJaliVobtKJdyEMhB4PMJgU+cCK02GBQYlCdBTM55BR9CTVzKd9HRcpx1JMwe+vvfrY8fffm9SE3dlo/attP2u7icBbj2LU/lcykHgRwEPq8Q+NTUsdUHCF3og5iED54x2YIkO914w8326ouv4lGrItq60Epw7a+z9vq2484b47aXpFRoxQQuys6USzkI5CDw+YTAJ26YFhhS7vkIJnF1zD3PohnQnXRCS9MWj7nzGmzzTTezyso61LEK93z2nBk246NZNmJEqZX7Wy6vtoPkUg4COQh8PiHwqSzfbKKTDRqnhXEz0CLZiAoRiFqTrbjhSy3R2WGHHX4ghucSZxtKJFusubHZ/nLzLVY/lijrGNEiDClKobbwO/3tFbz079xVDgI5CPznQCC1hD/LLokAdXQmrQeK0tHRZccfe6ItX77cqqrqnEEaX7x958Lz7fAjdzG572U0EsnB0SbnPlful+4M8OFWitzpOpdyEMhB4D8JAv8RREgAKcX9vmxJo1143qX2zBMvYW+utGR7jy1auMiOP/FYu+D7p1tbO9s5pIYFSQjilJ+P7oYr3xOaQJDi34Ewxe+Fa4rlUg4COQh8phD4VGxCqzsikQKlRCKJJ6zHvn7mt+2lF1617u4et7WjrLzYjjn2KPv+D88zTvWwXiSffFz7ngaptAiMaJLc/StLQRkL3rdAwVTmP4YGr6zzufs5CPyfh8CnYhMaDGqyATU1tlrtEHbEkxYuaLOvnXqGffj+h5bs5BwhAhGXLptnN918nR115MFs3UjgAcvnHKFCvvMgRn3ubCERETn3FVvUS6U6okiph2udT6Rzhzyh0YNsghOIkUrkUg4COQh8VhD49xMhBBBCfRwBkizz1OMv2t5fOtDGjp1gRcWIO8QDtSca7bkXnrSNNl6XHL14x/KtKC8KSIR2cLYZbnypYUhBWLkrKjjwLM8fB+K89YhMIkIdyW6kqgTHf5STLzNo0hXO/clBIAeBzxwC/xZ1LKhdYbSJNuPAsy578skn7KsnnmA1dcOQgPyO+PETx9jtd9xildXlVkxYdKIjaZWlZdYBYUm2yypdZDWV+dbYCL1C0Ploxnzut0LAil2Etb7r60fgZSMnJBba5GKKQtv/Wd+rUiPjPf2/JrVlj/v/2vjic/dJXge4/d+C179FEkJ7QhKJJoPrFo7u+O3Vv7MrL7vCRo8dzamKvRigF9rtd//Ftt9pGxteV0tmATzPKiBACWhPT1eePf/sG/bXvz5gb7z+jj3z9LNWQqCikrxrvX1IPURWSy3rhWBNmjzBttxiK1tv/XVs/IShtu56k23q1KnuKBFX6BP8E4isFL5wHa8+WxFMPwtIFe4ISNn39CwAL+T7ZL9Dn1fez0+yvdCa6vx0x/VJ9vqTrCsOAdW7ZnAXfujj7aEqrx0Ha1qLK7bKP+plmJ/wvcoCH/vhpyIJZQOZ3RaOMJQU59kH78+39dff0CZNmGRNrU2oS122zxf3sQt/cKGNnTTcqjltUamDiMUenF5lJYX26kvzbY9dd7bm1nYbN2Y8T/20dctfjzqWjwqnlJfvVa6CKBCpB91MG2O7uho5r2iu7b777nbvPfdYGWcaKZZpsHgmV6n7EycMuvaH7felKKvPGXJpykR4Q8rK5nrv99SFTHGE8qV0nK1LRJL37+fgh/3HA0b7l6d/gKwvC/tDb4TSq51CN/kO8V+hbF9f5DjIAEB6rH7W2CcYzaf/HWZ3YIKuurXdOTNlDSTz4cC/6G9GkCy5wvjDkgtzmNF98g3UmuAZxr+q3oVnGYw5q4eq381fdOZxqNdDRPDrBgLaY8mhf44AiRlnniYx2PxnNMnAXX9SA1Mv1Y6+dROMELKkAMOteAqAi9+LX4dy4V7W73+LJCS1KY99Fvff/7CdccYZ2H9GWUvrCmw5VXbnnffaF74wCVXKD7ujL+EOMSsqqHRjvvmmh+3rp59uI0eNt8q2Fusknqi6ps5aW5qttq7Opn/4AZUDMAiRkEXA72ULfgEbXksgYAUleTZsaKVN3WQvO+mkk5zaJljEJykFm2xscw8ChAP6yOjtbU59KewIsyc/nc+vA/1dddiiQg3ccc814b796InbzKs5jpVHmhPMNLY+bWkhiZiEcivrf7iv70B8wr1UefrmiVDomateLYSL1f8WzAGNPhyDGSsX4BXGqudpAuQzhvwBfrHisUsOcYn9or7ot+DlpQC1teo6MirQj9Udamz+Qh19EfXS9AfYulmOiAaQd1kHRCee+PmPaovBLMx/wA8/vnQbqs9jk/7KJqrvfFoDjtF8p/qzkvmPWs34cu2l5o8LTjIVAfLtR/PohrSGMM5oZeU/PgFJKOpkrI3sOzpt45mnn7I99tjLykor7dhjjrMjDj/Gtt1uK+eer60p4eiODisp8FJQUhjdk2+L5rTZ5Clr2+TJE629o42d84XWydlEHYmEbbDRRvaNb3zTJkwaaypfUVniDsevQJIKnFz96OLYkBJ27vf2CrDA1xGOgSUJGa99imNoGE1YCJp4/jFzvRGWCRGUOHbNPdN1DwhZED0PtTkkowkENvKJaIb2VEJ9g8DxT/voZFj3ffXP/PNAhFbW//BcOElNImIktaeUIkJcp5+rTZ8C0ofv6PYgy9vDol9/+xGcUFv6OyzWcJpC+omHuQ9EFawC7H2OML++n2FhhLuhlnA//A7fYT49n9fdMP6Qw38DY/dEizGekNsy4On7Fh9/kLDScEzXoDo17h7mx+NHuj9eqgGbqF/zE5hIaF344vEObzAwEbY54tvnpaA8DKB6rjRw+XQ/XCZX3tfp+u8Gpv4IJ/S+P+UXHCV7BhzPhrOvqd/fIGYPuME8c27+RUkoDcB+nYjd6NJbNyAOV111le27z76oYuPdkJIUH8Km1NZEk1WVcYyrJdwEtWOAriqphnBNs6rScjxhrSz4LgzRfVZRVWobbrye3Xn3HRA0Yow6u62qWNPRa8m+pCV72iwfApaHv14nOBZx9KsIkA5MU2pubmY/mg8NiHXxE7n0InImgFMVi0tGOOCkBiCgkwEk/6WJDRMcIZHn8NlIo9/RCkhV/PEudK6T1Nd4Um9W0vt4ttW7jqS3VWbOEhUCNn0yfQi1hR4MXmsoseqccSiFEqGN1f1Wuey5jVp10lTmvKRrVR4RPeGJysd7Gr9Ol1itKzEMh3dq149JJ5mqj574hLozX0ihusMTXQ+YAjGKP8wa+sciQjopUTvapXKI4sbfL9bJ63uKeS0PbxKjWT+UMozLW26xjfuoL7wsw8X6FMOpFeOjQ+27+CcLDmTD6iqqDTuzzZoxHXd90mqG1gBzUfkevGrt9uVDD+KwfA8AHfeqt5KpraI8qBJ19kbUN2yuL8yDSEX4UlVVpS5kpDTHyYKOy8U5RnRGQgUnHll7V4uVF1VC/BLuXmlxmSVdxHZUJTApZHHlM6+FsU1uHZ299JnTIjkDqYLzsgOa9WmS+KF3qinmKazLhN67BhwlxYUkj2JJSZGDebrPjDwlUYl7erToRCVFzHVzkeBMlK6uLquurua5H6P23HVTXyFuxHzaFtfWE/FpJRn3Q/K8HtACBP3LRDzuuCq9dObKaj8NqbPLn6gZ2mxPdlh5iZd2XT7aakWqDW9lcR1wJdWCJsy3pPVRlFcEg+ngMLtixtJB/8Abzh9Pss+wyB12l+6VrtSWktpLYjvMp3wR85HkuOBCIl8Fa71qSrgaRqpv/4GlceFB0GelxKcFvFadPSl4M3AGr7q66G4XMW5FRd5ZIlun2kaZTtXvylJvPjjiLGEqzlVCcOJMLI1Y4St+JgRUj7R59Fvz4dZdMZI+j7o6wXfwKdFOWfBJL5bQOiyMnXkcpKIA/+zffrS8hgtXc001a4y+CMsl0Su1JPA6l5Th+PHry93M+qO17CS3CF90rTg9EUuVEzom2pn3Sj/vrg/kiad/SR1LgEDFhaWWh7ShdsFzB6hlKxqsskIeLuJ5WtocwRKilVfwqh8/Rw6QQm4NV8JlJ+qYFlNxHi9NjIxsr780z7bacmurH1PPzIAY2qKBRLTfQfvYf115mTUnIQRUUBqpcXmOOwDarEGml7F6REohUfQzrHz/c6V/u4C4vG+BMGitJZDamrFVpZNe05hntbU1xtuMrK2tF6THPsU10QbuxY/FxcyMcEwIKhUM2EkcLlWcFOmjWfPYN1eNpFfqCE5YJgUQpECEXMboT5oI6YY/lVIew6XMQx+drIX46KWRK9w53jWOOGohKqmvK3hhQHrBe3VAAaHZKT8LTkJuIZXA2RchocoUU3dTc5ONGD7UzU+SFVrKglFqS8Bs8GJq4XTRNxGTQp1QRwqbkTvbvU3C3eRPIUSyncPtBNMWpOIhtZXuJQdFenVUcSZ31pLXgi1iQYaU5Ghg9V1D1jlVK5YTKEsdi5c0oMrXeaGCzGrfqSVuPtLj70BSL5PYDWfR0TFFEIJUAueSxKOVc6xMSJpntbVwwTLyFllXt+w36aQtSvmchSXzQh7SveLeFFqSaCMcBbOC8EFCsuQQpURnG3NW4l4o2t7aaUsaltOfCku0tANHwlfY4F1EfaOxterUUvdi0XRzKcYTbgWiFIic5qCd12zl04ZSG200N+vM9zpssN3WCUEdKOmgQSXVJzxy3+LWUdJLTmW7qmJM1dUwjBgTDXn0/bGIkIhPOLL15Rdft38+/5q9/upbNn36h8T1JFynZbcRYpcqxifRAQD1njEACScfOqzW9j9gb9t5151s4oTR1swiKGKhFnCQfQmcTt4SHechArPnLofZh9Nnurp6JV5AhJY3Lbb3PnzHxoLkCVSwIgiXUhh+nIvrviSTNUnpSUqXQvhDMhGRNXvxhVfs7rvvshdfnOYkOk1UPPWw6KpraqwaQrLPvvvYEUd+2YYN82dsK5+ItUusXhEhIY7eWJto67ILLjjfXn3tFe51O8N0CdxUSPr44w+7IoJLJOxo9nw1GUSV1ypxO4kkde3119pfbrzR9dG1Abc9/fQz7cuHHGSV5aXWwltPjjn6OFu+jMCtvogQQFQcZ9NKGCAFbioiFYhSqvmUeqdA0Q674vKrbKedNnNHRemAOpyScGyzh//xuN1y6022ZNkybIK8eaWXFYtEGGwpXUg36QQis4hL6a8Ymt7W0gnzaVzRaO+8+xancaaWEkW8n009l5QjaaSvF0kDHvHP5160a6/9g7Xg0FBUvo4MHlI3BKLWkiJCTrRVLYH+CG9QVXp7ErZ8xRJi0qZDFrSwQgZRLUgF8ykBqLXZ7G9/fdhuu/1WW7J0Cd7dLl7uudTNRXo84BELtRQzQ2V1FWuiyE44+WjWw342ApxRKBzWhTQRov0O+qv8wst33ppum26+peu7pMLauhqbv2CGXfDd79hZZ53FOvLMJd5e9nU2fmuqRUj1glKEMurf2tpbE+AZEiCwLwiSAxWl5ppr4QIk331LbNRvwU6v9OqmnCTDHoSL6/98je2w07Yu3EYb1UVwlQKc0+Tb3V69P9OmTbMHH3zQfvnLX1IAMbegyoYOHe4Ik/Z9yasjMV8T1N4O9oFgCYJ9xB35gZv+fbv37vu57rVTTj2VRXq0bbb5VKeuBHLR3curpHuL7fgTjraLLvoJeUV10VCx7dRVj7BvffMCu443blRC3KT6dfchCqN2+Xx8fYJJhOf9d+bbY48/auedey4SSomVV1U4wtoHF9GBa/FUSB+bGuFOIMQ//n62nXfeWXbSV0+EwHzfS0hR8LfKqHx5aTGLowskK7T77r2fMXJYG+Pq6Gi3FY0NvGvt5676Tl59JE5dHNm34m2mr7V9Jd/V+eADD9vcuUsRiyWmc3RudzPz0eEIEDTO3nv3Q5jHmxBXdgVHuruTBFRZTLJJ140kQfvgGvn5w6LQOnXKnLv2i1NqQ1PTCqTYzRzBBBedJHjrLQ/aUUcd6apbZ+21XV09UEyFcCi50hBlZxCNVGrd18x3L+2G25dAfHTeeC9S1khghMoHvUIYTyURoI4O3m3HnLz0/Bt4X++03/72aivjTKox48ciuXJcMAW7IRCtze1IY4Ej0L7GAO4G5dQtVohAU/Mi23W3XawNSlqI1J+PmpEfOAGdFgH6438/YN8+55u03WVDhtd4FROmWeKkJtZEBF91tAeJuq2lA2mjDTB32bfP/o6d8pXT7H+u+YMdd9zRysKgGUkU4iCpJ6SPZs7DUzzana1eWl4NMU0wjqRtt912Dt+cZKpJWYPksmPDEywf+cfzNn/WYqsZMox+ai0jyXV6GInkxGtOXwMx1rpMAXy5eQKtSSJCfbb2Ous4AqQ72QRQ9zJXj+4MkILkowG+8cYbduKJJ7pc4ydO0szRsUJEZlYWHShkEsWFe2DZvXCjLvTxKoAlJC/irCBRx7zeQps8YX1HoP7xt2fsrjsexMs13h576q9WALcUksmeIqQ89riD7bLLfmPz5i/i5YeI32zfKCmssrtu+Zvtu+dj9pWTdmPB0AcmrIA+NDavsBokEJ+Evu6x/ykIZaVoLbk1Jaqu1IndqRhRX4i2vKHNfvqjK+36P15nI3iB4zrrrG8rViynLXlP8ngrSAWT5zl3koP7JWonkvLkFTmpbiJBk9297XbfA/faf/3PH+0fD/2dd6ZtjV1ILeVZJxII2oJVVhXZuxC6/PxyR2g7O1D7MM53djTYAQd/2R3838eCEMHrjVhI4CSqySfNvFc+9Wq3Jx77pw0fUm8VZXXEWDVYGXr5+htsgiQAosAjFi9qYbEgcktMkfUiAk8nC7Smuhapts0t2A7nmZSRvxD7CDYpCEcXUoa4czOMJV8Mx5MQ1w0R6N333J0FTpwXUwBjtEcffsWOOeY4mzxpinVQfy/jbiVoVYtUdQlfJN3rDPLePNhKZNBz0hYPNBd6rvmSVHfB+d9z1ClIQpKBElAzRdl3JArtlDPOsXtvv9cqUbvWmrAuM8ugYeNqpzgfPGJ+e7D1FTIm2briSXjuk77zrA4G+6Of/MQHzsouRXZZ8DpYnM3Lu2zS+Ck2ZMgoGzJ0lFMFexCNRMo6u1qR8jFNlA916yS00cHkKMykGdGpvKICVTnPxowebt+/8PtoAD28afiYSH0Fx3qTEKwmHDI1rviMD8GRPqQi8EDMsU/SCuNea621+O1ttaGd8D3Qwg/P9N2F+7q0PA81zOymm24GJuVInDWozs3MTYd7oURlZZkj0OVl5a4dlfP1alIgyqxv/dYa0nd5Twlq2EgktWqbOHGsW1nkxJThpSCVB0j+C4AHiPs7WX91dKpEq3ztfyDJ2KizfpTguQCJCYGDi0v1YTETBVSVCSSgpcuW2NKly+zlF16y5557zh577EnnBRtVPw5iJPkF+4UMqHAW6Y5bbTfV/nzjNSA3dapinmtlzJrZbHvuuRdu+na4fBH2gYQNH1ZvC2YusNvvv8e+uM+65O1zhrSqsirad2TYl1c/A46FVca9kDR6YJZBhGRPaGQryPKGBjv+mJPtvTdnWnUl9g362d2dhBs3sPDy7Oxzz7Oddt4RyUz2r164R50tJPL79ddftW9+8xs2HHWxHDWinX0qUqsEx+amJnvo4cds8y3WSx3OFo3UXn11rh2w3/4sco6yBQjd3e2oTMt4eeQcFozX9eMLJhChtE0oEKF8e/vtOTZ1wy2tftREELqChQlCWYs99cyTtu7ao5hDjNJQooZlSGyaWjhvQARnqBZCARypL1VVxGzxW5KdvpNIta14GSU1dLFoKllI8aQgUdkAR9VzLC+wFY0+9eSv29OEabi+wIi6klJBy4nhGm6/vOJyGz5yqFWxVUdGZy08wVOqkNoogGAJdiUsDkkuRRCkcROHOrU2jtOC4/vvL7AzTzvbZs6YR7yZjgAGL/Nabc68mbbvfvvZmWd8w9Zbbz1XryLsZT8Rx48vg4xrGVhZNxPGQkhIHaj/pTBCGbv7YKY77bCHLZy/GNV7uDUjpRXjqJg1fwZwH2rfvfA823qbrWzksAmUBMiRNKR18cAD96FJ/BQYjQE+MFCMePmFneD6u/bWe2/DpMdAoD3iisnTUQeS444515555jn6W2A9mre8pK01aajdf+9tDuZS6+P9V581Z6tKWmqJNghRGTF1Q9a2qpqhlIGIQoDk+Jmy9ji7+57bqBc1m8ksgxAp+XolBYkJiQi52+ALRu1W8raj6kLoRzC3SiJCA6VBJSFZ3DUwJUlESiNGjHDf8lgpKXhLnp92RFHPrfps2KgqG7fWUKSKbl7bvCuEoxMK2m1PPvGM/fqKq+yD997DNlQPkoMpdE8i8mOPPgKAnyaeaEdXb/gzaXK1/ea3V1HPATZ23FgWKLorxKBqaDk2l13tlVefso03mcJiYsF3dBJlLaCsfpKxWROXEpmB1vJlTSDCOjZlyvoYWivoYSlGunbilibb179xme1NuxL+uhGty0q1YCnD6Y/bTlzXNtp0LTv+pMPt8ssvs2uv+SMxTOW2DGI8auRYJzHusssOTNIyR+iqyyvd4tfWlGnTnqfTEGQqE+eXMLDpJlvCvYEQRC9OgAYbnWApw3YhBsu2NghJTaU1wDzGjhvlitbWFVkrpqDhI6pSR+UGIpRgHiv0phMJDyBhrwzydKYTzq9Xd48YNtTGjKl2GpuIjPoXkpiQNDlpqKj/TlVpx9D8/gfvkqUP4rcMY2oNOIUEBEM75LDDbJddphiakYNhFadphn6EOlVOErRUVMFZ3iElaaWyf+l3UzNBrhDvo4442hqWNDuVpwIva1dPK3i7zG6/8yY78MAvMV/0i/FIwnJEiMWPUJSR1EY8aXE1A4xqJHEFwspvIi/YCcedCoNY5KSppuYlVoK9au6cGXbbrX+xvb60K5Kn1gb90yqL1Vk/bgx4dIrttPs2ttvOeyAFTWJ+CywJ1awfO86uv/46+9XPfuy7gJmBSbCeJDBg69JfH7ibeLiRKalVmfY/4EArR2UTIVMajOi4TLE/oJrDrYZl2IaY+6HDMQWgm+VjBE1iFB8BQR0Cg1gC861Dsox7OGPVpC6FD1Xs76ysqHFrfmXEJxQY7LnLJzFPScZoGQaFkPrI4yIO5fdrKYe4KVS9GAMzbFquzWqM0ZhKmYkOqxtSbnvstaM9/sRfbYMN10XcQ6JC9FYUdA/1SNx/Cm6Z54xcnjBoEltaem27Hbe26zC0SicXhxRBkEhdP2qEHXbokY7byrskKSI+Q2s6IVSOMTFhRxx6jI0bPwnRH9GSAEu5uBNIRzdcf5MdcviuqIaIljRVUtrr1JYk/amrq7BGPCmlvDetuW2Zfe+730aV2p++JWzokOGMo80tZInqDz30hNVGBCjJ4m7FOP/oI48iURaxgAtZ2FIv8+2LX9rHGabXhAA1Yyd4+tlnUCOGwN0gRBDlxpblNnXTTZkvGY1BOsAoKUJ8pAt9UGpzJ++A06cSAtTBd3t7k+2P9LDnHnu4LS+77rqr7brLjvbKKy+R39fB9CBVpD96ua4WtYiz3sSUaEflAU41NYRdsLpramrdfHtCW2gzP/rIlrEZGUHRahCohJBibf4jWVk4pQ4LB2k0rxPcSwJzJDtiwpzhmCcyBxx15DEcjLec9orwMlWjCi1nDI322JOP2B5f3Bk3OlJ3YR/ziWGYvpWX8048+qo2AUf6IxSLf3gm54DoSHlRGdjcZ++9N9Mef+xxCKPWA15dkGHuvFk27eWnHH6IAIkmJDpamUvWC4XDR8beippCcHpTu/iS77HQkfCRdOQ1lDdteUMj/W6HYC+GUTQ5yVCR/++88yE2IK/605VUGl2PjQg1c81x3VdBUXdY4PvYamtQn7SeBUOFzrS0tdmRRx7lMtZUwrCisAPBQHMf/4QOCVaCqZiDnAODJeVdaRKi6BNEvEB8JJIpTkgG1QqIjFyNLbgXf/7zX9rrr72FmoH4rD1bhuHPWvmgjpRCzRFl5ZpVD792xqksAKQP1IBy3IxtKKQianWRPUdW+GCbrKrKR9w1O/SI/Wy3XXexRYsWMenYXFgs6p/eP7bp1G15fXQ7wEMiS+j1QKJFApTARBpAFdNtIZvULwFLcSTgi138g0uoawFIQTxJPqI3HKqyphwx+10bPxluqL4xBoUWyH5VhmRWWqL4im63903fw5jMnt6EfePM02ze3IWMr931tQ6PzPCRoyC2T1srK1mTqdkqAp733H+v66YIgnRvEfjhw4a7FUkutwj0PXBiwFES0/jggw+cdCkvlY4z6ehosaOOPpK+gxR4IXUqAQ5JR0gLJGXBrouhIPpo314xnpeZM2fY7JkfQUiSeIBgJQB1/oKlbApeHwCAYMBKXiimIOOj+6pT90vLC529a6eddnIeKXVRBFVStZD9xhv+ZGecfpo7DUFjk1ys1M4ZUh28cbe9G5EeGAvHesEkqe19MK5i4J1HyIZsPSo37cUXbfoHM+gXb/FlrhU42tXT7vYkTl53LaRWyBmGYrY580/ffhkJP2TJkIUvfFRaH82wPjLIloJv3eBvF/BrJNThisuuYl1UQyw6YUhIyRDtS35yka219niuhRlJwk5Q3cqhyjBNjSF85M4XgZKXb4utNgdOvQ7/y7AvlkDUerDxiNlXs+iFVXngYAdz8MILeGOpRalY6j0mjUR7m1MvV8cr5goO8Eeuc6UF8+YBZ+KxWN+yySXBHRG2L2ywEZIgax6uJTuYpCV9JBm7D1HHnXwUCqEwFobj7Haqs5L1rjW6qgQo1jzV1tZmVNzS1G3rrLWe3Xj9X/DGLKTCUG16YcRb0QSUKSBRnQXhZbMR91/R0GS77bEni18DkVGOB1rxJIn50Dv72S9+igomsRok7WxFjIWblVRh22i0b531bedQkAQhztAFYnRjJJQKERZKvB/uGkLVhuFVRFVpxvS59r9/vok6a5xNQZ6BpYjcZ597luPWEv/7pzDe9BPFXgi5xowZC/ctYJ9cJdy6CKN2I9/FLMg2q8TGIltPEQRgMW30oHL0YPMoQcySwXfBIjb7bvCFdKWDXnmS24o9rhnXcxIJU8gqX2gX19vtsA11q69+cblpirou6cxRQBZwIRKs0iOPPOGQsg3JqgskU0zYJhtviHu4yhHhPsIlxEREHERQZPjVJyw2fStJ6vrWOd+yI48iHGB5g7tXgmol7j+yfpS9+vJrtuFGG9v3LvoZyAtOkKOVzco6Q6ocJ0TAp2zQy4uoJAJw/nfOx14p6bEYKagG9azBRo4Zbqd+/SvkGBgPVXb1kx+L8otRXXvtHzHoa+7KnRmgtaXFDj30EOxHgoFIaZQfe5aLUYg15Jg5v2XvKkHa6AYHJHUo6FLxUMJ7vVlY79UrQ6JTKmUx//XBB2zCxPEw/BaYCtITuL+iodlG4imMBwy7AmvwR2EC0Bt76503XSnV5QlHHkSkkvCS0Qgc4BFJ2gYGGveBdTp7kMwY+vDX4ZBiueRgkOQqhpO2Wboq+v3xs9jvduYN8QWlQIUlXkoaqoJaywvzvQsuhqPW2bzZ823H7fZyHcmDI3mk0WRgXMSIB4pwlW/gsy1bvMJxlFr0W9kcJP5tv+N2ttkm6zsqqlJhaYeoUCFnbV2x3XLb/1p1xRA8EjUgXB0EB4pbOcyeQQX50aVX2FnnnMHEwCmowbnuZaiKesNFvyRqr55JTbn9NraDAPgeEEHETYa1sqo8O+kU1CqeE0oRS6o39FItqNdaRHBCGQ4Zl06E9FFwTIqbLEFDkxUvJ3vQNIeICgATEUjo0CXqnjRpkqtzoD+i0cE4HX8+fz5nLDkVWqqCJ3Jjxo229dYZR+MQCcbkUljVvtupoUg6VLoD71IR9jB5SwqxziYh+uPZciMVrpeFo71uqeTKRGOK3fdMUHZFs6uv/rEdefhxtvMuuxAfNgnihG0PQ3Q7BqF6EP0avId33X4XcUwH27nnnk3VUuQFVaSJKPk7iu2N2gaOL/NuupdfesUmTdwQg3kCwbKQOSy340442knfhYojYz4c3FVPNL5QZ//vKEOAj4hrLL388stUoUBJAgaRUBTrJDPAaBhOAeqek+cgPnm0KbQTHQpJ89VJHJkWprzFzz83DSm/zsVVdRA3UUyQkAJVlTSHpc49L4kj35pwEshsIVVTON8JQtbXj7SRI31gcGhjdb/D7ElJEK+6867bnR2RJhzjbEeV3HjqVvb269Nt8eL5bo2MHTvWSfVqQ3Y1ESLrAb6kvEIk1XycRsMrMLdMAUfk0BJOrBrgMfC4evr/UQ+jOkRAHEqwUPIjC/ljjz5lf77uzzRWYL/+9VXEMATDokdIFVUMsaZG5cWTRCPvYPd8VdUwFoRchO0AodAuvPDCgFrk8CkfD0EZHEL6vEQmGWhly5gz/yNnq+jpzsNN2gbwiNspKbffXf1b4hLWsiOPPYhQ+AJUQ+nwajVaIKHi2LekoGaod3Vlpd162y30hbpYeJ34sgtZPccefLzrfwUTtQLVrxrjqWAi0ChFX+TxGxO1ncW1FxEiRRNLHSuAs9fVDcMIu8IZ7VpBxnLsYC0YPV+Y9oINw5sm42sP8UBFIOP4ceP4pt+hAdda5h8RIsFT7UkmEZznzp9LERn7URNgFoXUsckmUx3yl3CtPEqaS+XLTmpO8/Lqi2/BeSejthF2AFHsYwVNmrSWk2DNvWCAjCI4jqAKpdM1+zo9R3W2XHBVyL3JZuvarNkz7ac//Zn94ffXsHBHOpFfnrpiXM9t2Dz+cuMt9t+/+51d8qOf2EEQpPox3j2tOtVfqWSuKUfs8u3Jx5620aPxuLKIVY8OyFu4aA6S35ZwYuZeBBMmGAHKd20N/rrg10BYmdNHH3ncRkPUpfaVgHOCvcwLEha0cdloyzk5AjhibQkTFT3e1Mo2GqSKu+6+F4KiLSgVzEYSSWg5a2gkgbt5OC8wDkOsikurkKAb3Dlc2hOp/vSgiomQHXH0cc5xFpoIqs+a2Idku2ls6rDpM6bbuHGTmU7CHTCPVBDl/Pbbr9lee+7mqpetVnarMCzhiccfj4F5Cq0o6CQu7hv2w0suZK2qmPArlNDv/qk/BpJH6ORQCkrn8Et18BGHFGWT7se84g5tsq+edBpuxiHEhexgRx17MIY0Bd1pOSpWAgMXf7VDzO1roTWtqTvvecr+8chTqDtovPnEHxR32Yrm+U5dEPKLoLnQc0Q5tCoWhN/V4ti+ntOd4cNq7BoiYOfNn23FGBgRvHBDt+OJqraTv3oaNpHZ9ABu4v5K6xfw/Cc9Qj9SEUkRoDffmo3Xbg5jYxLgMgoi6MA2sd8BhzhDLNX5LRsO+o7kuLHJ/pCeGvUXDsDM6kRI2WbKq0pBJLa3oHa1YQtJEGIwdeqmEDqJsIJrMW5eggq1/QSq0oMNqpeBn3X22RAtbjFm7boOH/UjM6lDqkl/8+2a3/8RVacQIyKWXuaioKDLpqwzFngnM9ahE5UhLAV4wAqwzzEY9+HKnpv2mpMEFZOi6FlJqksWLLYdt9+Bp8qhcQI/EEQR6W6/HPfUCywe0T8IoZNCpXb7h9B3DP6ldtnll9jrbz+PTamFhQxeAAupooVwmE5UkbKyIXb5ZVfbZhtvhaR9Gfc8DWnHw6p9ZFLFFMbRR94Fc1bQHh5M4Ci1t0ceJSSSSWtNdNzYnTPl1wmdcCARWPww+PZYkP7WGPTR4sScw24NhQkQeQ1ut6FGL160zBnCtWtdMFvcMM+2wcgs3NW60J4/580EJ+XBg2+mPrLDSROoqCiyuQuasaG+yZgVW9bubDBNqNH77buf8/LWcLif4oDUmxXLm/n40BidJCGbaBPhHvvuvTd2KimccgmB4ZpDktZM+Pg76b9hvOFOK7j+zLPPguNdzAcmDHTiMtaDbLQKlBzFSaX+MxKGMArGMQozQz3f9XjzhvOptElr11nd8EKrH10Lbm/oYGB9MnGoQ4LmytPgktAAZbsZdT6U+ky2AMi+0bB8iR134hEQBri4y+//MhUCC5SeuCGAXFhYia7fa9/+1lkcTjYOlQ5bAhLOwrnT7TX00YoKAqaQCspxr2R3W5QdmkSSMRsOxMxuvsWmdvkVl9klP/yJ4w4FcEEBftLkSfalvfay51982saNHuH6MMAwUrc6utuslIja2bPnOkTyQFNjzC5fo7BbKGnyirBdOWTTH8cdJVoLjHpKCJsIt36zOMUUnyOmQ+dfywbSxIZA7ZNahvdju+22Z+E4f4+zPU3/YCZ1l+ElgwNhqG9autS22noT9H9tWRhsmnxfcTY7o/ITjz2F23eiMwSLmCngbC2CJp1nkTYzE/3GtuOTt4t1sYg/+mg6wXfD3KIrk6wOSdY+rXXWWZtxaawUY5zi1BlJKkhWEg54CcaXU0y0QosmTR7NQpxujzz8rB2Im3kIMUOKPyrEAzWkFm8i3LgKNfum6/9MJPnddtEPv2eHHLJvVDvYBay7mYd3333PMY5iJN9OXMulOEzYnYtaAAWPxqY+pBLlMlP27+gpQ8NsBdNVjFKRY1TNzMezxLzJFqTNsIodGz1mNG8GnmmLFizCRDAUiYX9GxFuqCY5YJxK7qqFaBdoK5Ovp37UWIcrxRAiOQe6FyRQr0b5RcxqEr4pvfgSKiDErZU9XRUVxKzJ7gnR2IgTJZTiW5XCaFZXGpK0/8orr1kd26m65GiAkhWwLtsTLTZl8hTmPVqNrGNJ9fqVqhsqXVVdREzgQoj+GL6X2jrrre36pGN0xFycRubuDPxnMOx2pZw0FC8PAC798a/ttddeACDlxCnsa3vttSf7XrQJU4RHKWjtGK/ght0shCqCofY+5FCQTAiEx4PJSSab7eJLf2brTFnbccBKxWKAL0JUN1pXk6vQ/RGwPXMF1IjaXznpePv7Q4+wN+gFkA+DKYugqYlIVKKDb7v1Tjv3W6c79JO0EghbWDap33h9FPi1ohGOGnHuVItklkdLeIvTynmUYuicyqYLf1/icgFETfKf2QsvvQaMqugTO5VrhsDNGmz9dacQkUwAITYjeeRkL5mNQVxnbZcQ7CZOpN3hEyePQfUjMlYSxwApjEORwqUgsNJL096ALSKBEDyaxF6h+Zk+60PbdpttUvEdssVkJtUvaPAN/ApRG9968z1n+9G2Ei2oTlQcMf4N1p8I5/VMxtfBzdCRVKUBsqkbGYxA85tw9g6OcWlN2h57bm8LCPL803U32g3X3YCXZoG1thOJLQoAkRMx7wT4p512GofYnWPnfftMpMwSCBsEn740NhHBjuQjuCmqXGEO0gUKUSP9kkn34+NclaA2Obs7w5o7d77N/HAuC25dcEIMkZu9JfYL1oP2hGm7SupUgAgj+iKiJ0Is5tTltt+wybmGeLseNikjcjljMFKIwijqR/kYrD4YSD5jUHryyWeQVLQncSjaAfiKaLgj4RKRvfjjDCs1bSLmL7/yKgS/hjaAKtKxbHXLFi20WXPfYFxUL8rGtGvu9NMLBL5ZEUa9LVn2LI2jEweLiL4YIIaiqLDPO9Bf1Tdo6mbhg+ce2UC4pYsb7b//67eoPjJaFtoPLv4BblhUjkAxfTcpIOO0ooyJtakos6+eeg5Ba+8h5hE53LyM7zbbaqst7LsXnAOnYTHy0Vj7MapYD6VCaN+P9vFI5ZBR8Pd/+AN16bgGKDgeA+3+lTXw/G9/zz6as4jSXu2JVeN6GH6XQby6mdQKvFKyxWQnbdOQsV9PJAC5JDk9QjJ/I8wUOj+ERRsR33pznt1+6z1MDPYOxGctZA4jsRtuvAEPE+NkLAzFZrxPBDaGThGARrUFTNeFm9TUcpYSr8ZedUJ6JMZIcJOn9cnHn8PjVO+8Ym5TLBLohInjbMzYMc6wqUjfeJKh1CcRIrpARQwVQrCI6O7lVsoOaHnY5J497MuHuTz6o4haT8yyUSj7d6pI6kLeUXkwOzimRcgL88WQXGRnn3OS/e2hB+3Ek0+2JmwgCkjVfCuwsQQD+ZDaofary38FTO92Y9GMaKd2TU0VfSxwEp8IkIhRZRVbSoALvXdwTTU+yEWq9ym4UACYdMNgE5yI8N6bHxAHpw2astvJw6eFKSM9KhbGcBmVhcXuHzclMfiPCKqu8eYSRFRZXov9BzubPMF8hNOKDTruhBNx7QMf6pPHUXFC7R19dt2fbnSTo7UjNVCOgYlsdWKYbr6kAaxuSo0xKiBVd/GipY5gyyMn7UQEduc993ChLlrWCt7W0lAMmD4IhqmPIt0lfYoAKQnvdAZYEc6M1elX/xUXdSz+JW6jMPESgLh8RR/nAm3uuHozEsdhRxzqonDzkEoEeFlK5IcISVG3zc099v0fXGS34XkqZaH3Ej8jSWjzzTeyP1zzO2fqEZET42NuWZyhdPStlUFy655vGR8VsSo7TA0AUBsnn3aq3fK/tzOxBEXWKUy8j+9ae/Qfj9nJ7FLWEktXq2XG72jetFlWxulNNtsULoX6AkKIEKgdETZtuF1vbRa28CgFMbxfbrQQHOI9yjnbxtXJH0I3kPDMvrT7njZmZD0IRp3AsJgo0m232dI2mDqJM2Tg0dQtL0ePsA6E0147qSQ99Gfp0uUgIMdXEOApjlKK2quks2eKFAVIClAuyOfMHODX2NBN3M3NvI1kmLUQvS3O2wWsf/+n/wG2zB/SUQFhAoKNUhi/++H+iLCymHl8x1132YTxk6yV98MlWRw1NZW2+x57uLkpRFz3XD2UTENWd1KievS4iHFmpxKIRXT4gSm+VFqHWh85qtx+eOn5tgew++EllzgVp5Rg0aaWRhetPITtEbfccrudeMKRjuPmy40Pg2tDcuqD8SRhTjqtoSvRZ50QjRUclCfEqcHGoV5KqtSCjyfZBEMSnnj3MkQAji58KKmCORGAWsTDm278i40YMowSdJiF30Zw6oZTJxPlvzOnAix2Ab2K34knZzuidR+RTy/op/YGPvC3v2KSUCyR9uDpuONK22abbV1RF1hJmXK2Ib3zzhwrZc5LMYJrfbjE+tnoC+y/BM8Q1FwKC16xWxmJuRfRD+tSY4ynRdi4Fi9agiNG6hOOHHCsGU/ciSd+BbwO2CKWK7xRsCuNxpLwSJqLgo4lGMiOVMWcyMaXzz69wVJqSQ2c0Xe3iEF0Qq07ENV++5vfEDNAiDjcvWF5k4vbKasQ6fF7wSSuadElAbK29NMnIlmPs7ffegvOPhx1TQAxYg9qQKYb4IAQE8FMA9Hc9cdX1zWJw93iOFBb0Nff47sNgOSxsEbWs+uXQUvtEpAUF1NXO4LI1g+iJeeKDPhHxvZGzphZi20mw0YMde5oHVXRC7JqoRx//FEQ34USVFzL/lwUoS4uZoLXfCCdJsgtTX6zV+rYMyAyHDnLjv/lKwjt595HMz+yR574O6vfSyOaONlVJk4ejnEdaQkPobhqC5G+8pQ8ypEXhxxxgJVRYQJJrwcdW0GNCpFwRmXaEyTKiPNYsdSwA43DozbBhfCLC0l9Gj96im2/3Q4QLpwEwKkfPWCBZthLqO/labOsm1dwtxOPIjdrWXkVfWrB4LgxcEW2XQXWaCH0YcjVvK8qScVX3z3UhMTR1HOf2D/ixTazhx/bwW675RbsZNhYKOAkIthxE3u0tAnXne1DO7V1lfSJN7OU4dqGQC6FGGi/21/vf8iOOf4Qt5DUF7VRwlz3wsBoZtWJzuXD8nV2VBfSZBFGfjHKf/z9IbbADLN8RZUTXLOEwNnv33ENLumJ2EYU0wQxZZ7SiTl2RE6EjlYZsBY2phO74sqfu6j8DiLxdfBfR2cLkfV+n5XKO/c2IR7vv/sBjBYSADNWfJDWo7xla687BYkMIz7R1Jymnmqyl+dhfBqzErPCulToCGsIZNQZ7CE1LGmC4XG6QkWts2dJnWwl4HfjjTeSH5K6VFokSH3w6xrFKxSPvumD2kWSkNAio7aYrBtzVs7sn9k1xZ6H7hNdSuQqfMXeeftD+/Xll9EAthwW+RVXXu72HYkAKWBNyYnPSBCKpJ4+fTbelL1t1kdz6RDvEcPwOmv2PNt4003snvvuZNCIa0SVZiRhpZoOHy41pZIkXFgclKrV7foOBIFAOhboG2++ygLGqo/qIIlCtqMk+8iqq9F7BkmKeQpvgz3l5DMQLZFxGaMil7WoFJy5/34H2Usv+mCu5cuWw5E0Xtl/aAtxxh0JQd9vv+Nh23bL3W3a888jUhP23oTrv3qIE3dffnUaGyFxv2IsLWDxi0MKF2qHGDDZyAVfagd2ZWUt8CrkWIeT7c5b73PjVwSzvG3avBk8Tk3sCVu0dIVd98ebbRfsA+PGTHCBc0sxasu4OHfOfJjEz1AbtBUEG4pwQkmSZSRd+huxv4zhDaLea+mUUzUwUssYWVtb5+KyZAvIlnRipd0zSbJiKDp6RB+H/BBOcXd95CnrpE6xLcVAi3XgD+Q0AbBMWE9iTRC1PttJcFJB5J0rhKtqgY8dOxFJQv1gGNS13/77ITkuZoFqW0wne/RGQ4Tq7Bc//ynep7eN9cS5UzBGPtnoJTTTvXgSWQ5SBRMBMQfzkA7csSgsYEmi2v4iL6ZCSLbYYhMIUIXrj+7JEF0Isw0f2UpkqpDEIvsfDjabv3CRI5TCH53BJRVIJzAMGZomQqFPb739DicBTAKfOWUUU4NOHdBBYxtt8gW2W2j1waDpc/h0AZQUrFkLIpZh65WCggMBCuhwN2+gkVe5DRG+ogqPHA+GjRhuE6aMdhFakqBE5Bi5sxeKefo21a7/qK9ao/7DfDFQEbtuTpZIwVKZBkiD8CtP0UtYTCx1O/jAAx0QFO8xZ84823df9jXRYS+mRfSMEaCd2F33PGjHHnscXpm1GRyeMQjT7Flz7Btnn2G/vOz7EDKF9HliAe5l0lXqxLaaSswTAxGlhyuhwLYTQt7ChthZsz6yN9942752yqm4Bsc6cbKHVV1RVkOYfgHtzbBddtzV1SNhdGUpGBIlZZ53wdc4v/p2EAX7DcTNcFGXEUr/7tvv2q477+bek3Y6qt+4cWPZ/wORgUs3rGiCQz7MBtzH0ZfR9yvqQNRiJqwUdQKiO34De+XOl23SlFEsNoUuhCT4FrqAz73325Md7k+wixkixYKr4PiTKk5EPPXkM+2rXz3Vtt9+W9txx53cEa1gLOEEb9pz/3zWPvxgFoF/a2Ff6WTTKcdvcIzI8OHDbfac6fYn9trtsONU0VOtpf6rTd0I4p2uSXJ23XnHrSwwoRfHpmCPyWcRFiJJDauX9wTVlf6tKokI6dPe2ObsVYsb5Fr2E4qQ5K5F2CQRC+HFnfVcyCqjfgMnHv76iivt7TffhIDCvFicMg53s8DbIbw77Li9k8YaV/jD8A4+6GACHa/D3jgdok4dSHHOLQ+F2X6bHe1rXz/FDj/yCBb4EN+GG5v64ZMkRrQbl/yRFBBdtt0MGVoL4eM2IQEKqJ01ayYnJdQiHRWjhrXRRg+SZz0ZZENhYcK0KoqqmGEv6foavZbgLDcCCknE88knH3XmB20zUkhHkrOexo6uZ86Rm8gm4ipYqciMD2c6Yi7GogMCy2CSBRCERQuXudiecjlztIiiJDjGVe0Wou/lHBkKAatAtRw7YWTI6r5/d/VVSOycz4TdTY4R4f3IEfU27Z9vQNrEbJFqqN5pB+CeTk0QngSg6ZnsQUnCWfQK91EQMLnx9c7ATux65Uhqq0r+ZMWo/4wxlkRahBwS7fLt2ututosuvMQtMgXxHcDEX/3fl7gF1cEGvAqQRRzu/Xfn2HfOvZBF+wGd5LCutkarHlpiM+d+xAmMz6HHrgcSO0GDE/M6ca9+YH//26MYQRMcP7oC0bsFAoDBjr4oJkNJMTcKRBNHld65rGEZOrTOOuFMG4BWXl7hXdvYDoTMkky0F+0sDos67zsnsYGT20DNT0yEbao4Si7ehXGKwvOHQLIkLuP9cFPPcNJbTzcdRo/vQ0rR4nFh91w7Ix4IpLgQbUHQkSTeW+KRRW+M/f7FP2TLx3HqFn3QB6jKEOQu/U3MTw7Sv7nyevvZj39CsGS5Qwa1I2Igt768ZWrDLVQwVGMUV5MhvQtpUsjsTgvEXjFnzmyOXriP40+29m261lb2x42ah5146+BkiWJODtgAw+kQF2Ap/lpTW4yhfAp13unGj+2SpDGo//2TvDg6X/gQtjE8988XwQsZKIMS7fM7Vy/zKtRLrR8upHKUIs0KpgwfVdMf7yGXdCc7useNH8O+u787luJap4KWZogAi2C7HXYkgrkDz1or0iSqEZRF0kMviK3TLsX0FIPmiV7ot1YQ99UTCLLsNu2EUkg2u+GmP9qhB+3vThuUGe7mG++38y+4AC7P2dEwUcV+HXzIgQRVfpc6MLLrWAUmWRJ7OkmCF1GCMELURdgFvm2325PjRma7fja3S7JO2pnf+KZdfNEFDqodSF7lNKqgxl2335e1gF0RKU8452wyjmqyRsEneQ7TQOSSFh2RoB19axtUBcbweQvn2c0332iHHbmHU2dlYF6wCOJXP8XGTeJ4E3omQt/DupKXUfUI37Q+IBSOCMlbKjXLGx58/cIDOVnkAc8n5qyZM6tnz5vh1OQieXSyUjbWDCIJ+dLLG5PE9nwbW4Pcg3lOtfjKCafQWTpBG6WSFKDW9xL9+YM3BGt1AAAPBElEQVTvXWpjx0ykw9iR0KV19tDue+9jDz58J/EPUGCiKntY0AJoBVD44Q8utaeefNrFB1VgzNIBUgrG0sFoFXgatIlOWrWQRxKCgCLvRwXShtQunbvTiZ4s1amnqJNI2SUOkNdjoD30y19kkWpS4kkgiCNJeCagk3isnfFPP/Ww3f3AvXb1lb+3Jx6d5h6sO2VdpBYII5NQVsqhT9hMZJBWYFoDx3g2sUu+DFvBFpttiZS4P4vwMNMxJI7mBALPIvMGytCu9G02dLb32gknHm0bbbS+/eEP19odGPGVhg0ZQchLtw1hI6sIsHTufGBQiGQg2CzniNQmdpTrPKDDD/0y7u49aXs/EMCf5aM6Bhqt7vskDtbsYcr8zl44E3W0iGjd5S5GB9MSAaHv2vnfPdtJBW3Mi2LDVpoYn+KJtA/ww+kfWjWqbDKp2CovPQUEFIuT9KCkOfUJWEDkK9g2o42Z2hYy6yOYGXlLsHv94le/soMO3M8t4qiA+6oZ6ut5662nOWnhHnfawjNPPWkF4MYwnBQyuDrpGJjJ6RAOTHOFtUqj6O98pDClahwas+d9hNo31kmRksTxFdgzSJ6FqF/F7MJXYGTDimVsYxnnyngDbJjkMEo9EiPXRyPGswWCNRErN2vmDLclA7KPKlRicxcu5sSFL5GTBU8eESD3AlAaf+/9t4hRGsa8QPywyUm9FqJKaNBYSsEJMayQBM/QE+FaLwRY+QXl+nrfX60LqWyzZn/IGiYQk9MGnPQuW6JENST07JWjNhzz0HOXh1pl3OMjOiApSFLzRlPHIUnVuI283WKQUZgBFQ6YPBEKPR4wS75d+N2L4Mzs02K/lg52nzRxfQxoo5ESUMvmdth3zz/HbuVc3bFEVo4ZM9pRdQGsmLigK393HW/H2AuphfDzyAWvN0+4IzZp7+57buXY1Oc58OwJzhJ6xhYS8KW4HNlEGjhUrAgDuPT8XiELgxWAu/BF63Az2XJ0Sp0O0B8/sR41MGkXnvodO+zwQ4nFGY/kBJCAkdQRJ1rpO7CIAceq/Dr/F5GU53vvvS/Rqwfa4nkNBMs9YPfddw9IXIvE0U7bCY7xHOn0+QrE0822+ILtsttutudee9nkiWlxV5K/JiiepGMr9UA4lBohZkq1HHex/S6b2267b21NeA1fefllF1H71BNPERbBeTX0SzYExTPpfOT11t+AF0eub1tutyVBZZNQlXlrCe2xXp00p3gfSVmDpZKiahCojTHDxVAv111nHQyfHHYG8mjv3b77f40d+Ec5OPqNvgJk/6Tlo/8a7oIlSyCEMC2IUjerxb+EIL04tSS9i5+piYiQ++Zaov06602AAA8FoTe0bbbe1jbbEk5N3VKPpKqkEvekNWs/lmS6E088CI/tQS6a+JFHHuZIk2exLS10arM8XXKWxBesiEPq1UdaUKReSQJ9Qzly2EdB69gWjWvo0DoXmCi1RH0dQnDf1ltt5srIVqckXIvWp/vt/wQE8HlaOFFx4qSJ9EWnFBJGgOdtQ5jP+jA5HXyjEw7kcNEaevWV523zraeiApa7NnVMcp70tVhyGgz9Cagd4Bl+d2Bgq+H86hXNc22Hndd1fexAba/AwfTm2y+Du+vB4DmtEbgHAu0IUf+BaLLcAAMOqxtehcUTy6by/MJuzAbbsDVJR9pgC2P9CsbkUtYBU8ZB9/G59ZRbZfJt3cmb87ccsRcdHFHUi9IgGwFii5fMRx3ycTAK1tKinzt3Ae+avxJJ4GAOzapJNS8rg5K6k8QPrNggxbY4wu6e+D9LF2NI45xgxSBJYlIUpmxB4mIiPDrwXG9fLUfElGQ1AltFGVHF2nulNxaIs4hjKClKWLAMOn9qphxgfHteHQOBIh6rRdCG7h1eSa2D0nRsiZJUzlbeciBuJGNfMSxFRFCMSK8G6tNi4IcOkg+gd0TQN+X+Ium6FIiQXMgOkbjbAxUpw00alrm+BQsd/xDqC98icDpPuaJSXjpd00/sA4pEL0ea0fEKSm7/Gd8D4ZSegz60B3EH+bURU+7jKo6bDZKuHBFdqAs6S0bxWf5Qq9AL1eCTI0Jcqv0KUUKSDgOroE/ZSSAIaBkfqwiMCI3gDGOFeOhVRRywhjoifND6C+MI5TtRIRSnoh5pjSiprDtaAgt5AeqscE35lYdhppNwI/3LXYlkqH31oxX1Tls2RFq1By/J4WJaoFLxReAT2kYCN0YYdvW7uWb1S2HxScTRO198DxQ75y2UMsILbxIcs1IKjOSGbwe+UveE5yJCOi5Z/daBgZoPSakZia4FeIT7DgYBDhoH/dSYO+g7WOpwudvkbPKzkOzQmeQEjjLvZRBEllmqToQsd63RBLAJGmF0ajPMg/BRXtEuHYGL7SMfW7LUfHoQy8VlVhqQCIXJ0ruvzv3WBXbf3Q/y2ph6EAGVh9HUEvm7vHEp1LUCo3MjlLwYN/RipKUipJDDidn5CnaFiVBsEMD5aqkRjhhPEUF1t7KBGM/3ca5Vt7f/UDpiB4ErDFRf6FogBJkgDkvLl9RiVXJHV/hb/f5q51RqvAM1HBpUSZ7LMCkjZHwLhPRxqaHpKdbUK0msDujg78RD9nVHnFBiuPR0pVDS/eBPxLTDTycBpX4IpeL940H2WPu9vSQrf1xS0SEC2fOr35kjSLceHsTxQ081n6Hf8fpdSQdjkRefAlPRLw9XLYKVJyxt0cOIO7hf3FXnSan2omyOJgm0HrypWUr3wBXjT7iTVW8kcSmXxim8k3SlAEElbRT1KpH7mfFHJCnAc2VwVC1xtAtMzx2ez2x7yc/3TT2T00dHNfs3wkaDUh0ZLfsfuuehMsBDdwvMRXcVThdoL6RLUU1h3FkVQ4TSfNp3y0cX6/ptjMabbbq1jRk1DipcAAfklSRIGklsMLV4CXSQd5Id8IuXLLNzzvmm/fDii7jHLvPaEsdFMCNraAy7P2JHvfNdzOpU/FnmgMOkpnPojs+D7hvdTkk9+s1sxCfEZQkZo8rDGkoToQjbQn2OY/gfgQDEvRH+Sbqna0SEKOyQHNXMv7ZZigqsKEWEVLvqTtcvThpP2UQiLJ6AyAXRYgqLOHyHOqSGrSrJsBtPa0KEVE4u63gV3hwdrzF9nYYvRDjqqD97QYvCc9QUUQjFUhPsJzZOhJRFu8JDSjGn6IYr6oi1YAArd0n5kTi6fbmALtFD51DUdSACmdAJufSdXVL3IiYSId1qEaEUFVF5aojgEqStOLaqLwGGLjN/8uLAFxFS+Vid3VFfQr2pcgOQIQ+R7BHHf9Mb2Y5k/3Jwl+QGHAIBUuXx7PyMWERAQs8zRZYkzuq1zfWjhjtxTp4JeTlkqCzEIzVj5ge23fZb2Kmnn2ybbroxh29NdG9NLSE+SGpKG665St660ClxWFGTmu2w2tWRVSQ/0FgGQTmDsoRnnmCGXwN+06aKh+TGH8PEgbqUBSOKxmWJUFsWgjn2KPhm9V4NpBaJ70WoP9TkOqiYBPcAbZtvT4hCDtU5UB/CvPkavSQFV4tsTa41+uU2UPqmo7+hBxk3Yz9Cvf5WXP/3d7Iki6zxRQOJ1cfCCUPhbjBIZ2SIfqTtGZEE6haLYK2PKhGcaD8+calrYOT6kjk+vfE0nvp1V4tU7YRsWjDu40ulbkcXbixUAntLFYnXn77WvK0kRZ3QXEvycbMbYKSbsRRsZ+FWdqvx3GoxwDDkzyBKeseby5TGJ8lBSv3qzepHqG+V3w7fwRiEFmcjkEMwToAGKJyFTT6HCJBiX67/0/U2aa1J3h3JGSit7Q0uTmjqxpvaXffeyma7CalJaHVxKkSiUrYChbmFWA1JQUkUTOe5HKDx1b41IAFa7dIZGTXPYdKycDMj3xr9WBkBWqNKyBzrnCdmASvTCJNZZbgfJ4giIGGEutTvAac5s6pP8VdY9J8YvLVoxM0HqlD34pw/TpBXOUbBMoKjPAkB9KGMcDDQlNTiDHAPD0Lm1f0O5eUcHzhlsoOB84S7H7cXbof/asMptDbIt1BQxEBDjKHjQKUy1DGfQUcE9BFM9SRnBO3GrT7bZrvtcfvua8cc9xXnldEpe3ovmAxeSnEAqk0BQyKz8ER19SKOy+sUUpwr6l5QG8LzFDKkb6z8SlQ2XfXK863iifq8JimDswxQ0I0vLJCwAmP5Mm9lSmri5B4e6V6FSJ5YFbFLib6ZK2ZQ+AbOlCLumjFBPd1mrAG6FOr3+frPT7gfL5V9na67/3xn5s3m5BknOLqswriVt5lZPt1uaCUzRIK7KaIScugen2jYbvixSVNsTmZaeV8y8/lf8dypvqJ+BBteqoz6xf+gLmdLKt5mmModu8jsX6oNlyPeeqxIbO4Hm59VLzg6nNm8b0TwXEkakAgpr4jI/PkLITp4oaKX2XtrBeoVnDUOENUfhqYp13Vcbw8v6+O2S4MukhhAQplVf4fWV51rZU/7o+nKcvr72Ys+O3f2+LKfZ+NwoFchXzYSDNY/7+UIpYF/hATZ9aRyDEqEMuGpF0v6FO5n9yjcT7WQdZGZf6X9ikplLhrRiIDBoR+B7YV2M+vPLp/VGYhqKBc9SdUffmeWyK7PH80RbzOrvszi/X7Fc6tu4YM8zgMSIUprfp3GmMVtPx4R6tedfjfS8O73KLoR5mNlz7OpUHzE/csgy/TPoPgcRazqnfFl7k0CsqjLUFjAwQhyMYoXApqIQ2ozm4DUv6b+Da7eneya4hO+ejXEc/1rpeM1fdzr7B5kj+/j1hvK+foCY8heU/0kl5QEFMqH75X1a2X3Q7ns8YX7n/R3ID6h3o/Xbn+iH+ob+DvTPxrkgMFgMnBd2XfdghchimkKA+XxjH6wxZ9d8vPxe0BjwdDYJjpHqSFA8jgQLM239j7J4v3xUuDSH690rlQOAv9/QuCTIXn/mbBDHYvEmah/4acjPhFL7Y04Z+C00danlJ0n3A9DHBRg2dJaKLiy75Vy7tDprBYHYRgfj3+urHP972f1hgxZLWarA9lV/Iv979/+YAAfpMHs/mWPp9/z//Qb/SG0qh5nzd6qsq7Ws36tDzo9g2UYrNl/tXx2/WuKL6vOP6AklN1k9u+4kTn7We53DgI5COQgsCYQ6EeUQ+HBjVMhZ+47B4EcBHIQ+PgQ+H901zIaGXiDngAAAABJRU5ErkJggg==;" vertex="1" parent="1">
          <mxGeometry x="520" y="540" width="137.62" height="30" as="geometry" />
        </mxCell>
        <mxCell id="Pd8pBgte8W38DO9UlrW--31" value="Resources provided by" style="text;html=1;align=center;verticalAlign=middle;resizable=0;points=[];autosize=1;strokeColor=none;fillColor=none;" vertex="1" parent="1">
          <mxGeometry x="320" y="530" width="150" height="30" as="geometry" />
        </mxCell>
        <mxCell id="Pd8pBgte8W38DO9UlrW--32" value="Building block repository" style="rounded=0;whiteSpace=wrap;html=1;fillColor=#d5e8d4;strokeColor=#82b366;" vertex="1" parent="1">
          <mxGeometry x="80" y="490" width="400" height="25" as="geometry" />
        </mxCell>
        <mxCell id="Pd8pBgte8W38DO9UlrW--33" value="" style="dashed=0;outlineConnect=0;html=1;align=center;labelPosition=center;verticalLabelPosition=bottom;verticalAlign=top;shape=mxgraph.weblogos.github" vertex="1" parent="1">
          <mxGeometry x="86" y="492.5" width="20" height="20" as="geometry" />
        </mxCell>
        <mxCell id="Pd8pBgte8W38DO9UlrW--34" value="Service repository" style="rounded=0;whiteSpace=wrap;html=1;fillColor=#ffe6cc;strokeColor=#d79b00;" vertex="1" parent="1">
          <mxGeometry x="490" y="490" width="420" height="25" as="geometry" />
        </mxCell>
        <mxCell id="Pd8pBgte8W38DO9UlrW--35" value="" style="dashed=0;outlineConnect=0;html=1;align=center;labelPosition=center;verticalLabelPosition=bottom;verticalAlign=top;shape=mxgraph.weblogos.github" vertex="1" parent="1">
          <mxGeometry x="494" y="492.5" width="20" height="20" as="geometry" />
        </mxCell>
      </root>
    </mxGraphModel>
  </diagram>
</mxfile>
